<svg xmlns="http://www.w3.org/2000/svg" xmlns:xlink="http://www.w3.org/1999/xlink" viewBox="0 0 703.272 703.258">
  <defs>
    <clipPath id="clip-path">
      <rect id="Rectangle_165" data-name="Rectangle 165" width="703.272" height="703.258" fill="#b09779"/>
    </clipPath>
  </defs>
  <g id="Group_117" data-name="Group 117" transform="translate(-1620.77 -1409.99) rotate(-42)">
    <g id="Group_111" data-name="Group 111" transform="translate(38 2380)">
      <g id="Group_110" data-name="Group 110" clip-path="url(#clip-path)">
        <path id="Path_85" data-name="Path 85" d="M276.667,0c-1.336.812-2.911.341-4.356.793.142.113.246.267.364.279,5.257.557,5.368.559,5.248,5.656-.554,23.592.444,47.185-.1,70.779-.2,8.974.123,17.959.129,26.939q.024,31.635-.029,63.269c-.013,28.771.116,57.543-.148,86.311-.053,5.725.19,11.43.188,17.145-.015,31.184.155,62.369-.1,93.55-.1,12.574.227,25.139.139,37.71-.148,21.094-.063,42.189-.07,63.284,0,9.147-.062,18.294.06,27.439.033,2.493-.8,3.6-3.3,3.587a89.14,89.14,0,0,0-12.706,1.074c-1.873.264-2.714-.372-2.76-2.365-.264-11.657-.688-23.3-.093-34.972.282-5.529-.224-11.094-.234-16.642-.047-24.895-.26-49.792.043-74.683.131-10.814.191-21.647.078-32.441-.234-22.4-.168-44.8-.1-67.2.033-11,.715-22,.308-33-.8-21.476-.429-42.955-.265-64.427.072-9.528-.185-19.045-.152-28.569.086-24.428-.11-48.859.077-73.286.08-10.447.086-20.9.141-31.344.048-9.148-.054-18.321-.168-27.481-.031-2.493.207-4.989.312-7.484.058-1.376.317-2.8-.835-3.922Z" fill="#b09779"/>
        <path id="Path_86" data-name="Path 86" d="M239.444,0a9.05,9.05,0,0,0-.4,3.834q.028,121.645.062,243.291.006,123.586-.043,247.174c0,3.534-.454,3.818-3.85,3.386-3.481-.442-6.994-.647-10.5-.875-3.563-.233-3.788-.4-3.787-3.889q.011-57.766.027-115.535-.006-58.738-.044-117.477,0-89,.03-177.991.006-37.632,0-75.265c0-4.939,0-4.938,5.016-5.176.449-.022.9-.079,2.084-.186C224.979.111,222.275,1.326,220,0Z" fill="#b09779"/>
        <path id="Path_87" data-name="Path 87" d="M0,221.666c1.128,2.6.258,5.522,1.571,8.7-.106-16.208,3.324-31.314,7.524-46.348V313.83l-.7.062c-3.507-15.13-7.024-30.258-6.72-46.008-1.59,2.8-.281,6.023-1.676,8.782Z" fill="#b09779"/>
        <path id="Path_88" data-name="Path 88" d="M200.71,248.835q0,120.546,0,241.091c0,3.44-.017,3.409-3.424,2.555-4.035-1.012-8.078-2.015-12.159-2.813-2.16-.422-2.9-1.517-2.921-3.608-.206-23.685-.28-47.37-.057-71.056.092-9.719-.041-19.44-.04-29.16q.006-49.969.028-99.938c-.006-20.169-.11-40.339-.1-60.509q.024-56.239.12-112.479c.008-9.9.269-19.815.113-29.694-.338-21.292-.118-42.578-.143-63.866,0-2.777.048-5.555-.034-8.329A2.413,2.413,0,0,1,184.24,8.3c4.77-1.124,9.539-2.25,14.3-3.423,1.582-.39,2.262.11,2.218,1.752-.066,2.406-.075,4.814-.075,7.221q-.019,92.494-.03,184.987,0,25,0,49.994Z" fill="#b09779"/>
        <path id="Path_89" data-name="Path 89" d="M315.75,248.844V484.605c0,4.549-.006,4.525-4.479,5.537-3.874.877-7.834,1.44-11.544,2.95-1.744.71-2.421-.041-2.49-1.7-.038-.924-.047-1.85-.048-2.776q-.028-41.1-.051-82.2c-.007-44.232-.1-88.464.082-132.7.037-9.228.255-18.484.17-27.7q-.159-17.479-.214-34.968c-.085-34.144-.039-68.288-.044-102.431q-.007-50.4-.014-100.794c0-3.716.151-3.7,3.785-2.658a115.621,115.621,0,0,0,11.336,2.654c2.659.481,3.59,1.606,3.578,4.416-.114,25.179-.065,50.358-.065,75.537q0,80.535,0,161.07" fill="#b09779"/>
        <path id="Path_90" data-name="Path 90" d="M162.835,28.863c-.6,10.043-.317,21.617-.224,33.151.176,21.935.127,43.871.117,65.805,0,9.429.142,18.858.119,28.287-.059,24.334.144,48.669-.11,73-.113,10.807-.183,21.634-.111,32.424q.219,32.9.08,65.806c-.054,10.993-.153,22.007-.072,32.984.159,21.749.145,43.5.083,65.246-.032,11.27.28,22.541-.141,33.826-.246,6.617.069,13.311.189,19.97.053,2.925-.3,3.132-2.978,2.021-4.187-1.739-8.307-3.67-12.582-5.155a4.343,4.343,0,0,1-3.316-4.723c.02-2.684-.179-5.378-.019-8.052.8-13.414-.052-26.823-.035-40.234q.037-30.828.007-61.657,0-50.388-.01-100.776,0-48.426.019-96.851c0-32.945-.261-65.893.117-98.833.149-13.042-.557-26.079.053-39.118a4.22,4.22,0,0,1,3.069-4.3c4.313-1.669,8.579-3.468,12.808-5.339,2.093-.926,2.95-.365,2.94,1.849-.013,3.055,0,6.11,0,10.67" fill="#b09779"/>
        <path id="Path_91" data-name="Path 91" d="M335.478,248.917q0-55.962,0-111.924-.03-58.186-.112-116.372c0-.648,0-1.3,0-1.944.027-3.546.094-3.577,3.339-2.223,4.185,1.747,8.363,3.512,12.584,5.166a3.925,3.925,0,0,1,2.774,4.209q-.06,111.378-.027,222.752,0,99.156-.025,198.311c0,8.333-.036,16.666.068,25,.028,2.271-.707,3.531-2.921,4.338-4.344,1.583-8.574,3.477-12.859,5.223-2.757,1.124-2.926,1.028-2.924-2.016.009-14.256.068-28.512.067-42.769q0-42.773-.046-85.542,0-46.8.033-93.6,0-4.3,0-8.609h.053" fill="#b09779"/>
        <path id="Path_92" data-name="Path 92" d="M392.393,248.882q0,100.118.045,200.235c0,2.58-.637,4.215-3.018,5.583-4.646,2.668-9.08,5.714-13.537,8.7-1.6,1.073-2.026.322-2.011-1.084.139-13.325-.472-26.652.157-39.976.078-1.648-.225-3.311-.224-4.967q.023-68.178.069-136.355,0-48.872-.084-97.745-.02-25.827,0-51.654.006-47.744.017-95.487c0-.729-.218-1.565.5-2.053.845-.578,1.315.29,1.9.664,4.37,2.785,8.656,5.715,13.144,8.295,2.345,1.348,3.091,3.013,3.083,5.609-.075,24.346-.052,48.693-.053,73.04q0,63.6,0,127.2Z" fill="#b09779"/>
        <path id="Path_93" data-name="Path 93" d="M124.054,248.89q0,103.876.009,207.753a48.842,48.842,0,0,0,.229,5.261c.174,1.608-.356,2.311-1.8,1.412-5.183-3.233-10.312-6.554-15.421-9.9-1.488-.975-1.1-2.637-1.106-4.085q-.053-44.022-.078-88.045-.018-62.214,0-124.43,0-26.93.035-53.859c0-17.213-.046-34.427-.039-51.64.012-27.579.08-55.158.035-82.737a5.611,5.611,0,0,1,3.113-5.575c4.482-2.59,8.749-5.553,13.116-8.343.6-.38,1.219-1.126,1.964-.637.647.424.119,1.181.082,1.8-.089,1.477-.146,2.958-.147,4.437q-.009,104.294,0,208.588Z" fill="#b09779"/>
        <path id="Path_94" data-name="Path 94" d="M430.718,248.784q0,83.442.046,166.885a8.469,8.469,0,0,1-2.744,6.645c-4.573,4.322-9.087,8.707-13.643,13.048-.432.412-.811,1.191-1.581.809-.613-.3-.283-.973-.3-1.5-.7-21.649-.31-43.3-.339-64.956q-.1-75.249-.015-150.5c0-41.65-.087-83.3.065-124.951.033-9.051-.371-18.117.324-27.164.014-.184-.008-.372.016-.554.206-1.62-1.219-4.086.165-4.659,1.728-.715,2.84,1.827,4.128,3,4.035,3.669,7.878,7.548,11.853,11.284a6.223,6.223,0,0,1,2.067,4.9q-.054,74-.022,148v19.715Z" fill="#b09779"/>
        <path id="Path_95" data-name="Path 95" d="M85.731,244.309q0,88.446.012,176.893c0,4.524.452,9.047.077,13.575-.045.543.117,1.162-.5,1.471-.691.346-.964-.29-1.342-.658-4.842-4.71-9.659-9.446-14.542-14.113a6.88,6.88,0,0,1-2.267-5.4c.136-16.193.284-32.4.185-48.581-.13-21.376-.071-42.753-.16-64.13-.049-12.026.372-24.073.21-36.08-.415-30.82-.039-61.637-.229-92.453-.071-11.561-.227-23.128.039-34.683.4-17.389-.436-34.771-.017-52.155.065-2.681.2-5.36.262-8.041a4.393,4.393,0,0,1,1.56-3.132q7.461-7.258,14.906-14.534c.391-.381.744-.932,1.382-.7.851.3.511,1.057.511,1.672q0,90.528,0,181.056h-.09" fill="#b09779"/>
        <path id="Path_96" data-name="Path 96" d="M47.215,394.8c-6.65-9.51-12.36-18.912-17.852-28.452a7.5,7.5,0,0,1-.663-4.06c.236-11.563.4-23.153.264-34.691-.216-17.955-.09-35.907-.2-53.86-.071-12.127-.068-24.256-.071-36.383q-.014-49.548-.03-99.1a18.094,18.094,0,0,1,2.227-9.46c4.915-8.712,10.516-16.964,16.321-25.991Z" fill="#b09779"/>
        <path id="Path_97" data-name="Path 97" d="M451.1,103.854c.981.089,1.233.878,1.6,1.46,5.326,8.342,10.953,16.5,15.586,25.272a9.668,9.668,0,0,1,.787,4.842q.023,49.709.012,99.419,0,62.9.045,125.8a17.382,17.382,0,0,1-2.157,9A244.676,244.676,0,0,1,451.1,393.9Z" fill="#b09779"/>
        <path id="Path_98" data-name="Path 98" d="M489.86,184.113c10.822,43.207,11.065,86.406-.056,129.6h-.717V184.135l.773-.022" fill="#b09779"/>
      </g>
    </g>
  </g>
</svg>
