<?xml version="1.0" encoding="UTF-8"?><svg id="Layer_1" xmlns="http://www.w3.org/2000/svg" viewBox="0 0 1263.74 442.41"><defs><style>.cls-1{fill:#3b8da5;}.cls-1,.cls-2,.cls-3,.cls-4,.cls-5,.cls-6{stroke-width:0px;}.cls-2{fill:#5ab87c;}.cls-3{fill:#2e6b7c;}.cls-4{fill:#b09779;}.cls-5{fill:#a5d6b1;}.cls-6{fill:#4e3f36;}</style></defs><path class="cls-5" d="m358.44,405.56c-10.32-1.21-20.17-4.09-29.73-6.91-5.35-1.58-10.88-3.21-16.41-4.52-3.9-1.19-8.48-1.47-13.33-1.77-9.19-.56-18.68-1.15-24.38-7.88-.17-.2-.29-.42-.36-.67-.71-2.38.06-3.85.82-4.66,1.92-2.05,5.32-1.61,6.82-1.3,20.33,1.72,41.1-3.51,61.19-8.56.02,0,.2-.05.22-.06,9.66-2.09,9.89-4.18,9.89-4.2.13-2.27-7.73-6.11-23.37-11.41-1.77-.6-3.32-1.13-4.51-1.56-5.21-1.58-15.15-2.66-23.64-3.34,1.4,1.37,2.2,2.95,1.77,4.76-1.83,7.6-26.85,8.57-30.17,8.44-3.98-.21-8-.54-12.26-.91-20.14-1.71-40.93-3.47-55.74,9.07,4.99,2,10.69,3.12,16.66,4.3,9.01,1.77,18.33,3.61,25.85,8.76,1.53,1.01,1.46,2.28,1.35,2.78-.46,2.23-3.42,2.98-11.15,4.39-2.43.45-6.11,1.12-6.84,1.57-.08.05-.24.15-.33.18-2.76,1.19-7.51,2.47-13.01,3.96-8.31,2.24-20.61,5.56-23.55,8.55,12.47,5.43,25.57,9.68,39.17,12.64,42.5,9.24,85.83,5.05,125.02-11.66Z"/><path class="cls-5" d="m241.61,318.16c5.53-14.03,15.25-23.45,23.83-31.77,10.65-10.32,18.34-17.78,12.69-29.02-.03-.07-.06-.14-.09-.21-.37-1.02-3.82-1.95-5.89-2.5-3.25-.87-6.32-1.69-7.49-3.82-.46-.84-.57-1.8-.32-2.78,1.04-13.76,19-21.62,33.45-27.95,2.08-.91,4.09-1.79,5.94-2.65-17.74,5.2-35.52,10.89-51.81,16.61-1.07.69-3.03,1.44-6.23,2.62-3.1,1.14-9.29,3.43-10.81,4.91.05.03.11.06.17.09.1.05.2.11.28.18,1.94,1.5,4.69,1.62,7.61,1.74,3.2.13,6.51.28,9.11,2.31.15.12.28.26.39.42,1.13,1.65.9,3.06.52,3.96-1.78,4.12-10.98,5.8-25.85,8.21-10.03,1.63-22.52,3.65-24.72,6.55-1.73,2.1-2.43,3.74-2.01,4.68,1.26,2.82,11.32,3.27,17.34,3.54,4.33.19,8.06.36,10.19,1.09.07.02.13.05.2.08l1.22.57c5.11,2.36,13.66,6.31,14.25,11.71.25,2.29-.89,4.41-3.38,6.3-12.44,10.05-28,13.88-43.05,17.58-5.19,1.28-10.55,2.59-15.62,4.14-7.77,2.7-15.58,6.56-23.14,10.29-5.76,2.85-11.72,5.79-17.65,8.21-.03.03-.09.1-.09.1-.03.25.38,1.2.62,1.77.53,1.22,1.13,2.6.91,4.09-.08.55-.41,1.04-.89,1.33l-18.89,11.26c4.97,5.78,10.27,11.28,15.85,16.47,1.42,1.29,2.84,2.58,4.3,3.83.05-.04.08-.09.14-.12,11.88-7.04,25.16-12.55,38-17.87,22-9.13,44.75-18.57,60.94-35.94Z"/><path class="cls-3" d="m97.18,308.23c6.95-2.68,14.47-4.79,22.43-7.03,16.31-4.58,33.17-9.31,44.37-19.25-4.89-4.94-20.37-2.94-29.86-1.72-8.13,1.05-11.18,1.44-11.96-.97-.67-2.08.34-3.54,13.76-10.72,10.09-5.84,21.26-9.61,32.07-13.24,8.19-2.76,16.67-5.61,24.52-9.35.96-.56,2.45-1.04,4.33-1.65,1.85-.6,5.55-1.79,6.48-2.72-.17-.18-.52-.48-1.22-.87-.77-.28-4.64-.2-7.46-.13-9.47.21-13.74.03-14.85-2.58-.37-.86-.45-2.24,1.25-3.89.27-.26.61-.44.97-.5,15.07-2.74,29.03-5.28,41.96-7.65-1.39-.25-2.79-.56-4.18-.95-24.33-6.92-79.55,12.61-85.5,16.87.01.01.02.03.03.03.6.7,3.24.85,4.99.95,2.92.17,5.68.33,6.83,2.33.64,1.11.56,2.45-.22,3.99-.16.32-.41.58-.73.76-9.11,5.29-19.41,6.99-29.37,8.64-13.42,2.22-26.09,4.32-35.59,14.63,3.54,12.6,8.25,24.7,13.99,36.2l2.78-1.11c.06-.03.13-.05.19-.07Z"/><path class="cls-1" d="m142.73,247.04c-.72-.27-2.52-.38-3.65-.44-2.94-.17-5.97-.35-7.61-2.25-.53-.61-1.13-1.68-.97-3.29.18-1.16,1.05-1.84,1.97-2.42,8.92-5.65,62.96-24.44,88.36-17.21,8.76,2.49,18.01,1.66,22.8.93,46.82-8.62,76.95-14.35,91-17.32,3.03-.79,6.04-1.56,9-2.29.04-.01.08,0,.12,0,40.57-10.5,79.7-8.73,108.02-4.58.06,0,.13.02.19.04l3.23.82c2.02.68,3.62,1.24,5.02,1.73q8.96,3.12,18.04,2.42c1.37-.1,2.96-.23,4.78-.36-5.04-73.41-48.38-136.25-110.13-168.55-1.06-.55-2.11-1.1-3.18-1.63-.2-.1-.39-.2-.59-.29-28.47-13.97-59.87-21.27-91.57-21.33-.93,0-1.85.02-2.78.04-.83,0-1.67.02-2.5.04-110.84,3.05-199.75,94.15-199.75,206.08,0,17.92,2.28,35.3,6.57,51.88,10.17-9.82,23.33-12.05,36.1-14.15,9.42-1.55,19.15-3.16,27.54-7.86Z"/><path class="cls-4" d="m137.82,336.59c-.69-1.59-2.12-4.9,1.31-6.72,5.97-2.45,11.87-5.36,17.57-8.18,7.66-3.79,15.59-7.7,23.64-10.5,5.24-1.6,10.65-2.93,15.89-4.22,14.65-3.6,29.8-7.33,41.64-16.89,1.42-1.08,2.07-2.06,1.97-2.96-.36-3.31-8.59-7.11-12.1-8.73l-1.14-.53c-1.66-.53-5.25-.69-9.06-.86-9.04-.4-18.38-.82-20.59-5.75-1.07-2.39-.26-5.18,2.49-8.51,2.85-3.75,12.13-5.5,27.06-7.92,7.86-1.28,22.5-3.65,23.02-6.02,0,0,0-.04-.05-.13-1.65-1.12-4.1-1.22-6.69-1.33-3.17-.13-6.76-.28-9.62-2.43-1.97-1.08-2.32-2.43-2.26-3.38.2-3.21,5.23-5.3,13.49-8.35,2.2-.81,4.94-1.83,5.52-2.27.16-.12.33-.22.52-.28,12.91-4.54,26.76-9.05,40.8-13.33-12.3,2.32-26.79,5.01-43.49,8.09-.28.07-1.69.39-3.91.72-17.16,3.16-36.57,6.71-58.34,10.66,2.61.22,6.57.14,9.05.08,5.85-.13,8.19-.11,9.45.65.82.46,3.43,1.95,3.17,4.42-.32,3.07-4.82,4.52-9.17,5.93-1.43.46-3.04.98-3.61,1.33-.06.03-.11.07-.17.09-8.08,3.85-16.69,6.75-25.01,9.55-10.63,3.58-21.62,7.28-31.44,12.97-4.76,2.55-7.67,4.24-9.45,5.37,1.59-.16,3.53-.41,5.34-.64,11.83-1.53,29.7-3.84,34.49,4.75.41.74.27,1.66-.34,2.25-11.86,11.35-29.81,16.39-47.16,21.26-7.99,2.25-15.55,4.37-22.43,7.05-.04.02-.09.03-.13.05l-2.15.86c6.75,12.92,14.82,25.03,24.03,36.15l18.4-10.97c-.13-.42-.34-.91-.53-1.34Z"/><path class="cls-1" d="m401.04,368.01c-2.58-.22-5.28-.2-8.16-.21-10.78.1-24.23.02-27.71-13.49-7.65-18.59-20.33-23.08-37.86-29.28l-3.71-1.32c-.18-.06-.34-.15-.49-.26-9-6.72-19.5-5.89-30.61-5.02-3.27.26-6.65.52-9.92.57-.6-.08-1.14-.26-1.5-.72-1.89-2.4-.96-5.57-.15-8.37.23-.8.47-1.64.63-2.4-5.26,9.33-13.11,16.63-20.71,23.7-2.6,2.41-5.28,4.9-7.79,7.42-3.31,2.92-2.94,3.96-2.94,3.97,1.3,3.17,20.79,2.22,29.12,1.81,8.36-.41,13.23-.6,15.4.09,9.31.58,24.56,1.83,31.87,4.05,1.26.46,2.78.97,4.52,1.56,14.37,4.87,26.23,9.37,25.9,15.16-.19,3.4-4.15,5.75-12.83,7.63-20.53,5.17-41.65,10.47-62.65,8.68-.09,0-.17-.02-.25-.04-1.84-.41-3.09-.14-3.39.18-.1.1-.11.36-.05.69,4.72,5.21,13.23,5.73,21.46,6.24,4.85.3,9.87.6,14.08,1.9,5.51,1.3,11.09,2.94,16.49,4.54,11.18,3.3,22.74,6.71,34.81,7.27.24.01.45.08.66.16,8.13-3.82,16.07-8.17,23.76-13.08,6.44-4.11,12.56-8.53,18.39-13.21-.39-.6-.81-1.3-1.25-2.06-1.16-1.98-3.59-6.1-5.09-6.15Z"/><path class="cls-1" d="m229.18,388.7c1.3-.79,3.86-1.28,8.12-2.06,1.98-.36,4.9-.9,6.77-1.42-6.69-3.98-14.91-5.6-22.88-7.17-6.95-1.37-14.13-2.78-20.14-5.74-.54-.27-.92-.78-1.02-1.38-.1-.6.1-1.2.54-1.63,16.13-15.78,39.84-13.77,60.75-12,4.23.36,8.22.7,12.12.9,8.38.38,25.61-2.53,26.35-5.58,0-.02.17-1.58-6-4.44-3.97-.24-6.7-.36-7-.37-2.3.07-4.91.2-7.38.32-18.41.9-30.64,1.1-32.78-4.13-1.42-3.46,2.54-6.94,3.84-8.09,2.47-2.48,5.18-5,7.81-7.43,7.53-7,15.32-14.23,20.29-23.29.06-.1.12-.2.2-.29.61-.74,1.36-1.57,2.17-2.45,0,0,0,0,0,0,0,0,0,0,0,0,.55-.59,1.12-1.2,1.71-1.83,4.29-4.57,10.15-10.8,10.44-14.87-.2-1.09-1.31-1.83-3.09-2.88-1.47-.87-2.98-1.78-3.91-3.27-.06-.1-.11-.21-.16-.32-1.85-4.85,3.65-8.82,8.51-12.33,2.12-1.53,4.66-3.37,5.71-4.78-.82-.23-2.44-.13-3.51-.06-2.52.16-5.14.33-6.62-1.51-.94-1.17-1.09-2.78-.47-4.91.47-1.99,2.81-3.16,5.28-4.39.7-.35,1.71-.85,2.41-1.3-6.47-1.34-9.1-2.76-9.55-5.03-.51-2.59,2.21-4.34,5.09-6.18,1.78-1.14,4.36-2.79,4.48-3.86-1.42-.79-1.79-1.84-1.83-2.64-.16-2.83,3.71-5.05,9.2-7.87,1.05-.54,2.35-1.21,2.65-1.45.12-.1.26-.18.4-.25,6.04-2.74,12.69-3.98,19.12-5.18,4.83-.9,9.4-1.78,13.74-3.21,26.43-10.51,63.2-14.86,90.95-14.7-25.03-2.04-55.28-1.36-86.36,6.61-.13.09-.24.18-.4.24-.85.3-2.85.8-6.01,1.5-9.58,2.76-19.21,6.24-28.75,10.58-2.85,1.55-6.66,3.22-10.68,4.98-13.59,5.95-30.5,13.36-31.23,24.98-.01.15-.04.3-.08.44.3.81,3.45,1.66,5.14,2.11,3.6.96,7.31,1.96,8.4,4.74,6.79,13.63-2.6,22.73-13.47,33.27-8.38,8.12-17.87,17.32-23.08,30.78-.09.22-.21.42-.37.59-16.77,18.14-40.01,27.79-62.5,37.12-12.37,5.14-25.15,10.45-36.56,17.09,13.73,11.37,28.9,20.9,45.2,28.37,2.68-4,12.52-6.93,26.07-10.58,5.05-1.36,9.82-2.65,12.37-3.72Z"/><path class="cls-5" d="m414.83,352.62c-12.4-1.65-15.65-8.3-18.79-14.73-3.07-6.26-6.23-12.74-18.64-15.86h-.2c-21.76,0-26.71-6.14-34.88-16.26-2.63-3.26-5.61-6.95-9.65-11.01-1.7-1.01-3.51-1.88-5.43-2.8-5.44-2.62-11.06-5.33-14.09-11.26-1.16-1.62-1.6-3.39-1.3-5.27.85-5.34,7.55-10.08,12.93-13.89,1.62-1.15,3.02-2.14,3.98-2.95,2.69-2,6.82-3.82,10.81-5.57,1.99-.88,4.48-1.97,6.07-2.84-1.46-.21-4.05-.42-8.63-.45-2.53-.07-5.36.12-8.36.32-7.06.48-15.07,1.01-21.01-1.84-.73-.35-1.15-1.13-1.04-1.93,1.19-8.76,6.93-16.62,17.05-23.35.73-.49,1.51-.95,2.28-1.42-5.63,1.06-11.37,2.24-16.47,4.52-.59.41-1.51.89-3.07,1.7-1.61.83-5.55,2.86-6.84,4.12.36.15.66.41.87.74,2.55,4.12-2.33,7.25-5.56,9.32-1.04.67-2.67,1.71-3.26,2.37.58.41,2.43,1.32,8.08,2.38.39.07.75.27,1.02.56,1.06,1.13,1.13,2.22,1,2.94-.37,2.09-2.69,3.25-5.15,4.47-1.07.54-3.07,1.53-3.36,2.08-.35,1.2-.2,1.57-.19,1.58.38.29,2.37.17,3.43.1,2.76-.18,6.54-.41,7.75,2.8.14.37.16.78.05,1.16-.76,2.71-3.91,4.99-7.56,7.63-3.49,2.52-7.81,5.65-7.26,7.83.49.65,1.49,1.24,2.53,1.87,2.03,1.21,4.56,2.72,4.91,5.8.01.09.01.19.01.28-.21,5.45-6.45,12.09-11.46,17.43-.19.2-.37.39-.55.59.09.12.19.23.25.37.83,2.08.12,4.5-.56,6.83-.44,1.52-.93,3.2-.78,4.28,2.78-.08,5.66-.31,8.46-.53,11.23-.88,22.85-1.79,32.93,5.59l3.44,1.22c17.79,6.3,31.84,11.27,40.12,31.51.03.08.06.17.08.25,2.71,10.82,13.09,10.85,24.1,10.8,2.96,0,5.74,0,8.38.22,3.48.11,6.05,4.48,8.11,7.99.32.54.64,1.09.94,1.57,6.37-5.31,12.34-10.95,17.92-16.88-1.52-.51-2.97-1.05-4.34-1.6-2.89-1.15-5.61-2.23-9.06-2.75Z"/><path class="cls-6" d="m483.26,206.53c-1.8.13-3.37.25-4.73.35-3.98.31-6.36.48-8.45.36-1.01.43-3.03.41-8.76-1.08-10.68-2.78-30.41-3.69-52.2-2.13-.17.16-.36.29-.58.39-9.88,4.01-18.89,8.13-20.43,14.37-1.03,4.17,1.17,9.41,6.72,16.02,1.72,1.01,4.64,1.71,7.73,2.46,5.76,1.39,11.72,2.82,13.87,7.02,1.05,2.06,1.01,4.49-.12,7.24-.06.15-.14.29-.24.42l-1.67,2.17c-3.84,5-6.38,8.3-5.95,10.9.39,2.32,3.13,5.03,9.16,9.04,1.19.78,2.3,1.59,3.38,2.37,3.13,2.26,5.83,4.22,9.62,5.04.87.18,1.85.19,2.9.2,2.35.03,5,.06,7.27,2.11,4.02,1.95,7.57,4.58,11.01,7.14,4.7,3.49,9.18,6.79,14.65,8.38,3.07-6.96,5.73-14.07,8.01-21.3,5.91-19.22,9.09-39.65,9.09-60.82,0-3.57-.09-7.12-.27-10.64Z"/><path class="cls-2" d="m409.76,318.15c-2.42-2.01-4.8-4.03-7.17-6.04-12.75-10.82-24.8-21.03-40.07-27.25-.12-.05-.24-.11-.35-.19-6.16-4.18-9.35-7.9-10.02-11.69-.77-4.29,1.7-7.74,4.32-11.39,3.29-4.58,6.68-9.33,4.66-16.68-1.78-3.25-7.87-4.45-13.77-5.61-6.96-1.37-13.54-2.66-15.14-7.59-.96-2.96.23-6.66,3.67-11.36-3.69,1.74-7.1,3.62-10.16,5.66-8.62,5.74-13.72,12.25-15.18,19.36,4.93,1.8,11.48,1.36,17.84.94,3.09-.21,6-.4,8.67-.33,11.04.07,13.21,1.09,13.65,3.21.57,2.73-3.06,4.32-9.64,7.22-3.63,1.6-7.73,3.41-9.99,5.07-.98.84-2.45,1.88-4.14,3.08-4.3,3.04-10.79,7.64-11.4,11.43-.15.93.08,1.76.71,2.6.07.09.12.18.17.28,2.44,4.9,7.3,7.23,12.44,9.71,1.98.95,4.02,1.94,5.93,3.08.13.08.25.17.36.28,4.27,4.27,7.36,8.1,10.08,11.47,7.72,9.57,12,14.87,31.95,14.87.14,0,.29-.04.43,0,.15,0,.3.02.45.05,14.3,3.51,18.04,11.16,21.34,17.9,3.08,6.3,5.52,11.28,15.95,12.67,3.91.59,6.97,1.8,9.93,2.98,1.77.7,3.59,1.43,5.59,2.01.04.01.07.04.11.06,4.57-5.05,8.85-10.29,12.85-15.71-4.96-3.85-10.67-6.7-16.2-9.45-6.08-3.02-12.37-6.14-17.88-10.66Z"/><path class="cls-3" d="m438.89,287.02c-.19-.09-.36-.21-.51-.35-1.18-1.16-2.64-1.24-4.92-1.26-1.17-.01-2.38-.03-3.63-.28-4.58-1-7.72-3.27-11.05-5.68-1.04-.75-2.1-1.52-3.25-2.28-7.18-4.78-10.2-8.01-10.79-11.54-.7-4.2,2.23-8.01,6.67-13.78l1.5-1.96c.63-1.61.68-2.89.16-3.9-1.37-2.67-6.7-3.95-11.41-5.09-3.54-.85-6.89-1.66-9.11-3.09-.15-.1-.29-.22-.41-.36-6.52-7.7-9.04-14.09-7.68-19.55,1.38-5.57,6.65-9.49,13.4-12.85-18.94,2.05-38.49,5.96-54.4,12.09-7.39,7.89-8.27,11.66-7.69,13.44.92,2.84,6.7,3.98,12.3,5.08,6.87,1.35,13.98,2.75,16.48,7.75.05.1.09.21.12.32,2.62,9.18-1.69,15.2-5.16,20.04-2.33,3.25-4.17,5.82-3.68,8.56.48,2.68,3.19,5.67,8.28,9.15,15.74,6.45,27.96,16.81,40.89,27.79,2.36,2,4.73,4.01,7.13,6.01,5.17,4.24,11.26,7.27,17.16,10.19,5.66,2.81,11.5,5.72,16.72,9.75,7.31-10.29,13.61-21.17,18.85-32.48-5.9-1.83-10.69-5.39-15.34-8.84-3.53-2.62-6.86-5.09-10.65-6.89Z"/><path class="cls-3" d="m552.63,123.35c-1.44-1.99-3.51-5.43-3.99-6.3.08,1.44.08,4.47.08,7.1v38.22h-4.47v-58.4h.24l27.21,40.13c1.36,2.07,3.43,5.51,3.91,6.46-.08-1.52-.08-4.79-.08-7.42v-38.22h4.55v58.41h-.32l-27.13-39.97Z"/><path class="cls-3" d="m592.05,124.55c1.76-1.2,5.98-3.03,11.09-3.03,8.86,0,13.08,5.19,13.08,15.16v25.69h-4.23v-5.43c0-2.07.24-3.51.24-3.51h-.16c-.16.32-3.99,9.89-12.05,9.89-5.9,0-10.05-4.47-10.05-10.93,0-10.05,8.38-15,21.86-12.53v-3.03c0-8.38-3.67-11.25-9.18-11.25-4.63,0-8.86,2.07-10.61,3.35v-4.39Zm19.71,18.91c-11.25-2.31-17.31,1.52-17.31,8.7,0,4.23,2.39,7.18,6.22,7.18,6.3,0,11.09-8.3,11.09-15.88Z"/><path class="cls-3" d="m629.95,122.47v-11.97h4.31v11.97h10.29v3.75h-10.29v24.26c0,6.54,2.23,8.86,5.19,8.86,1.99,0,4.39-.64,6.3-1.92v3.99c-1.52,1.04-3.99,1.92-7.02,1.92-4.39,0-8.78-2.87-8.78-11.97v-25.13h-5.75v-3.75h5.75Z"/><path class="cls-3" d="m651.97,122.47h4.39v23.94c0,6.62.72,12.69,7.1,12.69,7.1,0,11.89-8.06,11.89-17.07v-19.55h4.39v39.89h-4.23v-6.06c0-1.76.24-3.19.24-3.19h-.16c-1.2,3.51-5.51,10.21-12.69,10.21-7.98,0-10.93-5.51-10.93-15.64v-25.21Z"/><path class="cls-3" d="m692.19,122.47h4.23c0,1.99.08,3.99.08,5.98.08,1.68-.16,3.11-.16,3.19h.08c1.76-5.67,5.27-10.13,10.13-10.13.96,0,1.83.24,1.99.24v4.31c-.16,0-.8-.16-1.6-.16-6.94,0-10.29,10.69-10.29,18.75v17.71h-4.47v-39.89Z"/><path class="cls-3" d="m744.05,140.19c0,.88-.08,1.76-.08,2.39h-25.37v.56c.08,9.57,5.03,16.12,12.29,16.12,4.23,0,9.1-1.76,11.97-4.23v4.47c-2.87,2.23-7.66,3.83-12.13,3.83-10.05,0-16.76-8.46-16.76-20.9s6.54-20.9,15.64-20.9,14.44,7.9,14.44,18.67Zm-14.52-14.6c-5.82,0-10.05,5.74-10.85,13.56h20.9c0-7.82-3.99-13.56-10.05-13.56Z"/><path class="cls-3" d="m750.6,137.79h18.67v3.99h-18.67v-3.99Z"/><path class="cls-3" d="m812.91,146.65c0,9.81-6.14,15.72-14.52,15.72h-16.12v-57.45h14.28c8.78,0,14.36,6.3,14.36,15.32,0,5.59-2.23,9.97-5.82,11.97,4.15,1.84,7.82,6.94,7.82,14.44Zm-12.21-15.8c3.11-.96,5.51-4.55,5.51-10.37,0-7.42-3.59-11.73-9.65-11.73h-9.89v22.1h14.04Zm-14.04,27.69h11.41c5.98,0,10.13-4.63,10.13-12.21,0-6.94-3.67-11.81-8.62-11.81h-12.93v24.02Z"/><path class="cls-3" d="m821.21,124.55c1.76-1.2,5.98-3.03,11.09-3.03,8.86,0,13.08,5.19,13.08,15.16v25.69h-4.23v-5.43c0-2.07.24-3.51.24-3.51h-.16c-.16.32-3.99,9.89-12.05,9.89-5.9,0-10.05-4.47-10.05-10.93,0-10.05,8.38-15,21.86-12.53v-3.03c0-8.38-3.67-11.25-9.18-11.25-4.63,0-8.86,2.07-10.61,3.35v-4.39Zm19.71,18.91c-11.25-2.31-17.31,1.52-17.31,8.7,0,4.23,2.39,7.18,6.22,7.18,6.3,0,11.09-8.3,11.09-15.88Z"/><path class="cls-3" d="m864.06,144.26c-5.67-2.15-9.97-5.59-9.97-12.05s4.79-10.69,11.33-10.69c3.27,0,6.62.96,9.1,2.39v4.31c-2.55-1.6-5.82-2.71-8.62-2.71-4.55,0-7.5,2.47-7.5,6.7s2.47,6.14,7.5,8.22c7.02,2.71,10.45,5.9,10.45,12.21,0,7.26-4.95,10.69-11.49,10.69-4.55,0-8.22-1.36-10.53-2.63v-4.39c3.27,1.92,6.62,3.03,10.37,3.03s7.42-2,7.42-6.62-2.55-6.3-8.06-8.46Z"/><path class="cls-3" d="m913.13,140.19c0,.88-.08,1.76-.08,2.39h-25.37v.56c.08,9.57,5.03,16.12,12.29,16.12,4.23,0,9.1-1.76,11.97-4.23v4.47c-2.87,2.23-7.66,3.83-12.13,3.83-10.05,0-16.76-8.46-16.76-20.9s6.54-20.9,15.64-20.9,14.44,7.9,14.44,18.67Zm-14.52-14.6c-5.82,0-10.05,5.74-10.85,13.56h20.9c0-7.82-3.99-13.56-10.05-13.56Z"/><path class="cls-3" d="m952.23,162.37h-4.15l-.16-4.79c0-1.76.24-3.11.24-3.11h-.16c-1.92,5.11-6.78,8.86-11.89,8.86-8.78,0-15-8.46-15-20.9s6.22-20.9,15-20.9c5.11,0,9.73,3.59,11.73,8.54h.16s-.16-1.36-.16-3.27v-21.86h4.39v57.45Zm-26.73-19.95c0,9.89,4.47,16.84,11.01,16.84s11.33-6.54,11.33-16.84-4.95-16.83-11.33-16.83-11.01,6.94-11.01,16.83Z"/><path class="cls-3" d="m987.26,108.83v22.66h18.59v3.91h-18.59v26.97h-4.47v-57.45h26.57v3.91h-22.1Z"/><path class="cls-3" d="m1015.9,104.92h4.39v47.31c0,4.79,1.04,7.1,3.99,7.1,1.44,0,2.47-.32,2.71-.4v3.91c-.24,0-1.52.48-3.51.48-4.47,0-7.58-2.87-7.58-10.29v-48.11Z"/><path class="cls-3" d="m1065.37,142.42c0,12.37-6.86,20.9-16.52,20.9s-16.44-8.54-16.44-20.9,6.78-20.9,16.44-20.9,16.52,8.54,16.52,20.9Zm-4.39,0c0-9.89-5.03-16.83-12.13-16.83s-12.05,6.94-12.05,16.83,4.95,16.84,12.05,16.84,12.13-6.86,12.13-16.84Z"/><path class="cls-3" d="m1106.78,142.42c0,12.37-6.86,20.9-16.52,20.9s-16.44-8.54-16.44-20.9,6.78-20.9,16.44-20.9,16.52,8.54,16.52,20.9Zm-4.39,0c0-9.89-5.03-16.83-12.13-16.83s-12.05,6.94-12.05,16.83,4.95,16.84,12.05,16.84,12.13-6.86,12.13-16.84Z"/><path class="cls-3" d="m1146.36,162.37h-4.15l-.16-4.79c0-1.76.24-3.11.24-3.11h-.16c-1.92,5.11-6.78,8.86-11.89,8.86-8.78,0-15-8.46-15-20.9s6.22-20.9,15-20.9c5.11,0,9.73,3.59,11.73,8.54h.16s-.16-1.36-.16-3.27v-21.86h4.39v57.45Zm-26.73-19.95c0,9.89,4.47,16.84,11.01,16.84s11.33-6.54,11.33-16.84-4.95-16.83-11.33-16.83-11.01,6.94-11.01,16.83Z"/><path class="cls-3" d="m556.86,186.99c11.09,0,17.79,6.22,17.79,16.68,0,8.62-5.58,14.6-13.72,16.2l14.36,24.57h-5.19l-13.88-24.18h-7.5v24.18h-4.47v-57.45h12.61Zm-8.14,3.91v25.53h7.1c8.94,0,14.2-4.87,14.2-12.77s-5.03-12.77-13.4-12.77h-7.9Z"/><path class="cls-3" d="m611.04,222.26c0,.88-.08,1.76-.08,2.39h-25.37v.56c.08,9.57,5.03,16.12,12.29,16.12,4.23,0,9.1-1.76,11.97-4.23v4.47c-2.87,2.23-7.66,3.83-12.13,3.83-10.05,0-16.76-8.46-16.76-20.9s6.54-20.9,15.64-20.9,14.44,7.9,14.44,18.67Zm-14.52-14.6c-5.82,0-10.05,5.74-10.85,13.56h20.9c0-7.82-3.99-13.56-10.05-13.56Z"/><path class="cls-3" d="m627.95,226.33c-5.67-2.15-9.97-5.59-9.97-12.05s4.79-10.69,11.33-10.69c3.27,0,6.62.96,9.1,2.39v4.31c-2.55-1.6-5.82-2.71-8.62-2.71-4.55,0-7.5,2.47-7.5,6.7s2.47,6.14,7.5,8.22c7.02,2.71,10.45,5.9,10.45,12.21,0,7.26-4.95,10.69-11.49,10.69-4.55,0-8.22-1.36-10.53-2.63v-4.39c3.27,1.92,6.62,3.03,10.37,3.03s7.42-2,7.42-6.62-2.55-6.3-8.06-8.46Z"/><path class="cls-3" d="m651.97,189.63c1.75,0,3.03,1.36,3.03,3.27s-1.28,3.19-3.03,3.19-3.03-1.36-3.03-3.19,1.2-3.27,3.03-3.27Zm2.23,14.92v39.89h-4.39v-39.89h4.39Z"/><path class="cls-3" d="m667.29,186.99h4.39v47.31c0,4.79,1.04,7.1,3.99,7.1,1.44,0,2.47-.32,2.71-.4v3.91c-.24,0-1.52.48-3.51.48-4.47,0-7.58-2.87-7.58-10.29v-48.11Z"/><path class="cls-3" d="m688.84,189.63c1.75,0,3.03,1.36,3.03,3.27s-1.28,3.19-3.03,3.19-3.03-1.36-3.03-3.19,1.2-3.27,3.03-3.27Zm2.23,14.92v39.89h-4.39v-39.89h4.39Z"/><path class="cls-3" d="m731.36,222.26c0,.88-.08,1.76-.08,2.39h-25.37v.56c.08,9.57,5.03,16.12,12.29,16.12,4.23,0,9.1-1.76,11.97-4.23v4.47c-2.87,2.23-7.66,3.83-12.13,3.83-10.05,0-16.76-8.46-16.76-20.9s6.54-20.9,15.64-20.9,14.44,7.9,14.44,18.67Zm-14.52-14.6c-5.82,0-10.05,5.74-10.85,13.56h20.9c0-7.82-3.99-13.56-10.05-13.56Z"/><path class="cls-3" d="m745.57,204.55l.08,6.06c0,1.76-.24,3.19-.24,3.19h.16c1.2-3.51,5.58-10.21,13.01-10.21,8.22,0,10.93,6.06,10.93,15.64v25.21h-4.39v-23.94c0-6.54-.8-12.69-7.1-12.69-7.02,0-12.21,7.42-12.21,17.07v19.55h-4.39v-39.89h4.15Z"/><path class="cls-3" d="m795.44,241.25c4.63,0,7.9-1.84,10.21-3.67v4.55c-2.23,1.52-5.35,3.27-10.37,3.27-9.97,0-16.68-8.54-16.68-20.9s6.7-20.9,16.68-20.9c4.95,0,7.98,1.76,10.21,3.27v4.55c-2.47-1.84-5.5-3.67-10.05-3.67-7.26,0-12.29,6.86-12.29,16.76s5.03,16.76,12.29,16.76Z"/><path class="cls-3" d="m842.43,222.26c0,.88-.08,1.76-.08,2.39h-25.37v.56c.08,9.57,5.03,16.12,12.29,16.12,4.23,0,9.1-1.76,11.97-4.23v4.47c-2.87,2.23-7.66,3.83-12.13,3.83-10.05,0-16.76-8.46-16.76-20.9s6.54-20.9,15.64-20.9,14.44,7.9,14.44,18.67Zm-14.52-14.6c-5.82,0-10.05,5.74-10.85,13.56h20.9c0-7.82-3.99-13.56-10.05-13.56Z"/><path class="cls-2" d="m543.28,282.31v29.7h-1.96v-35.24l26.12,30.63v-30.39h1.96v35.59l-26.13-30.29Z"/><path class="cls-2" d="m609.4,312.01l-4.02-10.49h-15.93l-4.07,10.49h-1.96l13.97-36.12,14.02,36.12h-2.01Zm-12.01-30.98l-7.16,18.53h14.31l-7.16-18.53Z"/><path class="cls-2" d="m627.93,278.98v33.04h-1.96v-33.04h-7.74v-1.96h17.45v1.96h-7.74Z"/><path class="cls-2" d="m647.93,312.01v-35h1.96v35h-1.96Z"/><path class="cls-2" d="m693.86,307.46c-3.36,3.37-7.69,5.05-12.97,5.05s-9.59-1.67-12.92-5c-3.36-3.37-5.04-7.7-5.04-12.99s1.66-9.61,4.99-12.94c3.36-3.37,7.68-5.05,12.97-5.05s9.58,1.67,12.97,5c3.36,3.37,5.04,7.7,5.04,12.99s-1.68,9.61-5.04,12.94Zm-1.39-24.45c-3.01-3.01-6.87-4.52-11.58-4.52s-8.48,1.51-11.49,4.52c-3.01,3.01-4.52,6.86-4.52,11.54s1.49,8.51,4.47,11.49c3.01,3.01,6.86,4.52,11.54,4.52s8.57-1.47,11.58-4.42c2.98-2.98,4.47-6.84,4.47-11.59s-1.49-8.56-4.47-11.54Z"/><path class="cls-2" d="m715.81,282.31v29.7h-1.96v-35.24l26.12,30.63v-30.39h1.96v35.59l-26.13-30.29Z"/><path class="cls-2" d="m781.94,312.01l-4.02-10.49h-15.93l-4.07,10.49h-1.96l13.97-36.12,14.02,36.12h-2.01Zm-12.01-30.98l-7.16,18.53h14.31l-7.16-18.53Z"/><path class="cls-2" d="m796.25,312.01v-35h1.96v33.04h9.85v1.96h-11.81Z"/><path class="cls-2" d="m874.92,307.18c-3.37,3.55-7.83,5.33-13.38,5.33s-9.61-1.67-12.94-5-5.05-7.7-5.05-12.99,1.68-9.53,5.05-12.89c3.4-3.4,7.71-5.1,12.94-5.1,6.27,0,11.21,2.4,14.8,7.21l-1.62,1.23c-3.14-4.31-7.53-6.47-13.19-6.47-4.61,0-8.43,1.52-11.47,4.57s-4.56,6.87-4.56,11.49,1.5,8.48,4.51,11.49c3.07,3.01,6.91,4.52,11.52,4.52,4.93,0,8.9-1.66,11.91-4.97,2.29-2.49,3.59-5.31,3.92-8.46h-11.57v-1.96h13.77c0,4.76-1.55,8.77-4.66,12.02Z"/><path class="cls-2" d="m910.12,310.1c-1.79,1.5-4.16,2.25-7.09,2.25s-5.2-.77-7.09-2.3c-1.99-1.67-2.98-3.92-2.98-6.76v-26.27h1.96v26.31c0,2.26.82,4.03,2.45,5.3,1.5,1.18,3.4,1.77,5.69,1.77s4.15-.6,5.69-1.82c1.67-1.31,2.5-3.06,2.5-5.25v-26.31h1.96v26.27c0,2.84-1.03,5.11-3.08,6.81Z"/><path class="cls-2" d="m926.83,312.01v-35h1.96v35h-1.96Z"/><path class="cls-2" d="m965.56,306.72c-2.94,3.53-6.77,5.29-11.5,5.29h-11.64v-35h11.64c4.7,0,8.51,1.76,11.45,5.29,2.77,3.3,4.16,7.35,4.16,12.16s-1.37,8.92-4.11,12.25Zm-1.43-23.03c-2.55-3.14-5.9-4.71-10.05-4.71h-9.71v31.08h9.71c3.59,0,6.72-1.34,9.36-4.03,2.84-2.88,4.26-6.73,4.26-11.54,0-4.29-1.19-7.89-3.58-10.8Z"/><path class="cls-2" d="m982.8,312.01v-35h16.76v1.96h-14.8v12.79h14.8v2.16h-14.8v16.13h14.8v1.96h-16.76Z"/><path class="cls-2" d="m1013.1,312.01v-35h1.96v33.04h9.85v1.96h-11.81Z"/><path class="cls-2" d="m1038.88,312.01v-35h1.96v35h-1.96Z"/><path class="cls-2" d="m1056.42,282.31v29.7h-1.96v-35.24l26.12,30.63v-30.39h1.96v35.59l-26.13-30.29Z"/><path class="cls-2" d="m1096.23,312.01v-35h16.76v1.96h-14.8v12.79h14.8v2.16h-14.8v16.13h14.8v1.96h-16.76Z"/><path class="cls-2" d="m1137.84,311.72c-1.27.46-2.78.69-4.51.69-5.36,0-8.81-2.52-10.34-7.55l2.01-.69c1.14,4.18,3.92,6.27,8.33,6.27,2.52,0,4.49-.62,5.93-1.87,1.47-1.28,2.21-3.14,2.21-5.6,0-2.32-.87-4.25-2.6-5.79-.46-.43-1.16-.9-2.11-1.42-.95-.52-2.16-1.11-3.63-1.77-2.78-1.24-4.67-2.32-5.69-3.24-1.7-1.47-2.55-3.42-2.55-5.84s.85-4.37,2.55-5.84c1.7-1.5,3.79-2.26,6.27-2.26,4.12,0,7.03,1.54,8.72,4.61l-1.91.83c-.65-1.08-1.44-1.88-2.35-2.4-1.14-.72-2.63-1.08-4.46-1.08-1.93,0-3.53.54-4.8,1.62-1.37,1.14-2.06,2.65-2.06,4.51,0,1.67.72,3.12,2.16,4.36.82.65,2.45,1.54,4.9,2.65,1.54.69,2.86,1.36,3.97,2.03,1.11.67,2.01,1.35,2.7,2.03,1.89,1.86,2.84,4.18,2.84,6.96,0,4.44-1.86,7.37-5.59,8.77Z"/></svg>