<svg xmlns="http://www.w3.org/2000/svg" width="60" height="60" viewBox="0 0 60 60">
  <path id="Path_285" data-name="Path 285" d="M19.667,3A16.668,16.668,0,0,0,3,19.667V46.333A16.668,16.668,0,0,0,19.667,63H46.333A16.668,16.668,0,0,0,63,46.333V19.667A16.668,16.668,0,0,0,46.333,3ZM53,9.667A3.333,3.333,0,1,1,49.667,13,3.335,3.335,0,0,1,53,9.667ZM33,16.333A16.667,16.667,0,1,1,16.333,33,16.668,16.668,0,0,1,33,16.333ZM33,23A10,10,0,1,0,43,33,10,10,0,0,0,33,23Z" transform="translate(-3 -3)" fill="#a5d6b1"/>
</svg>
