<svg xmlns="http://www.w3.org/2000/svg" viewBox="0 0 411.01 411"><defs><style>.cls-1{fill:#a5d6b1;}.cls-2{fill:#2e6b7c;}.cls-3{fill:#3b8da5;}.cls-4{fill:#b09779;}.cls-5{fill:#4e3f36;}.cls-6{fill:#5ab87c;}</style></defs><g id="Layer_2" data-name="Layer 2"><g id="Layer_1-2" data-name="Layer 1"><path class="cls-1" d="M285.91,394.54c-10.32-1.21-20.17-4.09-29.73-6.91-5.35-1.58-10.88-3.21-16.41-4.52-3.9-1.19-8.48-1.47-13.33-1.77-9.19-.56-18.68-1.15-24.38-7.88a1.75,1.75,0,0,1-.36-.67,4.51,4.51,0,0,1,.82-4.66c1.92-2.05,5.32-1.61,6.82-1.3,20.33,1.72,41.1-3.51,61.19-8.56l.22-.06c9.66-2.09,9.89-4.18,9.89-4.2.13-2.27-7.73-6.11-23.37-11.41-1.77-.6-3.32-1.13-4.51-1.56-5.21-1.58-15.15-2.66-23.64-3.34,1.4,1.37,2.2,2.95,1.77,4.76-1.83,7.6-26.85,8.57-30.17,8.44-4-.21-8-.54-12.26-.91-20.14-1.71-40.93-3.47-55.74,9.07,5,2,10.69,3.12,16.66,4.3,9,1.77,18.33,3.61,25.85,8.76a2.61,2.61,0,0,1,1.35,2.78c-.46,2.23-3.42,3-11.15,4.39-2.43.45-6.11,1.12-6.84,1.57a2.11,2.11,0,0,1-.33.18,118.08,118.08,0,0,1-13,4c-8.31,2.24-20.61,5.56-23.55,8.55a209.82,209.82,0,0,0,39.17,12.64,205.9,205.9,0,0,0,125-11.66Z"/><path class="cls-1" d="M169.08,307.14c5.53-14,15.25-23.45,23.83-31.77,10.65-10.32,18.34-17.78,12.69-29l-.09-.21c-.37-1-3.82-1.95-5.89-2.5-3.25-.87-6.32-1.69-7.49-3.82a3.75,3.75,0,0,1-.32-2.78c1-13.76,19-21.62,33.45-27.95,2.08-.91,4.09-1.79,5.94-2.65-17.74,5.2-35.52,10.89-51.81,16.61a38.46,38.46,0,0,1-6.23,2.62c-3.1,1.14-9.29,3.43-10.81,4.91l.17.09a1.34,1.34,0,0,1,.28.18c1.94,1.5,4.69,1.62,7.61,1.74,3.2.13,6.51.28,9.11,2.31a2,2,0,0,1,.39.42,4,4,0,0,1,.52,4c-1.78,4.12-11,5.8-25.85,8.21-10,1.63-22.52,3.65-24.72,6.55-1.73,2.1-2.43,3.74-2,4.68,1.26,2.82,11.32,3.27,17.34,3.54,4.33.19,8.06.36,10.19,1.09l.2.08,1.22.57c5.11,2.36,13.66,6.31,14.25,11.71.25,2.29-.89,4.41-3.38,6.3-12.44,10.05-28,13.88-43,17.58-5.19,1.28-10.55,2.59-15.62,4.14-7.77,2.7-15.58,6.56-23.14,10.29-5.76,2.85-11.72,5.79-17.65,8.21l-.09.1a7.7,7.7,0,0,0,.62,1.77,7.55,7.55,0,0,1,.91,4.09,1.88,1.88,0,0,1-.89,1.33L49.87,340.78a205.38,205.38,0,0,0,15.85,16.47c1.42,1.29,2.84,2.58,4.3,3.83a.81.81,0,0,1,.14-.12c11.88-7,25.16-12.55,38-17.87,22-9.13,44.75-18.57,60.94-35.94Z"/><path class="cls-2" d="M24.65,297.21c7-2.68,14.47-4.79,22.43-7,16.31-4.58,33.17-9.31,44.37-19.25C86.56,266,71.08,268,61.59,269.21c-8.13,1.05-11.18,1.44-12-1-.67-2.08.34-3.54,13.76-10.72,10.09-5.84,21.26-9.61,32.07-13.24,8.19-2.76,16.67-5.61,24.52-9.35a25,25,0,0,1,4.33-1.65c1.85-.6,5.55-1.79,6.48-2.72a5.08,5.08,0,0,0-1.22-.87c-.77-.28-4.64-.2-7.46-.13-9.47.21-13.74,0-14.85-2.58-.37-.86-.45-2.24,1.25-3.89a1.85,1.85,0,0,1,1-.5q22.6-4.11,42-7.65c-1.39-.25-2.79-.56-4.18-.95-24.33-6.92-79.55,12.61-85.5,16.87l0,0c.6.7,3.24.85,5,1,2.92.17,5.68.33,6.83,2.33a4,4,0,0,1-.22,4,1.78,1.78,0,0,1-.73.76c-9.11,5.29-19.41,7-29.37,8.64-13.42,2.22-26.09,4.32-35.59,14.63a205.49,205.49,0,0,0,14,36.2l2.78-1.11.19-.07Z"/><path class="cls-3" d="M70.2,236a17.44,17.44,0,0,0-3.65-.44c-2.94-.17-6-.35-7.61-2.25A4.22,4.22,0,0,1,58,230a3.63,3.63,0,0,1,2-2.42c8.92-5.65,63-24.44,88.36-17.21,8.76,2.49,18,1.66,22.8.93,46.82-8.62,77-14.35,91-17.32,3-.79,6-1.56,9-2.29h.12c40.57-10.5,79.7-8.73,108-4.58a.65.65,0,0,1,.19,0l3.23.82c2,.68,3.62,1.24,5,1.73a44,44,0,0,0,18,2.42l4.78-.36A206.24,206.24,0,0,0,300.37,23.25c-1.06-.55-2.11-1.1-3.18-1.63l-.59-.29A209,209,0,0,0,205,0c-.93,0-1.85,0-2.78,0s-1.67,0-2.5,0C88.91,3.13,0,94.23,0,206.16A206.84,206.84,0,0,0,6.57,258c10.17-9.82,23.33-12.05,36.1-14.15,9.42-1.55,19.15-3.16,27.54-7.86Z"/><path class="cls-4" d="M65.29,325.57c-.69-1.59-2.12-4.9,1.31-6.72,6-2.45,11.87-5.36,17.57-8.18,7.66-3.79,15.59-7.7,23.64-10.5,5.24-1.6,10.65-2.93,15.89-4.22,14.65-3.6,29.8-7.33,41.64-16.89,1.42-1.08,2.07-2.06,2-3-.36-3.31-8.59-7.11-12.1-8.73l-1.14-.53c-1.66-.53-5.25-.69-9.06-.86-9-.4-18.38-.82-20.59-5.75-1.07-2.39-.26-5.18,2.49-8.51,2.85-3.75,12.13-5.5,27.06-7.92,7.86-1.28,22.5-3.65,23-6a.32.32,0,0,0-.05-.13c-1.65-1.12-4.1-1.22-6.69-1.33-3.17-.13-6.76-.28-9.62-2.43-2-1.08-2.32-2.43-2.26-3.38.2-3.21,5.23-5.3,13.49-8.35a41.56,41.56,0,0,0,5.52-2.27,1.75,1.75,0,0,1,.52-.28c12.91-4.54,26.76-9.05,40.8-13.33q-18.45,3.48-43.49,8.09c-.28.07-1.69.39-3.91.72q-25.74,4.74-58.34,10.66c2.61.22,6.57.14,9.05.08,5.85-.13,8.19-.11,9.45.65.82.46,3.43,2,3.17,4.42-.32,3.07-4.82,4.52-9.17,5.93a24.77,24.77,0,0,0-3.61,1.33,1.4,1.4,0,0,1-.17.09c-8.08,3.85-16.69,6.75-25,9.55-10.63,3.58-21.62,7.28-31.44,13-4.76,2.55-7.67,4.24-9.45,5.37,1.59-.16,3.53-.41,5.34-.64,11.83-1.53,29.7-3.84,34.49,4.75a1.87,1.87,0,0,1-.34,2.25c-11.86,11.35-29.81,16.39-47.16,21.26-8,2.25-15.55,4.37-22.43,7.05l-.13.05-2.15.86a206.83,206.83,0,0,0,24,36.15l18.4-11a13.29,13.29,0,0,0-.53-1.34Z"/><path class="cls-3" d="M328.51,357c-2.58-.22-5.28-.2-8.16-.21-10.78.1-24.23,0-27.71-13.49C285,324.7,272.31,320.21,254.78,314l-3.71-1.32a1.77,1.77,0,0,1-.49-.26c-9-6.72-19.5-5.89-30.61-5-3.27.26-6.65.52-9.92.57a2.15,2.15,0,0,1-1.5-.72c-1.89-2.4-1-5.57-.15-8.37.23-.8.47-1.64.63-2.4-5.26,9.33-13.11,16.63-20.71,23.7-2.6,2.41-5.28,4.9-7.79,7.42-3.31,2.92-2.94,4-2.94,4,1.3,3.17,20.79,2.22,29.12,1.81s13.23-.6,15.4.09c9.31.58,24.56,1.83,31.87,4,1.26.46,2.78,1,4.52,1.56,14.37,4.87,26.23,9.37,25.9,15.16-.19,3.4-4.15,5.75-12.83,7.63-20.53,5.17-41.65,10.47-62.65,8.68a1,1,0,0,1-.25,0c-1.84-.41-3.09-.14-3.39.18-.1.1-.11.36-.05.69,4.72,5.21,13.23,5.73,21.46,6.24,4.85.3,9.87.6,14.08,1.9,5.51,1.3,11.09,2.94,16.49,4.54,11.18,3.3,22.74,6.71,34.81,7.27a2.06,2.06,0,0,1,.66.16,208,208,0,0,0,42.15-26.29c-.39-.6-.81-1.3-1.25-2.06-1.16-2-3.59-6.1-5.09-6.15Z"/><path class="cls-3" d="M156.65,377.68c1.3-.79,3.86-1.28,8.12-2.06,2-.36,4.9-.9,6.77-1.42-6.69-4-14.91-5.6-22.88-7.17-6.95-1.37-14.13-2.78-20.14-5.74a1.89,1.89,0,0,1-1-1.38,1.84,1.84,0,0,1,.54-1.63c16.13-15.78,39.84-13.77,60.75-12,4.23.36,8.22.7,12.12.9,8.38.38,25.61-2.53,26.35-5.58,0,0,.17-1.58-6-4.44-4-.24-6.7-.36-7-.37-2.3.07-4.91.2-7.38.32-18.41.9-30.64,1.1-32.78-4.13-1.42-3.46,2.54-6.94,3.84-8.09,2.47-2.48,5.18-5,7.81-7.43,7.53-7,15.32-14.23,20.29-23.29a1.87,1.87,0,0,1,.2-.29c.61-.74,1.36-1.57,2.17-2.45h0l1.71-1.83c4.29-4.57,10.15-10.8,10.44-14.87-.2-1.09-1.31-1.83-3.09-2.88a10.69,10.69,0,0,1-3.91-3.27,3.18,3.18,0,0,1-.16-.32c-1.85-4.85,3.65-8.82,8.51-12.33,2.12-1.53,4.66-3.37,5.71-4.78a13.52,13.52,0,0,0-3.51-.06c-2.52.16-5.14.33-6.62-1.51-.94-1.17-1.09-2.78-.47-4.91.47-2,2.81-3.16,5.28-4.39.7-.35,1.71-.85,2.41-1.3-6.47-1.34-9.1-2.76-9.55-5-.51-2.59,2.21-4.34,5.09-6.18,1.78-1.14,4.36-2.79,4.48-3.86a3.15,3.15,0,0,1-1.83-2.64c-.16-2.83,3.71-5.05,9.2-7.87a30.19,30.19,0,0,0,2.65-1.45,2.06,2.06,0,0,1,.4-.25c6-2.74,12.69-4,19.12-5.18A105.83,105.83,0,0,0,268,203.31c26.43-10.51,63.2-14.86,90.95-14.7-25-2-55.28-1.36-86.36,6.61a1.77,1.77,0,0,1-.4.24q-1.27.45-6,1.5a209.28,209.28,0,0,0-28.75,10.58c-2.85,1.55-6.66,3.22-10.68,5-13.59,5.95-30.5,13.36-31.23,25a2.14,2.14,0,0,1-.08.44c.3.81,3.45,1.66,5.14,2.11,3.6,1,7.31,2,8.4,4.74,6.79,13.63-2.6,22.73-13.47,33.27-8.38,8.12-17.87,17.32-23.08,30.78a1.9,1.9,0,0,1-.37.59c-16.77,18.14-40,27.79-62.5,37.12C97.2,351.69,84.42,357,73,363.64A204.17,204.17,0,0,0,118.21,392c2.68-4,12.52-6.93,26.07-10.58a123.25,123.25,0,0,0,12.37-3.72Z"/><path class="cls-1" d="M342.3,341.6c-12.4-1.65-15.65-8.3-18.79-14.73-3.07-6.26-6.23-12.74-18.64-15.86h-.2c-21.76,0-26.71-6.14-34.88-16.26a133.31,133.31,0,0,0-9.65-11c-1.7-1-3.51-1.88-5.43-2.8-5.44-2.62-11.06-5.33-14.09-11.26a6.91,6.91,0,0,1-1.3-5.27c.85-5.34,7.55-10.08,12.93-13.89,1.62-1.15,3-2.14,4-3,2.69-2,6.82-3.82,10.81-5.57,2-.88,4.48-2,6.07-2.84a67.53,67.53,0,0,0-8.63-.45c-2.53-.07-5.36.12-8.36.32-7.06.48-15.07,1-21-1.84a1.86,1.86,0,0,1-1-1.93c1.19-8.76,6.93-16.62,17.05-23.35.73-.49,1.51-.95,2.28-1.42-5.63,1.06-11.37,2.24-16.47,4.52a32.54,32.54,0,0,1-3.07,1.7c-1.61.83-5.55,2.86-6.84,4.12a1.9,1.9,0,0,1,.87.74c2.55,4.12-2.33,7.25-5.56,9.32a21.06,21.06,0,0,0-3.26,2.37c.58.41,2.43,1.32,8.08,2.38a1.85,1.85,0,0,1,1,.56,3.32,3.32,0,0,1,1,2.94c-.37,2.09-2.69,3.25-5.15,4.47-1.07.54-3.07,1.53-3.36,2.08-.35,1.2-.2,1.57-.19,1.58.38.29,2.37.17,3.43.1,2.76-.18,6.54-.41,7.75,2.8a1.84,1.84,0,0,1,0,1.16c-.76,2.71-3.91,5-7.56,7.63-3.49,2.52-7.81,5.65-7.26,7.83a9.58,9.58,0,0,0,2.53,1.87c2,1.21,4.56,2.72,4.91,5.8a2.62,2.62,0,0,1,0,.28c-.21,5.45-6.45,12.09-11.46,17.43l-.55.59a1.85,1.85,0,0,1,.25.37c.83,2.08.12,4.5-.56,6.83a12.57,12.57,0,0,0-.78,4.28c2.78-.08,5.66-.31,8.46-.53,11.23-.88,22.85-1.79,32.93,5.59l3.44,1.22c17.79,6.3,31.84,11.27,40.12,31.51a2.41,2.41,0,0,1,.08.25c2.71,10.82,13.09,10.85,24.1,10.8,3,0,5.74,0,8.38.22,3.48.11,6.05,4.48,8.11,8,.32.54.64,1.09.94,1.57A203.63,203.63,0,0,0,355.71,346c-1.52-.51-3-1.05-4.34-1.6a39.15,39.15,0,0,0-9.06-2.75Z"/><path class="cls-5" d="M410.73,195.51l-4.73.35a66.41,66.41,0,0,1-8.45.36c-1,.43-3,.41-8.76-1.08-10.68-2.78-30.41-3.69-52.2-2.13a2.11,2.11,0,0,1-.58.39c-9.88,4-18.89,8.13-20.43,14.37-1,4.17,1.17,9.41,6.72,16,1.72,1,4.64,1.71,7.73,2.46,5.76,1.39,11.72,2.82,13.87,7,1.05,2.06,1,4.49-.12,7.24a1.76,1.76,0,0,1-.24.42l-1.67,2.17c-3.84,5-6.38,8.3-5.95,10.9.39,2.32,3.13,5,9.16,9,1.19.78,2.3,1.59,3.38,2.37,3.13,2.26,5.83,4.22,9.62,5a15.48,15.48,0,0,0,2.9.2c2.35,0,5,.06,7.27,2.11a69.53,69.53,0,0,1,11,7.14c4.7,3.49,9.18,6.79,14.65,8.38A199.94,199.94,0,0,0,411,206.16q0-5.35-.27-10.64Z"/><path class="cls-6" d="M337.23,307.13c-2.42-2-4.8-4-7.17-6-12.75-10.82-24.8-21-40.07-27.25a1.7,1.7,0,0,1-.35-.19c-6.16-4.18-9.35-7.9-10-11.69-.77-4.29,1.7-7.74,4.32-11.39,3.29-4.58,6.68-9.33,4.66-16.68-1.78-3.25-7.87-4.45-13.77-5.61-7-1.37-13.54-2.66-15.14-7.59-1-3,.23-6.66,3.67-11.36A79.34,79.34,0,0,0,253.2,215c-8.62,5.74-13.72,12.25-15.18,19.36,4.93,1.8,11.48,1.36,17.84.94,3.09-.21,6-.4,8.67-.33,11,.07,13.21,1.09,13.65,3.21.57,2.73-3.06,4.32-9.64,7.22-3.63,1.6-7.73,3.41-10,5.07-1,.84-2.45,1.88-4.14,3.08-4.3,3-10.79,7.64-11.4,11.43a3.26,3.26,0,0,0,.71,2.6,1.61,1.61,0,0,1,.17.28c2.44,4.9,7.3,7.23,12.44,9.71,2,.95,4,1.94,5.93,3.08a1.93,1.93,0,0,1,.36.28,135.47,135.47,0,0,1,10.08,11.47c7.72,9.57,12,14.87,31.95,14.87a1.55,1.55,0,0,1,.43,0,2.3,2.3,0,0,1,.45.05c14.3,3.51,18,11.16,21.34,17.9,3.08,6.3,5.52,11.28,15.95,12.67a42.78,42.78,0,0,1,9.93,3c1.77.7,3.59,1.43,5.59,2a.6.6,0,0,1,.11.06q6.85-7.57,12.85-15.71c-5-3.85-10.67-6.7-16.2-9.45-6.08-3-12.37-6.14-17.88-10.66Z"/><path class="cls-2" d="M366.36,276a2,2,0,0,1-.51-.35c-1.18-1.16-2.64-1.24-4.92-1.26a19,19,0,0,1-3.63-.28c-4.58-1-7.72-3.27-11.05-5.68-1-.75-2.1-1.52-3.25-2.28-7.18-4.78-10.2-8-10.79-11.54-.7-4.2,2.23-8,6.67-13.78l1.5-2a4.66,4.66,0,0,0,.16-3.9c-1.37-2.67-6.7-3.95-11.41-5.09-3.54-.85-6.89-1.66-9.11-3.09a2,2,0,0,1-.41-.36c-6.52-7.7-9-14.09-7.68-19.55s6.65-9.49,13.4-12.85c-18.94,2.05-38.49,6-54.4,12.09-7.39,7.89-8.27,11.66-7.69,13.44.92,2.84,6.7,4,12.3,5.08,6.87,1.35,14,2.75,16.48,7.75a1.75,1.75,0,0,1,.12.32c2.62,9.18-1.69,15.2-5.16,20-2.33,3.25-4.17,5.82-3.68,8.56s3.19,5.67,8.28,9.15c15.74,6.45,28,16.81,40.89,27.79q3.54,3,7.13,6c5.17,4.24,11.26,7.27,17.16,10.19,5.66,2.81,11.5,5.72,16.72,9.75a204.61,204.61,0,0,0,18.85-32.48c-5.9-1.83-10.69-5.39-15.34-8.84A64.78,64.78,0,0,0,366.34,276Z"/></g></g></svg>