<svg xmlns="http://www.w3.org/2000/svg" width="74.995" height="60" viewBox="0 0 74.995 60">
  <path id="Path_286" data-name="Path 286" d="M77,4A49.34,49.34,0,0,1,64.752,8.784c-.1.026-.184.06-.281.086a16.866,16.866,0,0,0-28.723,12c0,.491-.041,1.395,0,1.875-12.573,0-22.142-6.585-29-15a22.833,22.833,0,0,0-1.072,7.62c0,5.253,4.106,10.413,10.5,13.612a15.369,15.369,0,0,1-3.825.521,10.071,10.071,0,0,1-6.6-2.314v.191c0,7.342,7.792,12.34,14.722,13.732-1.406.829-4.241.911-5.625.911-.975,0-4.425-.446-5.347-.619,1.927,6.018,8.879,9.4,15.505,9.521C19.823,54.988,16.227,56.5,5.615,56.5H2c6.7,4.3,15.243,7.5,23.8,7.5,27.861,0,43.7-21.235,43.7-41.251,0-.322-.007-1-.019-1.676,0-.067.019-.131.019-.2,0-.1-.03-.2-.03-.3-.011-.51-.022-.986-.034-1.234A30.812,30.812,0,0,0,77,11.5a30.26,30.26,0,0,1-8.7,2.385C71.423,12.009,75.867,7.539,77,4Z" transform="translate(-2 -3.999)" fill="#a5d6b1"/>
</svg>
