<?xml version="1.0" encoding="UTF-8"?><svg id="Layer_1" xmlns="http://www.w3.org/2000/svg" xmlns:xlink="http://www.w3.org/1999/xlink" viewBox="0 0 428.53 395.57"><defs><style>.cls-1{fill:#3b8da5;}.cls-1,.cls-2,.cls-3,.cls-4,.cls-5,.cls-6,.cls-7,.cls-8,.cls-9{stroke-width:0px;}.cls-2{fill:#5ab87c;}.cls-3{fill:#171210;}.cls-3,.cls-9{opacity:.08;}.cls-4{fill:#b8debf;}.cls-5,.cls-10{fill:none;}.cls-6{fill:#a5d6b1;}.cls-7,.cls-11,.cls-9{fill:#4e3f36;}.cls-8{fill:#edf7f8;}.cls-12{clip-path:url(#clippath);}.cls-10,.cls-11{stroke:#edf7f8;stroke-miterlimit:10;stroke-width:3.04px;}</style><clipPath id="clippath"><circle class="cls-5" cx="219.67" cy="199.17" r="175"/></clipPath></defs><g class="cls-12"><rect class="cls-1" x="22.01" y="-8.23" width="428.69" height="428.69" rx="65.49" ry="65.49"/><path class="cls-6" d="m156.93,250.49c-14.12-.09-28.19.87-42.2,2.48l-91.91,112.21c3.17,20.03,15.51,37.11,32.54,46.78l130.97-159.88c-9.76-.95-19.55-1.52-29.39-1.58Z"/><path class="cls-6" d="m252.29,263.19l-128.83,157.28h75.53l116.91-142.72c-21.21-4.64-42.38-9.9-63.61-14.56Z"/><path class="cls-6" d="m450.7,287.25c-22.46,3.52-45.58,3.51-68.65,1.37l-108,131.85h72.07l104.58-127.67v-5.54Z"/><path class="cls-4" d="m22.01,269.1v5.42l5.28-6.45c-1.76.34-3.52.68-5.28,1.03Z"/><path class="cls-2" d="m44.46,264.73c-5.73,1.11-12.41,2.41-18.14,3.53l-4.32,5.55v81.17c0,3.47.28,6.88.81,10.2l91.91-112.21c-23.55,2.7-46.97,7.24-70.26,11.77Z"/><path class="cls-2" d="m324.1,279.51c-2.74-.57-5.47-1.16-8.21-1.76l-116.91,142.72h75.07l108-131.85c-19.49-1.81-38.95-5.12-57.95-9.11Z"/><path class="cls-2" d="m450.7,354.97v-62.18l-104.58,127.67h39.09c36.02,0,65.49-29.47,65.49-65.49Z"/><path class="cls-2" d="m186.32,252.07L55.35,411.96c9.51,5.4,20.48,8.51,32.14,8.51h35.96l128.83-157.28c-21.87-4.8-43.82-8.95-65.96-11.11Z"/><path class="cls-9" d="m205.64,254.44c-6.42-.93-12.86-1.75-19.32-2.38L55.35,411.94c4.96,2.82,10.33,5,15.97,6.46l134.31-163.96Z"/><path class="cls-2" d="m22.01,269.1v4.87l4.74-5.79c-1.58.31-3.16.61-4.74.92Z"/><path class="cls-9" d="m44.46,264.73c-5.73,1.11-11.45,2.23-17.18,3.34-.18.03-.36.07-.54.1l-4.74,5.79v25.96l30.03-36.66c-2.53.49-5.05.98-7.57,1.47Z"/><path class="cls-9" d="m198.99,420.46h21.26l113.79-138.91c-3.4-.66-6.79-1.34-10.17-2.05-2.67-.56-5.34-1.14-8.01-1.72l-116.87,142.68Z"/><polygon class="cls-9" points="450.7 292.79 346.12 420.46 346.62 420.46 367.38 420.46 450.7 318.75 450.7 292.79"/><path class="cls-10" d="m450.53,291.56h0v-5.54c-22.46,3.52-45.58,3.51-68.65,1.37-19.49-1.81-38.95-5.12-57.95-9.11-2.74-.57-5.47-1.16-8.21-1.76-21.21-4.64-42.38-9.9-63.61-14.56-15.5-3.4-31.04-6.46-46.66-8.73h0c-.32-.06-.65-.1-.97-.14-1.96-.28-3.92-.54-5.88-.79-1.23-.16-2.45-.33-3.68-.48-1.3-.16-2.6-.29-3.91-.43-1.63-.18-3.25-.38-4.88-.54h0c-9.75-.94-19.54-1.51-29.38-1.57-14.12-.09-28.19.87-42.2,2.48-23.55,2.7-46.97,7.24-70.26,11.77-5.73,1.11-12.41,2.41-18.14,3.53l-4.32,5.55v81.17c0,3.47.28,6.88.81,10.2,3.17,20.03,15.51,37.11,32.54,46.78,9.51,5.4,20.48,8.51,32.14,8.51h297.71c36.02,0,65.49-29.47,65.49-65.49v-36.22h0v-25.96Z"/><path class="cls-8" d="m227.68,181.15c-8.04-.17-16.07.03-24.1.43-2.64.13-5.28.26-7.93.34-3.64.11-7.27.33-10.91.53-1.99.11-3.98.27-5.96.33-3.16.1-6.29.46-9.45.57-2.26.08-4.53.27-6.78.51-1.18.12-2.38.06-3.56.3-.48.1-1.06.15-1.36-.42-.91-1.71-2.19-3.16-3.26-4.76-2.45-3.62-5.06-7.13-7.59-10.69-1.42-2-2.77-4.06-4.24-6.03-1.26-1.68-2.43-3.42-3.73-5.07-1.78-2.27-3.36-4.69-5.08-7-2.7-3.62-5.41-7.23-8.18-10.8-2.86-3.69-5.73-7.36-8.8-10.88-1.58-1.82-3.12-3.68-4.68-5.52-.76-.9-1.8-1.52-2.45-2.53h0c-.16.07-.17.19-.1.35.34.82.65,1.65,1.03,2.45,3.06,6.45,6.78,12.54,10.43,18.66,5.46,9.16,11.27,18.11,17.14,27.01,2.57,3.9,5.17,7.78,7.79,11.64,1.65,2.43,3.25,4.91,5,7.28.19.26.7.6.37,1.11-.54.84-.87,1.78-1.29,2.68-2.09,4.5-4.22,8.98-6.31,13.49-5.11,11.05-9.97,22.21-14.65,33.44-.98,2.35-1.91,4.72-2.84,7.09-1.84,4.7-3.63,9.43-5.05,14.28-.24.83-.52,1.66-.54,2.72.36-.44.62-.73.85-1.05,3.72-5.15,6.94-10.6,9.89-16.22,1.26-2.39,2.76-4.64,3.91-7.1.94-2.01,2.18-3.87,3.22-5.83,2.03-3.84,4.03-7.69,6-11.55,1.72-3.37,3.42-6.75,5.11-10.13-.24,2.05-.6,5.28-.6,6.36,0,2.77-.2,5.53-.23,8.3-.05,4.11-.38,8.21-.45,12.31-.05,2.86-.12,5.72-.21,8.58-.14,4.45-.37,8.89-.49,13.34-.09,3.23-.21,6.45-.33,9.68-.13,3.67-.29,7.35-.36,11.03-.1,4.82-.32,9.64-.5,14.46-.13,3.53-.18,7.06-.39,10.59,0,.06-.02.14-.03.23h18.47c0-.09-.01-.16-.01-.22.09-2.29-.14-4.56-.19-6.84-.14-6.11-.38-12.21-.65-18.32-.15-3.25-.07-6.51-.35-9.76-.17-2.04.05-4.1-.17-6.16-.19-1.78-.11-3.59-.16-5.39-.12-4.88-.4-9.74-.53-14.62-.14-5.34-.28-10.69-.51-16.03-.1-2.45-.2-4.9-.23-7.35-.04-2.89-.15-5.78-.24-8.67-.13-3.87-.28-7.75-.41-11.62-.07-2.15-.12-4.29-.2-6.44,0-.14.01-1.45-.08-2.37,1.28-.04,2.54-.2,3.81-.31,4.11-.38,8.23-.7,12.34-1.07,2.45-.22,4.91-.45,7.36-.71,4.55-.48,9.1-.99,13.65-1.5,2.78-.31,5.56-.55,8.32-.99,2.49-.4,5-.64,7.5-1.01,2.26-.34,4.54-.67,6.82-.93,1.94-.23,3.87-.65,5.79-.96,1.81-.29,3.61-.65,5.42-.94,1.39-.23,2.79-.49,4.14-.9.69-.21,1.48-.21,2.22-.75-3.53-.59-6.97-.62-10.38-.7Z"/><path class="cls-3" d="m159.99,188.75l-4.14-2.64-46.27-65.64c-.16.08-.17.21-.1.36.34.82.65,1.65,1.03,2.45,3.06,6.45,6.78,12.54,10.43,18.66,5.46,9.16,11.27,18.11,17.14,27.01,2.57,3.9,5.17,7.78,7.79,11.64,1.65,2.43,3.25,4.91,5,7.28.19.26.7.6.37,1.11h0c-.54.84-.87,1.78-1.29,2.68-2.09,4.5-4.22,8.98-6.31,13.49-5.11,11.05-9.97,22.21-14.65,33.44-.98,2.35-1.91,4.72-2.84,7.09-1.84,4.7-3.63,9.43-5.05,14.28-.24.83-.52,1.66-.54,2.72l35.59-72.06,4.54,1.29c1.28-.04,2.54-.2,3.81-.31,4.11-.38,8.23-.7,12.34-1.06,2.45-.22,4.91-.45,7.36-.71,4.55-.48,9.1-.99,13.65-1.5,2.78-.31,5.56-.55,8.32-.99,2.49-.4,5-.64,7.5-1.01,2.26-.34,4.54-.67,6.82-.93,1.94-.23,3.87-.65,5.79-.96,1.81-.29,3.61-.65,5.42-.94,1.39-.23,2.79-.49,4.14-.9.69-.21,1.48-.21,2.22-.75l-78.07,6.91Z"/><path class="cls-11" d="m290.36,202.16c-2.22-.26-3.73-.43-5.32-.62v-4.94c2.13-.26,4.01-.49,5.83-.71.26-1.31.35-2.39.69-3.38m21.98,9.99c5.91,47,11.8,93.86,17.69,140.66h-5.99c-7.67-15.52-15.29-30.93-23.39-47.32-8.04,16.36-15.51,31.55-23.27,47.32h-5.95c5.9-46.93,11.81-93.91,17.74-141m1.2-9.65c1.6-4.66.27-7.35-4.85-8.14-3.56-.55-7.04-1.62-10.78-2.5,2.56-6.66,5.4-12.87,7.84-19.22.48-1.25.56-2.63,1.04-3.88-2.46-1.33-4.46-2.4-6.82-3.68-5.2,6.53-10.3,12.94-14.34,18.01-4.73-4.62-9.11-8.9-13.58-13.27,5.4-4.38,11.68-9.48,18.14-14.73-1.56-2.52-2.82-4.56-4.08-6.6-7.85,3.12-15.22,6.05-22.75,9.03-1.76-6.36-3.41-12.36-5.15-18.63,8.06-1.28,16.05-2.55,24.09-3.83v-7.76c-8.11-1.22-16.25-2.44-24.15-3.63,1.66-6.35,3.24-12.42,4.88-18.7,7.59,2.91,15.13,5.81,22.92,8.79,1.41-2.42,2.61-4.5,3.9-6.72-6.71-5.31-13.08-10.35-17.95-14.21,4.32-4.7,8.56-9.32,12.9-14.05,4.63,5.73,9.74,12.05,14.85,18.38,2.21-1.29,4.19-2.44,6.71-3.91-3.15-7.99-6.16-15.59-9.03-22.86,6.53-1.81,12.56-3.47,18.62-5.15,1.32,8.27,2.6,16.26,3.86,24.16h7.77c1.24-8.33,2.44-16.36,3.61-24.24,6.43,1.72,12.45,3.32,18.66,4.98-3.01,7.85-5.89,15.38-8.83,23.04,2.61,1.36,4.73,2.46,6.87,3.57,5.35-6.73,10.41-13.09,14.65-18.42,4.56,4.61,8.88,8.99,13.4,13.58-5.37,4.36-11.78,9.56-18.27,14.81,1.49,2.46,2.75,4.53,4.03,6.64,7.78-3.07,15.29-6.03,22.8-9,1.79,6.49,3.41,12.37,5.12,18.58-7.94,1.27-15.94,2.55-23.95,3.83v7.81c8.22,1.24,16.2,2.45,24.02,3.63-1.68,6.43-3.26,12.47-4.89,18.68-7.57-2.91-15.15-5.81-22.9-8.79-1.41,2.35-2.64,4.41-4,6.67,6.62,5.23,13,10.28,18.51,14.64-4.66,4.49-9.18,8.86-13.73,13.26-4.27-5.29-9.39-11.63-14.56-18.02-2.32,1.41-4.37,2.65-6.63,4.03,3.11,7.89,6.11,15.5,8.95,22.7-6.11,1.76-11.6,3.34-17.04,4.91.59,3.93,1.03,6.84,1.48,9.79,2.06.12,3.79.22,5.73.33v4.89c-1.77.41-3.37.78-5.08,1.17m-45.66-105.44c-1.33,2.13-2.61,4.29-4.08,6.65,5.75,2.27,12.9,5.08,18.11,7.14.42-.58.83-1.15,1.25-1.73-4.36-3.47-10.42-8.2-15.27-12.06Zm22.55,1.24c-1.55-4.3-3.69-9.25-6.04-15.03-2.7,1.57-4.19,2.59-6.71,3.91,3.84,4.45,7.23,8.73,10.15,12.11.65.72,1.3,1.44,1.94,2.16.24-1.06.96-2.29.65-3.16Zm7.41-18.88c.9,5.9,2.08,13.71,2.93,19.21.67,0,1.33.01,2,.02.84-5.46,1.92-13.24,2.84-19.23h-7.77Zm24.78,5.65c-1.01-.53-1.5-.78-3.58-1.86-2.21,5.57-4.07,10.81-6.36,16.6,1.81-.99,2.09-.48,2.98-.96,2.94-3.22,6.7-8.18,10.25-12.07q-1.7-.95-3.29-1.71Zm13.07,11.69c-4.9,4.03-10.72,8.59-15.06,12.15.34.58.68,1.16,1.02,1.74,5.22-2.08,12.43-5.01,18.08-7.25-1.21-2.23-2.69-4.17-4.03-6.64Zm.17,48.21c-.06.1,2.65-4.44,4.07-6.82-5.72-2.2-12.86-5.02-18.12-7.05-.35.6-.7,1.21-1.05,1.81,4.33,3.43,10.24,8.2,15.1,12.05Zm-26.97,62.2c-.85,2.62-6.47,12.8-6.62,15.17-.21,3.26-.3,5.81-.3,5.81,0,0,9.27,25.87,12.17,33.25.23-.04.49,3.48.72,3.44-1.88-14.86-5.48-59.17-5.97-57.67Zm-.85-11.16c-1.37-10.44-2.66-20.61-4.11-30.75-.15-1.08-1.28-2.01-1.96-3.01-.76.97-2.07,1.86-2.21,2.91-1.36,10.16-2.53,20.34-3.8,30.85h12.07Zm-12.19,11.16c1.98,5.13,3.83,9.9,6.14,15.88,2.4-6.07,4.27-10.79,6.29-15.88h-12.43Zm6.08,89.25c7.02,14.45,14.51,25.8,22.45,39.94-2.98-23.64-6.16-45.96-9.34-71.19-4.79,9.72-9.24,18.12-13.19,26.38-.45.94-.36,3.96.08,4.86Zm-.08-4.86c4.59-9.3,7.47-17.7,11.91-26.71h-23.76c4.34,8.81,7.2,17.27,11.85,26.71Zm-20.72,42.76c.32.13-1.25,5.4-.92,5.53.96-1.9,2.85-5.79,3.79-7.7,5.71-11.59,11.28-22.74,16.9-34.37.71-1.46,1.5-5.01.95-6.22-3.89-8.46-8.3-16.68-13.1-26.38-3.14,24.81-4.67,45.85-7.62,69.14Zm32.01-73.98c-4.16-10.72-6.57-20.31-11.18-32.18-4.7,11.59-7.68,21.32-12.12,32.26,9,0,14.35-.08,23.29-.08Zm-22.96-7.24c.34.13-1.02,7.95-.68,8.08,3.52-8.61,9.29-24.29,12.46-33.03.27-.75.71-2.51.02-5.1-.95-3.57-3.23-8.2-3.64-9.41-1.17-3.44-1.14-3.23-3.64-5.11-1.78,14.01-2.76,30.56-4.53,44.57Zm10.17-111.04c-.82,5.09-1.64,10.22-2.55,15.89,2.5.11,4.48.2,7.25.32-.8-5.76-1.53-11.01-2.26-16.24,2.75-.18,5.35-.88,7.71-2.02,2.19,5.06,6.61,13.22,9.04,18.82,2.65-1.86,3.65-2.09,6.59-4.15-3.88-4.43-8.56-12.79-12.09-16.83,5.12-3.85,8.43-9.97,8.43-16.86,0-11.64-9.44-21.08-21.08-21.08s-21.08,9.44-21.08,21.08,8.88,20.51,20.03,21.05Zm-15.54,16.71c.44-1.52,1.31-3.1,1.82-4.65,1.31-3.97,3.14-9.81,4.1-13.15-.98.13-3.05,1.93-3.63,2.39-3.17,2.55-6.3,8.06-9.11,11.72,1.19.45,5.09,2.08,6.82,3.68Zm-16.59-13.66c4.75-3.94,10.62-8.57,14.99-12.2-.35-.53-.7-1.07-1.06-1.6-5.23,2.08-12.31,4.93-18.01,7.2,1.33,2.27,2.72,4.28,4.08,6.6Z"/><rect class="cls-7" x="285.78" y="196.48" width="32.12" height="4.91"/><rect class="cls-7" x="290.07" y="199.45" width="23.39" height="3.92"/><rect class="cls-7" x="292.54" y="183.43" width="2.13" height="19.35" transform="translate(26.2 -34.9) rotate(7.12)"/></g></svg>