<svg xmlns="http://www.w3.org/2000/svg" xmlns:xlink="http://www.w3.org/1999/xlink" viewBox="0 0 605.19 430.23"><defs><style>.cls-1,.cls-10{fill:none;}.cls-2{clip-path:url(#clip-path);}.cls-3{fill:#3b8da5;}.cls-4{fill:#edf7f8;}.cls-5{fill:#171210;}.cls-14,.cls-5{opacity:0.08;isolation:isolate;}.cls-12,.cls-6{fill:#a5d6b1;}.cls-10,.cls-15,.cls-16,.cls-6,.cls-7{stroke:#edf7f8;stroke-miterlimit:10;stroke-width:3.04px;}.cls-7{fill:#9bd9eb;}.cls-8{opacity:0.2;}.cls-9{fill:#23566b;}.cls-11{clip-path:url(#clip-path-2);}.cls-13,.cls-16{fill:#5ab87c;}.cls-14{fill:#4e3f36;}.cls-15{fill:#b09779;}</style><clipPath id="clip-path" transform="translate(231.5 63.3)"><circle class="cls-1" cx="175" cy="175" r="175"/></clipPath><clipPath id="clip-path-2" transform="translate(231.5 63.3)"><path class="cls-1" d="M113.66,227.41c33.24,42.92,75.06,83.92,110.27,131.44H-52.66V184.39A163.51,163.51,0,0,1,2,183.85c15.11,2.42,28.43,7.56,39.7,11.69a287.84,287.84,0,0,1,29.41,12.07c8.5,4.11,13,6.9,21.73,10.07a81.08,81.08,0,0,0,17.44,4.4"/></clipPath></defs><g id="Layer_2" data-name="Layer 2"><g id="Layer_1-2" data-name="Layer 1"><g class="cls-2"><rect class="cls-3" x="159.76" width="428.69" height="428.69" rx="65.49"/><rect class="cls-4" x="308.09" y="137.05" width="70.31" height="169.76" rx="10.54"/><path class="cls-5" d="M101.93,254V87.33a10.57,10.57,0,0,1,10.54-10.54H90.18A10.57,10.57,0,0,0,79.64,87.33V254a10.57,10.57,0,0,0,10.54,10.54h22.29A10.57,10.57,0,0,1,101.93,254Z" transform="translate(231.5 63.3)"/><path class="cls-6" d="M357,217.43c-15.49.68-30.82,2.61-45.49,7.49-11.88,4-23.08,9.77-35,13.58-29.53,9.43-61.59,6-92-.09-11.51-2.3-22.94-5-34.34-7.77h0c-17.72-4.37-35.35-9.1-53.07-13.42l-.1,0-8.57-2c-2.22-.52-70.14-33.76-90.32-33.78-23.34,0-47.8,24.26-69.79,32v86.59c0,1,0,2,.08,3,0,.26,0,.51,0,.77,0,.91.12,1.82.21,2.71a2.11,2.11,0,0,0,0,.25c.1,1,.23,1.92.37,2.87l.12.78c.13.81.27,1.62.44,2.42l.09.47c.19.91.4,1.81.63,2.71.07.28.14.55.22.83.19.71.39,1.41.6,2.11.07.23.13.46.21.69.27.84.55,1.68.85,2.51.11.31.23.61.34.91.23.6.46,1.2.71,1.79l.36.88c.33.77.68,1.53,1,2.28.16.34.33.68.5,1s.49,1,.75,1.45l.56,1.06c.38.69.77,1.36,1.17,2,.23.38.47.76.71,1.14s.47.74.72,1.11.53.8.8,1.19.56.8.85,1.19c.45.63.91,1.24,1.39,1.85l.62.78,1.05,1.29.33.38c.74.86,1.49,1.7,2.27,2.52l.47.5c.43.45.87.89,1.31,1.32l.09.09c.93.91,1.89,1.78,2.88,2.63l.29.25q2.34,2,4.88,3.79l.12.08c.57.4,1.15.79,1.73,1.18h0A65,65,0,0,0-6.2,365.41H291.51A65.68,65.68,0,0,0,357,299.92V217.45h0Z" transform="translate(231.5 63.3)"/><path class="cls-7" d="M348.49,331.85a82.38,82.38,0,0,1-9.71-4c-6.74-3.42-12.68-8.25-18.19-13.45-24-22.62-41.33-52.87-68.69-71-22.28,2.32-45.29-.71-67.43-5.13-5.05-1-10.07-2.1-15.09-3.22,13.1,7.09,25.59,15.16,35.92,25.86,23.72,24.54,33.08,59.5,51.42,88.36a85,85,0,0,0,12.64,16h22.11a65.63,65.63,0,0,0,57-33.41Z" transform="translate(231.5 63.3)"/><g class="cls-8"><path class="cls-9" d="M341.57,329.21l-1-.51c-.61-.28-1.22-.57-1.82-.88-6.74-3.42-12.68-8.25-18.19-13.45-24-22.62-41.33-52.87-68.69-71a165.26,165.26,0,0,1-26.62.49,94.71,94.71,0,0,1,10.1,5.66c46.91,30,51.63,77.15,88.28,87.64,3.16.91,7.86,3.49,14.57,8.31a66.38,66.38,0,0,0,10.1-13.36,70.56,70.56,0,0,1-6.75-2.93Z" transform="translate(231.5 63.3)"/></g><path class="cls-10" d="M348.49,331.85a82.38,82.38,0,0,1-9.71-4c-6.74-3.42-12.68-8.25-18.19-13.45-24-22.62-41.33-52.87-68.69-71-22.28,2.32-45.29-.71-67.43-5.13-5.05-1-10.07-2.1-15.09-3.22,13.1,7.09,25.59,15.16,35.92,25.86,23.72,24.54,33.08,59.5,51.42,88.36a85,85,0,0,0,12.64,16h22.11a65.63,65.63,0,0,0,57-33.41Z" transform="translate(231.5 63.3)"/><g class="cls-11"><path class="cls-12" d="M96.43,164.86a380.42,380.42,0,0,1,47.11,2.86l102.6,129.49a76,76,0,0,1-36.33,54L63.62,166.68c10.89-1.1,21.82-1.76,32.81-1.83Z" transform="translate(231.5 63.3)"/><path class="cls-12" d="M-10,179.51,133.8,361H49.48L-81,196.31C-57.33,191-33.71,184.89-10,179.51Z" transform="translate(231.5 63.3)"/><path class="cls-12" d="M-231.5,207.28c25.07,4.07,50.87,4.05,76.63,1.58L-34.31,361h-80.45L-231.5,213.67v-6.4Z" transform="translate(231.5 63.3)"/><path class="cls-13" d="M-90.17,198.34q4.59-1,9.16-2L49.49,361h-83.8L-154.87,208.86a556.38,556.38,0,0,0,64.69-10.51Z" transform="translate(231.5 63.3)"/><path class="cls-13" d="M63.62,166.68l146.2,184.51A70.67,70.67,0,0,1,173.94,361H133.8L-10,179.51C14.41,174,38.9,169.18,63.62,166.69Z" transform="translate(231.5 63.3)"/><path class="cls-14" d="M42.06,169.41c7.17-1.08,14.36-2,21.56-2.75l146.2,184.51A71.42,71.42,0,0,1,192,358.62Z" transform="translate(231.5 63.3)"/></g><path class="cls-10" d="M357,217.43c-15.49.68-30.82,2.61-45.49,7.49-11.88,4-23.08,9.77-35,13.58-29.53,9.43-61.59,6-92-.09-11.51-2.3-22.94-5-34.34-7.77h0c-17.72-4.37-35.35-9.1-53.07-13.42l-.1,0-8.57-2c-2.22-.52-70.14-33.76-90.32-33.78-23.34,0-47.8,24.26-69.79,32v86.59c0,1,0,2,.08,3,0,.26,0,.51,0,.77,0,.91.12,1.82.21,2.71a2.11,2.11,0,0,0,0,.25c.1,1,.23,1.92.37,2.87l.12.78c.13.81.27,1.62.44,2.42l.09.47c.19.91.4,1.81.63,2.71.07.28.14.55.22.83.19.71.39,1.41.6,2.11.07.23.13.46.21.69.27.84.55,1.68.85,2.51.11.31.23.61.34.91.23.6.46,1.2.71,1.79l.36.88c.33.77.68,1.53,1,2.28.16.34.33.68.5,1s.49,1,.75,1.45l.56,1.06c.38.69.77,1.36,1.17,2,.23.38.47.76.71,1.14s.47.74.72,1.11.53.8.8,1.19.56.8.85,1.19c.45.63.91,1.24,1.39,1.85l.62.78,1.05,1.29.33.38c.74.86,1.49,1.7,2.27,2.52l.47.5c.43.45.87.89,1.31,1.32l.09.09c.93.91,1.89,1.78,2.88,2.63l.29.25q2.34,2,4.88,3.79l.12.08c.57.4,1.15.79,1.73,1.18h0A65,65,0,0,0-6.2,365.41H291.51A65.68,65.68,0,0,0,357,299.92V217.45h0Z" transform="translate(231.5 63.3)"/><rect class="cls-15" x="526.64" y="205.41" width="23.11" height="110.52" rx="10.88"/><path class="cls-14" d="M306.16,142.11c-5.6.68-9.94,4.85-9.94,9.85l.49,89.86c0,5,3.85,8.21,9.45,8.89V142.1Z" transform="translate(231.5 63.3)"/><path class="cls-16" d="M372.17,141.44c0-12.21-17.43-22.11-38.92-22.11h0c-.62-11.9-17.79-21.44-38.89-21.44s-38.92,9.9-38.92,22.11a12.3,12.3,0,0,0,.17,2c-12.12,3.75-20.35,11-20.35,19.43,0,12.21,17.43,22.11,38.92,22.11h0c0,.22,0,.45,0,.67,0,12.21,17.43,22.11,38.92,22.11S352,176.43,352,164.22a12.87,12.87,0,0,0-.43-3.27c12.26-3.72,20.61-11.06,20.61-19.51Z" transform="translate(231.5 63.3)"/><path class="cls-14" d="M293.16,155.14c2.85-8.27,8.56-15.53,10-24.16,2-11.95-4.43-23.32-12-33.08-20,.92-35.75,10.42-35.75,22a12.3,12.3,0,0,0,.17,2c-12.12,3.74-20.35,11-20.35,19.43,0,12.21,17.43,22.11,38.92,22.11h0c0,.22,0,.45,0,.67,0,7.65,6.84,14.38,17.22,18.35-.91-9.2-1.21-18.64,1.79-27.34Z" transform="translate(231.5 63.3)"/><path class="cls-10" d="M372,141.44c0-12.21-17.43-22.11-38.92-22.11h0c-.62-11.9-17.79-21.44-38.89-21.44s-38.92,9.9-38.92,22.11a12.3,12.3,0,0,0,.17,2c-12.12,3.75-20.35,11-20.35,19.43,0,12.21,17.43,22.11,38.92,22.11h0c0,.22,0,.45,0,.67,0,12.21,17.43,22.11,38.92,22.11s38.92-9.9,38.92-22.11a12.87,12.87,0,0,0-.43-3.27c12.26-3.72,20.61-11.06,20.61-19.51Z" transform="translate(231.5 63.3)"/></g></g></g></svg>