<?xml version="1.0" encoding="UTF-8"?><svg id="Layer_1" xmlns="http://www.w3.org/2000/svg" xmlns:xlink="http://www.w3.org/1999/xlink" viewBox="0 0 428.53 395.57"><defs><style>.cls-1{fill:#3b8da5;}.cls-1,.cls-2,.cls-3,.cls-4{stroke-width:0px;}.cls-5{fill:#a5d6b1;}.cls-5,.cls-6,.cls-7,.cls-8,.cls-9{stroke:#edf7f8;stroke-miterlimit:10;stroke-width:3.04px;}.cls-2{opacity:.2;}.cls-2,.cls-4{fill:#4e3f36;}.cls-3,.cls-7{fill:none;}.cls-6{fill:#5ab87c;}.cls-10{clip-path:url(#clippath);}.cls-8{fill:#9bd9eb;}.cls-9{fill:#b09779;}.cls-4{opacity:.08;}</style><clipPath id="clippath"><ellipse class="cls-3" cx="222.11" cy="199.24" rx="175" ry="175.07"/></clipPath></defs><g class="cls-10"><rect class="cls-1" x="45.13" y="-11.6" width="456.6" height="456.72" rx="69.76" ry="69.76"/><path class="cls-9" d="m501.73,117.8c-6.25,1.22-12.29,4.22-17.32,8.18-8.65,6.81-14.92,16.13-21.03,25.28-15.06,22.56-30.13,45.11-45.19,67.67-2.9-2.3-5.75-4.66-8.53-7.12-36.51-32.32-58.98-78.51-96.85-109.21-5.43-4.4-11.29-8.53-17.99-10.53-17.51-5.24-35.62,4.93-50.63,15.37-36.86,25.64-69.33,55.91-100.95,88.76-2.03,2.1-3.91,4.35-5.85,6.53-5.52-6.11-11.3-11.98-17.34-17.58-4.34-4.02-8.99-8-14.65-9.73-12.18-3.73-24.67,3.85-35.16,11.08-8.37,5.76-16.74,11.53-25.1,17.29v90.18l456.6-14.16V117.8Z"/><path class="cls-2" d="m112.79,180.65c-2.29-1.59-4.73-2.91-7.4-3.72-12.18-3.73-24.67,3.85-35.16,11.08-8.37,5.76-16.74,11.53-25.1,17.29v57.57l67.66-82.22Z"/><path class="cls-2" d="m302.06,96.64c-2.3-1.25-4.69-2.3-7.2-3.05-17.51-5.24-35.62,4.93-50.63,15.37-15.07,10.48-29.65,21.68-43.68,33.52l-40.55,38.1c-5.59,5.69-11.37,11.23-16.72,17.14-1.96,2.17-3.91,4.35-5.85,6.53l20.29,26.13,144.34-133.74Z"/><path class="cls-2" d="m444.06,243.8l57.66-98.35v-25.98c-6.25,1.22-12.29,4.22-17.32,8.18-8.65,6.81-14.92,16.13-21.03,25.28-15.06,22.56-30.13,45.11-45.19,67.67"/><path class="cls-5" d="m501.61,343.38v-105.18c-10.87-3.82-23.23-2.92-34.91-1.86-35.06,3.17-70.12,6.34-105.18,9.5-17.09,1.54-34.2,3.09-51.36,3.42-50.84.98-101.19-8.69-151.77-13.96-37.67-3.92-76.43-5.26-113.38,1.85v106.22c0,38.37,31.39,69.77,69.75,69.77h317.09c38.36,0,69.75-31.4,69.75-69.77Z"/><path class="cls-8" d="m501.61,375.35v-105.18c-10.87-3.82-23.23-2.92-34.91-1.86-35.06,3.17-46.12,22.93-81.18,26.09-17.09,1.54-70.51-13.12-87.67-12.79-50.84.98-88.89-9.08-139.46-14.34-37.67-3.92-76.43-5.26-113.38,1.85v106.22c0,38.37,31.39,69.77,69.75,69.77h317.09c38.36,0,69.75-31.4,69.75-69.77Z"/><path class="cls-6" d="m427.06,238.28c0-6.38-9.1-11.55-20.34-11.55,0,0-.01,0-.02,0-.33-6.22-9.3-11.2-20.32-11.2s-20.34,5.17-20.34,11.55c0,.35.03.7.09,1.05-6.33,1.96-10.63,5.77-10.63,10.15,0,6.38,9.1,11.55,20.34,11.55,0,0,.01,0,.02,0,0,.12-.02.23-.02.35,0,6.38,9.1,11.55,20.34,11.55s20.34-5.17,20.34-11.55c0-.58-.08-1.15-.22-1.71,6.41-1.94,10.77-5.78,10.77-10.19Z"/><path class="cls-4" d="m385.78,245.44c1.49-4.32,4.47-8.12,5.24-12.62,1.06-6.24-2.31-12.18-6.29-17.28-10.45.48-18.68,5.44-18.68,11.5,0,.35.03.7.09,1.05-6.33,1.96-10.63,5.77-10.63,10.15,0,6.38,9.1,11.55,20.34,11.55h.02c0,.12-.02.23-.02.35,0,3.99,3.57,7.51,9,9.59-.48-4.81-.63-9.74.94-14.28Z"/><rect class="cls-9" x="252.02" y="212.48" width="12.94" height="49.14" rx="5.41" ry="5.41"/><path class="cls-4" d="m258.19,213.74c-2.62.29-4.65,2.07-4.65,4.21l.23,38.37c0,2.13,1.8,3.5,4.42,3.8v-46.37Z"/><path class="cls-6" d="m288.94,212.18c0-5.43-7.75-9.83-17.31-9.83,0,0,0,0-.01,0-.28-5.29-7.91-9.53-17.29-9.53s-17.31,4.4-17.31,9.83c0,.3.03.6.07.89-5.39,1.67-9.05,4.91-9.05,8.64,0,5.43,7.75,9.83,17.31,9.83,0,0,0,0,.01,0,0,.1-.01.2-.01.3,0,5.43,7.75,9.83,17.31,9.83s17.31-4.4,17.31-9.83c0-.49-.07-.98-.19-1.45,5.45-1.65,9.16-4.92,9.16-8.67Z"/><path class="cls-4" d="m253.8,218.27c1.27-3.68,3.81-6.91,4.46-10.74.9-5.31-1.97-10.37-5.35-14.71-8.9.41-15.9,4.63-15.9,9.79,0,.3.03.6.07.89-5.39,1.67-9.05,4.91-9.05,8.64,0,5.43,7.75,9.83,17.31,9.83h.01c0,.1-.01.2-.01.3,0,3.4,3.04,6.4,7.66,8.16-.4-4.09-.54-8.29.8-12.16Z"/><path class="cls-6" d="m187,235.12c0-6.79-9.69-12.29-21.63-12.29,0,0-.01,0-.02,0-.35-6.61-9.89-11.92-21.62-11.92s-21.63,5.5-21.63,12.29c0,.38.03.75.09,1.11-6.74,2.08-11.31,6.14-11.31,10.8,0,6.79,9.69,12.29,21.63,12.29,0,0,.01,0,.02,0,0,.12-.02.25-.02.37,0,6.79,9.69,12.29,21.63,12.29s21.63-5.5,21.63-12.29c0-.62-.08-1.22-.24-1.82,6.82-2.07,11.45-6.15,11.45-10.84Z"/><path class="cls-4" d="m143.09,242.73c1.58-4.6,4.76-8.63,5.57-13.43,1.13-6.64-2.46-12.96-6.69-18.39-11.12.51-19.87,5.79-19.87,12.24,0,.38.03.75.09,1.11-6.74,2.08-11.31,6.14-11.31,10.8,0,6.79,9.69,12.29,21.63,12.29h.02c0,.12-.02.25-.02.37,0,4.25,3.8,7.99,9.57,10.2-.51-5.11-.67-10.36,1-15.2Z"/><path class="cls-7" d="m288.84,212.18c0-5.43-7.75-9.83-17.31-9.83,0,0,0,0-.01,0-.28-5.29-7.91-9.53-17.29-9.53s-17.31,4.4-17.31,9.83c0,.3.03.6.07.89-5.39,1.67-9.05,4.91-9.05,8.64,0,5.43,7.75,9.83,17.31,9.83,0,0,0,0,.01,0,0,.1-.01.2-.01.3,0,5.43,7.75,9.83,17.31,9.83s17.31-4.4,17.31-9.83c0-.49-.07-.98-.19-1.45,5.45-1.65,9.16-4.92,9.16-8.67Z"/><path class="cls-7" d="m426.99,238.28c0-6.38-9.1-11.55-20.34-11.55,0,0-.01,0-.02,0-.33-6.22-9.3-11.2-20.32-11.2s-20.34,5.17-20.34,11.55c0,.35.03.7.09,1.05-6.33,1.96-10.63,5.77-10.63,10.15,0,6.38,9.1,11.55,20.34,11.55,0,0,.01,0,.02,0,0,.12-.02.23-.02.35,0,6.38,9.1,11.55,20.34,11.55s20.34-5.17,20.34-11.55c0-.58-.08-1.15-.22-1.71,6.41-1.94,10.77-5.78,10.77-10.19Z"/></g><path class="cls-7" d="m186.96,235.11c0-6.79-9.69-12.29-21.63-12.29,0,0-.01,0-.02,0-.35-6.61-9.89-11.92-21.62-11.92s-21.63,5.5-21.63,12.29c0,.38.03.75.09,1.11-6.74,2.08-11.31,6.14-11.31,10.8,0,6.79,9.69,12.29,21.63,12.29,0,0,.01,0,.02,0,0,.12-.02.25-.02.37,0,6.79,9.69,12.29,21.63,12.29s21.63-5.5,21.63-12.29c0-.62-.08-1.22-.24-1.82,6.82-2.07,11.45-6.15,11.45-10.84Z"/></svg>