<?xml version="1.0" encoding="UTF-8"?><svg id="Layer_1" xmlns="http://www.w3.org/2000/svg" xmlns:xlink="http://www.w3.org/1999/xlink" viewBox="0 0 428.53 395.57"><defs><style>.cls-1{fill:#3b8da5;}.cls-1,.cls-2,.cls-3,.cls-4,.cls-5,.cls-6,.cls-7,.cls-8{stroke-width:0px;}.cls-9,.cls-5{fill:#a5d6b1;}.cls-9,.cls-10,.cls-11,.cls-12,.cls-13{stroke:#edf7f8;stroke-miterlimit:10;stroke-width:3.04px;}.cls-2,.cls-12{fill:#5ab87c;}.cls-14{opacity:.2;}.cls-3{fill:#171210;}.cls-3,.cls-8{opacity:.08;}.cls-4,.cls-13{fill:none;}.cls-15{clip-path:url(#clippath-1);}.cls-6{fill:#edf7f8;}.cls-10{fill:#9bd9eb;}.cls-16{clip-path:url(#clippath);}.cls-11{fill:#b09779;}.cls-7{fill:#23566b;}.cls-8{fill:#4e3f36;}</style><clipPath id="clippath"><circle class="cls-4" cx="210.48" cy="199.17" r="175"/></clipPath><clipPath id="clippath-1"><path class="cls-4" d="m149.14,251.58c33.24,42.92,75.06,83.92,110.27,131.44H-17.18v-174.46c12.94-2.32,32.07-4.15,54.64-.54,15.11,2.42,28.43,7.56,39.7,11.69,9.9,3.62,18.35,6.71,29.41,12.07,8.5,4.11,13.04,6.9,21.73,10.07,8.48,3.09,12.58,3.56,17.44,4.4"/></clipPath></defs><g class="cls-16"><rect class="cls-1" x="-36.26" y="-39.13" width="428.69" height="428.69" rx="65.49" ry="65.49"/><rect class="cls-6" x="112.07" y="97.92" width="70.31" height="169.76" rx="10.54" ry="10.54"/><path class="cls-3" d="m137.41,278.19V111.5c0-5.8,4.74-10.54,10.54-10.54h-22.29c-5.8,0-10.54,4.74-10.54,10.54v166.68c0,5.8,4.74,10.54,10.54,10.54h22.29c-5.8,0-10.54-4.74-10.54-10.54Z"/><path class="cls-9" d="m392.44,241.6c-15.49.68-30.82,2.61-45.49,7.49-11.88,3.95-23.08,9.77-35,13.58-29.53,9.43-61.59,5.98-91.99-.09-11.51-2.3-22.94-4.96-34.34-7.77h0c-17.72-4.37-35.35-9.1-53.07-13.42-.03,0-.07-.02-.1-.02-2.35-.57-8.07-1.93-8.57-2.05-2.22-.52-70.14-33.76-90.32-33.78-23.34-.03-47.8,24.26-69.79,31.96v86.59c0,1,.03,1.99.08,2.99.01.26.03.51.04.77.05.91.12,1.82.21,2.71,0,.08.01.17.02.25.1.96.23,1.92.37,2.87.04.26.08.52.12.78.13.81.27,1.62.44,2.42.03.16.06.32.09.47.19.91.4,1.81.63,2.71.07.28.14.55.22.83.19.71.39,1.41.6,2.11.07.23.13.46.21.69.27.84.55,1.68.85,2.51.11.31.23.61.34.91.23.6.46,1.2.71,1.79.12.29.24.59.36.88.33.77.68,1.53,1.04,2.28.16.34.33.68.5,1.02.24.49.49.97.75,1.45.19.35.37.71.56,1.06.38.69.77,1.36,1.17,2.03.23.38.47.76.71,1.14.23.37.47.74.72,1.11.26.4.53.8.8,1.19.28.4.56.8.85,1.19.45.63.91,1.24,1.39,1.85.2.26.41.52.62.78.35.43.7.86,1.05,1.29.11.13.22.25.33.38.74.86,1.49,1.7,2.27,2.52.16.17.31.33.47.5.43.45.87.89,1.31,1.32.03.03.06.06.09.09.93.91,1.89,1.78,2.88,2.63.1.08.19.17.29.25,1.56,1.34,3.19,2.6,4.88,3.79.04.03.08.06.12.08.57.4,1.15.79,1.73,1.18,0,0,0,0,.01,0,10.28,6.73,22.54,10.67,35.68,10.67h297.71c36.02,0,65.49-29.47,65.49-65.49v-82.47h0Z"/><path class="cls-10" d="m383.97,356.02c-3.31-1.18-6.58-2.44-9.71-4.03-6.74-3.42-12.68-8.25-18.19-13.45-24.03-22.62-41.33-52.87-68.69-70.98-22.28,2.32-45.29-.71-67.43-5.13-5.05-1.01-10.07-2.1-15.09-3.22,13.1,7.09,25.59,15.16,35.92,25.86,23.72,24.54,33.08,59.5,51.42,88.36,3.66,5.76,7.73,11.31,12.64,16.01h22.11c24.38,0,45.75-13.51,57.02-33.41Z"/><g class="cls-14"><path class="cls-7" d="m377.05,353.38c-.33-.17-.65-.34-.98-.51-.61-.28-1.22-.57-1.82-.88-6.74-3.42-12.68-8.25-18.19-13.45-24.03-22.62-41.33-52.87-68.69-70.98-8.79.92-17.7,1-26.62.49,3.54,1.71,6.83,3.56,10.1,5.66,46.91,30.02,51.63,77.15,88.28,87.64,3.16.91,7.86,3.49,14.57,8.31,3.9-3.99,7.3-8.48,10.1-13.36-2.29-.87-4.55-1.82-6.75-2.93Z"/></g><path class="cls-13" d="m383.97,356.02c-3.31-1.18-6.58-2.44-9.71-4.03-6.74-3.42-12.68-8.25-18.19-13.45-24.03-22.62-41.33-52.87-68.69-70.98-22.28,2.32-45.29-.71-67.43-5.13-5.05-1.01-10.07-2.1-15.09-3.22,13.1,7.09,25.59,15.16,35.92,25.86,23.72,24.54,33.08,59.5,51.42,88.36,3.66,5.76,7.73,11.31,12.64,16.01h22.11c24.38,0,45.75-13.51,57.02-33.41Z"/><g class="cls-15"><path class="cls-5" d="m131.91,189.03c15.76-.1,31.47,1.01,47.11,2.86l102.6,129.49c-3.54,23.12-17.31,42.82-36.33,53.99L99.1,190.85c10.89-1.1,21.82-1.76,32.81-1.83Z"/><path class="cls-5" d="m25.47,203.68l143.81,181.5h-84.32L-45.53,220.48c23.68-5.35,47.3-11.42,71-16.8Z"/><path class="cls-5" d="m-196.02,231.45c25.07,4.07,50.87,4.05,76.63,1.58L1.17,385.18h-80.45l-116.74-147.34v-6.4Z"/><path class="cls-2" d="m-54.69,222.51c3.06-.66,6.11-1.34,9.16-2.03l130.5,164.7H1.17l-120.56-152.15c21.76-2.08,43.48-5.91,64.69-10.51Z"/><path class="cls-2" d="m99.1,190.85l146.2,184.51c-10.62,6.23-22.86,9.82-35.88,9.82h-40.14L25.47,203.68c24.42-5.54,48.91-10.33,73.63-12.82Z"/><path class="cls-8" d="m77.54,193.58c7.17-1.08,14.36-2.02,21.56-2.75l146.2,184.51c-5.54,3.25-11.53,5.78-17.83,7.45L77.54,193.58Z"/></g><path class="cls-13" d="m392.44,241.6c-15.49.68-30.82,2.61-45.49,7.49-11.88,3.95-23.08,9.77-35,13.58-29.53,9.43-61.59,5.98-91.99-.09-11.51-2.3-22.94-4.96-34.34-7.77h0c-17.72-4.37-35.35-9.1-53.07-13.42-.03,0-.07-.02-.1-.02-2.35-.57-8.07-1.93-8.57-2.05-2.22-.52-70.14-33.76-90.32-33.78-23.34-.03-47.8,24.26-69.79,31.96v86.59c0,1,.03,1.99.08,2.99.01.26.03.51.04.77.05.91.12,1.82.21,2.71,0,.08.01.17.02.25.1.96.23,1.92.37,2.87.04.26.08.52.12.78.13.81.27,1.62.44,2.42.03.16.06.32.09.47.19.91.4,1.81.63,2.71.07.28.14.55.22.83.19.71.39,1.41.6,2.11.07.23.13.46.21.69.27.84.55,1.68.85,2.51.11.31.23.61.34.91.23.6.46,1.2.71,1.79.12.29.24.59.36.88.33.77.68,1.53,1.04,2.28.16.34.33.68.5,1.02.24.49.49.97.75,1.45.19.35.37.71.56,1.06.38.69.77,1.36,1.17,2.03.23.38.47.76.71,1.14.23.37.47.74.72,1.11.26.4.53.8.8,1.19.28.4.56.8.85,1.19.45.63.91,1.24,1.39,1.85.2.26.41.52.62.78.35.43.7.86,1.05,1.29.11.13.22.25.33.38.74.86,1.49,1.7,2.27,2.52.16.17.31.33.47.5.43.45.87.89,1.31,1.32.03.03.06.06.09.09.93.91,1.89,1.78,2.88,2.63.1.08.19.17.29.25,1.56,1.34,3.19,2.6,4.88,3.79.04.03.08.06.12.08.57.4,1.15.79,1.73,1.18,0,0,0,0,.01,0,10.28,6.73,22.54,10.67,35.68,10.67h297.71c36.02,0,65.49-29.47,65.49-65.49v-82.47h0Z"/><rect class="cls-11" x="330.62" y="166.28" width="23.11" height="110.52" rx="10.88" ry="10.88"/><path class="cls-8" d="m341.64,166.28c-5.6.68-9.94,4.85-9.94,9.85l.49,89.86c0,5,3.85,8.21,9.45,8.89v-108.61Z"/><path class="cls-12" d="m407.65,165.61c0-12.21-17.43-22.11-38.92-22.11,0,0-.02,0-.03,0-.62-11.9-17.79-21.44-38.89-21.44s-38.92,9.9-38.92,22.11c0,.68.06,1.34.17,2.01-12.12,3.75-20.35,11.04-20.35,19.43,0,12.21,17.43,22.11,38.92,22.11.01,0,.02,0,.03,0-.01.22-.03.45-.03.67,0,12.21,17.43,22.11,38.92,22.11s38.92-9.9,38.92-22.11c0-1.11-.15-2.2-.43-3.27,12.26-3.72,20.61-11.06,20.61-19.51Z"/><path class="cls-8" d="m328.64,179.31c2.85-8.27,8.56-15.53,10.03-24.16,2.03-11.95-4.43-23.32-12.03-33.08-20.01.92-35.75,10.42-35.75,22.02,0,.68.06,1.34.17,2.01-12.12,3.74-20.35,11.04-20.35,19.43,0,12.21,17.43,22.11,38.92,22.11h.03c-.01.22-.03.45-.03.67,0,7.65,6.84,14.38,17.22,18.35-.91-9.2-1.21-18.64,1.79-27.34Z"/><path class="cls-13" d="m407.52,165.61c0-12.21-17.43-22.11-38.92-22.11,0,0-.02,0-.03,0-.62-11.9-17.79-21.44-38.89-21.44s-38.92,9.9-38.92,22.11c0,.68.06,1.34.17,2.01-12.12,3.75-20.35,11.04-20.35,19.43,0,12.21,17.43,22.11,38.92,22.11.01,0,.02,0,.03,0-.01.22-.03.45-.03.67,0,12.21,17.43,22.11,38.92,22.11s38.92-9.9,38.92-22.11c0-1.11-.15-2.2-.43-3.27,12.26-3.72,20.61-11.06,20.61-19.51Z"/></g></svg>