<?xml version="1.0" encoding="UTF-8"?><svg id="Layer_1" xmlns="http://www.w3.org/2000/svg" xmlns:xlink="http://www.w3.org/1999/xlink" viewBox="0 0 428.53 395.57"><defs><style>.cls-1{fill:#3b8da5;}.cls-1,.cls-2,.cls-3,.cls-4{stroke-width:0px;}.cls-5{fill:#a5d6b1;}.cls-5,.cls-6,.cls-7,.cls-8,.cls-9{stroke:#edf7f8;stroke-miterlimit:10;stroke-width:3.04px;}.cls-2{fill:#4e3f36;}.cls-2,.cls-4{opacity:.2;}.cls-3,.cls-9{fill:none;}.cls-6{fill:#9bd9eb;}.cls-10{clip-path:url(#clippath);}.cls-7{fill:#b09779;}.cls-8{fill:#5ab87c;}.cls-4{fill:#23566b;}</style><clipPath id="clippath"><ellipse class="cls-3" cx="218.07" cy="199.02" rx="175" ry="174.85"/></clipPath></defs><g class="cls-10"><rect class="cls-1" x="-32.68" y="5.51" width="428.69" height="428.69" rx="65.49" ry="65.49"/><path class="cls-5" d="m311.56,156.92c-31.98-3.84-63.25-12.15-95.08-17.08-67.11-10.39-136.54-5.46-201.51,14.3-15.8,4.8-31.47,10.49-47.65,13.46v201.1c0,36.02,29.47,65.49,65.49,65.49h297.71c36.02,0,65.49-29.47,65.49-65.49v-217.6c-26.84,8.91-56.22,9.2-84.45,5.81Z"/><path class="cls-7" d="m348.79,267.59c-5.4-4.64-13.54-2.05-20.59-1.01-17.42,2.56-37.06-9.35-38.89-26.86-1.09-10.43,3.62-22.01-1.92-30.91-4.62-7.43-14.26-9.44-22.35-12.77-20.55-8.45-34.63-30.23-34.75-52.33-4.6-.83-9.21-1.62-13.83-2.34-11.67-1.81-23.41-3.14-35.18-4.02,1.28,8.16,3.49,16.16,6.69,23.79,8.42,20.01,23.98,37.24,43.76,46.2,10.56,4.78,24.36,10.01,24.64,21.6.11,4.53-2.13,8.74-3.52,13.06-5.23,16.27,3.23,35.78,18.69,43.08,3.26,1.54,7.47,3.72,6.89,7.28-.26,1.62-1.53,2.86-2.79,3.91-13.88,11.54-34.07,12.83-48.25,24-13.19,10.39-18.99,27.7-20.9,44.38-1.24,10.79-1.22,22.03-5.7,31.93-3.88,8.58-10.8,15.34-17.56,21.89-5.94,5.76-11.88,11.51-17.83,17.27h70.73c8.19-9.63,9.01-23.81,8.17-36.61-.88-13.51-2.92-27.7,2.47-40.12,6.33-14.61,21.54-23.31,36.61-28.44,15.07-5.13,31.12-7.8,45.13-15.36,14.01-7.57,26.04-21.92,24.56-37.77-.34-3.65-1.52-7.44-4.3-9.83Z"/><path class="cls-2" d="m275.65,296.26c-13.88,11.54-34.07,12.83-48.25,24-13.19,10.39-18.99,27.7-20.9,44.38-1.24,10.79-1.22,22.03-5.7,31.93-3.88,8.58-10.8,15.34-17.56,21.89-5.94,5.76-11.88,11.51-17.83,17.27h31.51c13.95-18.82,27.27-37.91,34.03-60.09,3.21-10.53,4.9-21.65,9.95-31.44,10.31-19.97,32.3-30.52,48.67-45.91,6.39-6.02,12.3-15.48,7.77-23-4.11-6.83-14.23-7.26-19.6-13.16-3.12-3.43-10.92-27.84-9.79-40.75.35-3.99-2.97-12.57-5.23-15.87-1.86-2.7-7.8-4.92-10.84-6.17-14.43-5.95-26.14-12.62-36.1-24.63-6.65-8.02-7.71-19.15-8.48-29.55-.13-1.72-.25-3.44-.38-5.16-8.51-1.13-17.05-2.02-25.62-2.66,1.28,8.16,3.49,16.16,6.69,23.79,8.42,20.01,23.98,37.24,43.76,46.2,10.56,4.78,24.36,10.01,24.64,21.6.11,4.53-2.13,8.74-3.52,13.06-5.23,16.27,3.23,35.78,18.69,43.08,3.26,1.54,7.47,3.72,6.89,7.28-.26,1.62-1.53,2.86-2.79,3.91Z"/><path class="cls-8" d="m107.02,207.33c0-10.37-14.8-18.77-33.06-18.77,0,0-.02,0-.03,0-.53-10.11-15.11-18.21-33.04-18.21s-33.06,8.41-33.06,18.77c0,.57.05,1.14.14,1.7-10.3,3.18-17.29,9.38-17.29,16.5,0,10.37,14.8,18.77,33.06,18.77,0,0,.02,0,.03,0-.01.19-.03.38-.03.57,0,10.37,14.8,18.77,33.06,18.77s33.06-8.41,33.06-18.77c0-.94-.13-1.87-.36-2.78,10.42-3.16,17.51-9.39,17.51-16.57Z"/><path class="cls-9" d="m348.79,267.4c-5.4-4.64-13.54-2.05-20.59-1.01-17.42,2.56-37.06-9.35-38.89-26.86-1.09-10.43,3.62-22.01-1.92-30.91-4.62-7.43-14.26-9.44-22.35-12.77-20.55-8.45-34.63-30.23-34.75-52.33-4.6-.83-9.21-1.62-13.83-2.34-11.67-1.81-23.41-3.14-35.18-4.02,1.28,8.16,3.49,16.16,6.69,23.79,8.42,20.01,23.98,37.24,43.76,46.2,10.56,4.78,24.36,10.01,24.64,21.6.11,4.53-2.13,8.74-3.52,13.06-5.23,16.27,3.23,35.78,18.69,43.08,3.26,1.54,7.47,3.72,6.89,7.28-.26,1.62-1.53,2.86-2.79,3.91-13.88,11.54-34.07,12.83-48.25,24-13.19,10.39-18.99,27.7-20.9,44.38-1.24,10.79-1.22,22.03-5.7,31.93-3.88,8.58-10.8,15.34-17.56,21.89-5.94,5.76-11.88,11.51-17.83,17.27h70.73c8.19-9.63,9.01-23.81,8.17-36.61-.88-13.51-2.92-27.7,2.47-40.12,6.33-14.61,21.54-23.31,36.61-28.44,15.07-5.13,31.12-7.8,45.13-15.36,14.01-7.57,26.04-21.92,24.56-37.77-.34-3.65-1.52-7.44-4.3-9.83Z"/><path class="cls-6" d="m158.15,429.81c-.16-7.72-.54-15.5-2.76-22.96-3.83-12.91-13.09-24.8-12.61-38.15.52-14.53,12.4-26.51,24.33-36.3,11.93-9.78,25.19-19.57,30.14-33.41,9.46-26.46-15.32-53.07-16.13-80.86-.53-18.2,9.66-35.75,24.3-48.28,11.95-10.23,26.63-17.45,42.04-22.86-10.3-2.05-20.62-4.02-30.99-5.62-11.54-1.79-23.15-3.11-34.8-3.99-1.21,3.06-2.81,5.96-5.08,8.47-3.74,4.13-8.98,6.87-13.65,10.13-21.97,15.37-30.5,42.25-29.74,67.32.33,10.91,2.15,21.91.13,32.66-1.69,8.98-5.99,17.38-10.58,25.49-5.03,8.89-10.6,17.74-18.64,24.6-6.96,5.94-15.55,10.18-22.42,16.2-8.88,7.78-14.41,18.09-19.5,28.26-9.55,19.08-18.27,38.8-21.22,59.57-1.2,8.46-1.37,17.14-.28,25.64h117.54c-.02-1.97-.04-3.94-.08-5.91Z"/><path class="cls-4" d="m78.48,396.19c5.56-52.45,61.9-86.71,73.44-138.17,5.89-26.28-.34-55.66,12.83-79.16,8.67-15.47,24.4-25.66,35.17-39.72-6.07-.71-12.15-1.29-18.23-1.75-1.21,3.06-2.81,5.96-5.08,8.47-3.74,4.13-8.98,6.87-13.65,10.13-21.97,15.37-30.5,42.25-29.74,67.32.33,10.91,2.15,21.91.13,32.66-1.69,8.98-5.99,17.38-10.58,25.49-5.03,8.89-10.6,17.74-18.64,24.6-6.96,5.94-15.55,10.18-22.42,16.2-8.88,7.78-14.41,18.09-19.5,28.26-9.55,19.08-18.27,38.8-21.22,59.57-1.2,8.46-1.37,17.14-.28,25.64h42.26c-3.78-12.96-5.89-26.07-4.47-39.54Z"/><path class="cls-9" d="m158.15,429.81c-.16-7.72-.54-15.5-2.76-22.96-3.83-12.91-13.09-24.8-12.61-38.15.52-14.53,12.4-26.51,24.33-36.3,11.93-9.78,25.19-19.57,30.14-33.41,9.46-26.46-15.32-53.07-16.13-80.86-.53-18.2,9.66-35.75,24.3-48.28,11.95-10.23,26.63-17.45,42.04-22.86-10.3-2.05-20.62-4.02-30.99-5.62-11.54-1.79-23.15-3.11-34.8-3.99-1.21,3.06-2.81,5.96-5.08,8.47-3.74,4.13-8.98,6.87-13.65,10.13-21.97,15.37-30.5,42.25-29.74,67.32.33,10.91,2.15,21.91.13,32.66-1.69,8.98-5.99,17.38-10.58,25.49-5.03,8.89-10.6,17.74-18.64,24.6-6.96,5.94-15.55,10.18-22.42,16.2-8.88,7.78-14.41,18.09-19.5,28.26-9.55,19.08-18.27,38.8-21.22,59.57-1.2,8.46-1.37,17.14-.28,25.64h117.54c-.02-1.97-.04-3.94-.08-5.91Z"/></g></svg>