<?xml version="1.0" encoding="UTF-8"?><svg id="Layer_1" xmlns="http://www.w3.org/2000/svg" xmlns:xlink="http://www.w3.org/1999/xlink" viewBox="0 0 428.53 395.57"><defs><style>.cls-1{fill:#3b8da5;}.cls-1,.cls-2,.cls-3,.cls-4,.cls-5{stroke-width:0px;}.cls-6,.cls-7,.cls-8,.cls-9,.cls-10,.cls-11{stroke:#edf7f8;stroke-miterlimit:10;}.cls-6,.cls-7,.cls-4{fill:#a5d6b1;}.cls-6,.cls-11{stroke-width:3.04px;}.cls-2,.cls-9{fill:#5ab87c;}.cls-7,.cls-8,.cls-9,.cls-10{stroke-width:3.04px;}.cls-12{clip-path:url(#clippath-2);}.cls-3,.cls-8,.cls-11{fill:none;}.cls-13{clip-path:url(#clippath-1);}.cls-14{clip-path:url(#clippath);}.cls-10{fill:#b09779;}.cls-5{fill:#4e3f36;opacity:.08;}</style><clipPath id="clippath"><ellipse class="cls-3" cx="207.94" cy="199.12" rx="175" ry="174.95"/></clipPath><clipPath id="clippath-1"><circle class="cls-3" cx="676.01" cy="199.17" r="175"/></clipPath><clipPath id="clippath-2"><path class="cls-3" d="m614.68,251.58c33.24,42.92,75.06,83.92,110.27,131.44h-276.58v-174.46c12.94-2.32,32.07-4.15,54.64-.54,15.11,2.42,28.43,7.56,39.7,11.69,9.9,3.62,18.35,6.71,29.41,12.07,8.5,4.11,13.04,6.9,21.73,10.07,8.48,3.09,12.58,3.56,17.44,4.4"/></clipPath></defs><g class="cls-14"><rect class="cls-1" x="9.89" y="6.12" width="443.86" height="463.86" rx="65.49" ry="65.49"/><path class="cls-7" d="m366.3,182.89c-33.11-3.98-65.49-12.58-98.45-17.68-69.48-10.75-141.37-5.65-208.63,14.81-16.35,4.97-32.58,10.86-49.34,13.94v208.21c0,37.29,30.51,67.81,67.81,67.81h308.24c37.29,0,67.81-30.51,67.81-67.81v-225.3c-27.79,9.23-58.21,9.53-87.44,6.02Z"/><rect class="cls-10" x="197.1" y="108.76" width="23.92" height="114.43" rx="10.88" ry="10.88"/><path class="cls-5" d="m208.52,108.76c-5.8.71-10.29,5.02-10.29,10.2l.51,93.04c0,5.18,3.98,8.5,9.78,9.21v-112.45Z"/><path class="cls-9" d="m276.86,108.07c0-12.64-18.04-22.89-40.3-22.89-.01,0-.02,0-.03,0-.65-12.32-18.42-22.2-40.27-22.2s-40.3,10.25-40.3,22.89c0,.7.06,1.39.17,2.08-12.55,3.88-21.07,11.43-21.07,20.12,0,12.64,18.04,22.89,40.3,22.89.01,0,.02,0,.03,0-.01.23-.03.46-.03.69,0,12.64,18.04,22.89,40.3,22.89s40.3-10.25,40.3-22.89c0-1.15-.15-2.28-.44-3.38,12.7-3.85,21.34-11.45,21.34-20.2Z"/><path class="cls-5" d="m195.05,122.25c2.95-8.56,8.86-16.08,10.38-25.01,2.11-12.37-4.58-24.14-12.46-34.25-20.72.95-37.02,10.78-37.02,22.8,0,.7.06,1.39.17,2.08-12.55,3.88-21.07,11.43-21.07,20.12,0,12.64,18.04,22.89,40.3,22.89h.03c-.01.23-.03.46-.03.69,0,7.92,7.08,14.89,17.83,19-.94-9.53-1.25-19.29,1.86-28.31Z"/><rect class="cls-10" x="81.89" y="148.12" width="15.95" height="90.85" rx="7.7" ry="7.7"/><path class="cls-5" d="m89.5,148.12c-3.86.47-6.86,3.35-6.86,6.8l.34,62.03c0,3.45,2.66,5.67,6.52,6.14v-74.96Z"/><path class="cls-9" d="m135.06,147.66c0-8.43-12.03-15.26-26.87-15.26,0,0-.01,0-.02,0-.43-8.21-12.28-14.8-26.85-14.8s-26.87,6.83-26.87,15.26c0,.47.04.93.12,1.38-8.37,2.59-14.05,7.62-14.05,13.41,0,8.43,12.03,15.26,26.87,15.26,0,0,.01,0,.02,0,0,.15-.02.31-.02.46,0,8.43,12.03,15.26,26.87,15.26s26.87-6.83,26.87-15.26c0-.77-.1-1.52-.29-2.26,8.46-2.57,14.23-7.63,14.23-13.47Z"/><path class="cls-5" d="m80.52,157.12c1.97-5.71,5.91-10.72,6.92-16.67,1.4-8.25-3.06-16.1-8.3-22.84-13.81.63-24.68,7.19-24.68,15.2,0,.47.04.93.11,1.38-8.37,2.58-14.05,7.62-14.05,13.41,0,8.43,12.03,15.26,26.87,15.26h.02c0,.15-.02.31-.02.46,0,5.28,4.72,9.93,11.89,12.67-.63-6.35-.83-12.86,1.24-18.87Z"/><path class="cls-8" d="m276.73,108.07c0-12.64-18.04-22.89-40.3-22.89-.01,0-.02,0-.03,0-.65-12.32-18.42-22.2-40.27-22.2s-40.3,10.25-40.3,22.89c0,.7.06,1.39.17,2.08-12.55,3.88-21.07,11.43-21.07,20.12,0,12.64,18.04,22.89,40.3,22.89.01,0,.02,0,.03,0-.01.23-.03.46-.03.69,0,12.64,18.04,22.89,40.3,22.89s40.3-10.25,40.3-22.89c0-1.15-.15-2.28-.44-3.38,12.7-3.85,21.34-11.45,21.34-20.2Z"/><rect class="cls-10" x="313.8" y="173.64" width="21.24" height="101.62" rx="10.26" ry="10.26"/><path class="cls-5" d="m323.94,173.64c-5.15.63-9.14,4.46-9.14,9.06l.45,82.63c0,4.6,3.54,7.55,8.69,8.18v-99.86Z"/><path class="cls-9" d="m384.64,173.03c0-11.23-16.02-20.33-35.79-20.33,0,0-.02,0-.03,0-.57-10.94-16.36-19.71-35.76-19.71s-35.79,9.1-35.79,20.33c0,.62.06,1.24.15,1.84-11.15,3.44-18.71,10.15-18.71,17.87,0,11.23,16.02,20.33,35.79,20.33,0,0,.02,0,.03,0-.01.21-.03.41-.03.62,0,11.23,16.02,20.33,35.79,20.33s35.79-9.1,35.79-20.33c0-1.02-.14-2.02-.39-3.01,11.28-3.42,18.95-10.17,18.95-17.94Z"/><path class="cls-5" d="m311.98,185.62c2.62-7.6,7.87-14.28,9.22-22.21,1.87-10.99-4.07-21.44-11.06-30.42-18.4.84-32.87,9.58-32.87,20.24,0,.62.06,1.24.15,1.84-11.15,3.44-18.71,10.15-18.71,17.87,0,11.23,16.02,20.33,35.79,20.33h.03c-.01.21-.03.41-.03.62,0,7.03,6.29,13.22,15.84,16.87-.84-8.46-1.11-17.13,1.65-25.14Z"/><path class="cls-8" d="m384.52,173.03c0-11.23-16.02-20.33-35.79-20.33,0,0-.02,0-.03,0-.57-10.94-16.36-19.71-35.76-19.71s-35.79,9.1-35.79,20.33c0,.62.06,1.24.15,1.84-11.15,3.44-18.71,10.15-18.71,17.87,0,11.23,16.02,20.33,35.79,20.33,0,0,.02,0,.03,0-.01.21-.03.41-.03.62,0,11.23,16.02,20.33,35.79,20.33s35.79-9.1,35.79-20.33c0-1.02-.14-2.02-.39-3.01,11.28-3.42,18.95-10.17,18.95-17.94Z"/><rect class="cls-10" x="260.4" y="270.52" width="23.92" height="114.43" rx="10.88" ry="10.88"/><path class="cls-5" d="m271.81,270.52c-5.8.71-10.29,5.02-10.29,10.2l.51,93.04c0,5.18,3.98,8.5,9.78,9.21v-112.45Z"/><path class="cls-9" d="m340.16,269.83c0-12.64-18.04-22.89-40.3-22.89-.01,0-.02,0-.03,0-.65-12.32-18.42-22.2-40.27-22.2s-40.3,10.25-40.3,22.89c0,.7.06,1.39.17,2.08-12.55,3.88-21.07,11.43-21.07,20.12,0,12.64,18.04,22.89,40.3,22.89.01,0,.02,0,.03,0-.01.23-.03.46-.03.69,0,12.64,18.04,22.89,40.3,22.89s40.3-10.25,40.3-22.89c0-1.15-.15-2.28-.44-3.38,12.7-3.85,21.34-11.45,21.34-20.2Z"/><path class="cls-5" d="m258.35,284.01c2.95-8.56,8.86-16.08,10.38-25.01,2.11-12.37-4.58-24.14-12.46-34.25-20.72.95-37.02,10.78-37.02,22.8,0,.7.06,1.39.17,2.08-12.55,3.88-21.07,11.43-21.07,20.12,0,12.64,18.04,22.89,40.3,22.89h.03c-.01.23-.03.46-.03.69,0,7.92,7.08,14.89,17.83,19-.94-9.53-1.25-19.29,1.86-28.31Z"/><path class="cls-8" d="m340.02,269.83c0-12.64-18.04-22.89-40.3-22.89-.01,0-.02,0-.03,0-.65-12.32-18.42-22.2-40.27-22.2s-40.3,10.25-40.3,22.89c0,.7.06,1.39.17,2.08-12.55,3.88-21.07,11.43-21.07,20.12,0,12.64,18.04,22.89,40.3,22.89.01,0,.02,0,.03,0-.01.23-.03.46-.03.69,0,12.64,18.04,22.89,40.3,22.89s40.3-10.25,40.3-22.89c0-1.15-.15-2.28-.44-3.38,12.7-3.85,21.34-11.45,21.34-20.2Z"/><rect class="cls-10" x="112.07" y="258.47" width="21.24" height="101.62" rx="10.26" ry="10.26"/><path class="cls-5" d="m122.2,258.47c-5.15.63-9.14,4.46-9.14,9.06l.45,82.63c0,4.6,3.54,7.55,8.69,8.18v-99.86Z"/><path class="cls-9" d="m182.9,257.85c0-11.23-16.02-20.33-35.79-20.33,0,0-.02,0-.03,0-.57-10.94-16.36-19.71-35.76-19.71s-35.79,9.1-35.79,20.33c0,.62.06,1.24.15,1.84-11.15,3.44-18.71,10.15-18.71,17.87,0,11.23,16.02,20.33,35.79,20.33,0,0,.02,0,.03,0-.01.21-.03.41-.03.62,0,11.23,16.02,20.33,35.79,20.33s35.79-9.1,35.79-20.33c0-1.02-.14-2.02-.39-3.01,11.28-3.42,18.95-10.17,18.95-17.94Z"/><path class="cls-5" d="m110.25,270.44c2.62-7.6,7.87-14.28,9.22-22.21,1.87-10.99-4.07-21.44-11.06-30.42-18.4.84-32.87,9.58-32.87,20.24,0,.62.06,1.24.15,1.84-11.15,3.44-18.71,10.15-18.71,17.87,0,11.23,16.02,20.33,35.79,20.33h.03c-.01.21-.03.41-.03.62,0,7.03,6.29,13.22,15.84,16.87-.84-8.46-1.11-17.13,1.65-25.14Z"/><path class="cls-8" d="m182.78,257.85c0-11.23-16.02-20.33-35.79-20.33,0,0-.02,0-.03,0-.57-10.94-16.36-19.71-35.76-19.71s-35.79,9.1-35.79,20.33c0,.62.06,1.24.15,1.84-11.15,3.44-18.71,10.15-18.71,17.87,0,11.23,16.02,20.33,35.79,20.33,0,0,.02,0,.03,0-.01.21-.03.41-.03.62,0,11.23,16.02,20.33,35.79,20.33s35.79-9.1,35.79-20.33c0-1.02-.14-2.02-.39-3.01,11.28-3.42,18.95-10.17,18.95-17.94Z"/><path class="cls-9" d="m241.41,373.54c0-12.64-18.04-22.89-40.3-22.89-.01,0-.02,0-.03,0-.65-12.32-18.42-22.2-40.27-22.2s-40.3,10.25-40.3,22.89c0,.7.06,1.39.17,2.08-12.55,3.88-21.07,11.43-21.07,20.12,0,12.64,18.04,22.89,40.3,22.89.01,0,.02,0,.03,0-.01.23-.03.46-.03.69,0,12.64,18.04,22.89,40.3,22.89s40.3-10.25,40.3-22.89c0-1.15-.15-2.28-.44-3.38,12.7-3.85,21.34-11.45,21.34-20.2Z"/><path class="cls-5" d="m159.6,387.72c2.95-8.56,8.86-16.08,10.38-25.01,2.11-12.37-4.58-24.14-12.46-34.25-20.72.95-37.02,10.78-37.02,22.8,0,.7.06,1.39.17,2.08-12.55,3.88-21.07,11.43-21.07,20.12,0,12.64,18.04,22.89,40.3,22.89h.03c-.01.23-.03.46-.03.69,0,7.92,7.08,14.89,17.83,19-.94-9.53-1.25-19.29,1.86-28.31Z"/><path class="cls-8" d="m241.28,373.54c0-12.64-18.04-22.89-40.3-22.89-.01,0-.02,0-.03,0-.65-12.32-18.42-22.2-40.27-22.2s-40.3,10.25-40.3,22.89c0,.7.06,1.39.17,2.08-12.55,3.88-21.07,11.43-21.07,20.12,0,12.64,18.04,22.89,40.3,22.89.01,0,.02,0,.03,0-.01.23-.03.46-.03.69,0,12.64,18.04,22.89,40.3,22.89s40.3-10.25,40.3-22.89c0-1.15-.15-2.28-.44-3.38,12.7-3.85,21.34-11.45,21.34-20.2Z"/><path class="cls-8" d="m134.97,147.66c0-8.43-12.03-15.26-26.87-15.26,0,0-.01,0-.02,0-.43-8.21-12.28-14.8-26.85-14.8s-26.87,6.83-26.87,15.26c0,.47.04.93.12,1.38-8.37,2.59-14.05,7.62-14.05,13.41,0,8.43,12.03,15.26,26.87,15.26,0,0,.01,0,.02,0,0,.15-.02.31-.02.46,0,8.43,12.03,15.26,26.87,15.26s26.87-6.83,26.87-15.26c0-.77-.1-1.52-.29-2.26,8.46-2.57,14.23-7.63,14.23-13.47Z"/></g><g class="cls-13"><path class="cls-6" d="m857.97,241.6c-15.49.68-30.82,2.61-45.49,7.49-11.88,3.95-23.08,9.77-35,13.58-29.53,9.43-61.59,5.98-91.99-.09-11.51-2.3-22.94-4.96-34.34-7.77h0c-17.72-4.37-35.35-9.1-53.07-13.42-.03,0-.07-.02-.1-.02-2.35-.57-8.07-1.93-8.57-2.05-2.22-.52-70.14-33.76-90.32-33.78-23.34-.03-47.8,24.26-69.79,31.96v86.59c0,1,.03,1.99.08,2.99.01.26.03.51.04.77.05.91.12,1.82.21,2.71,0,.08.01.17.02.25.1.96.23,1.92.37,2.87.04.26.08.52.12.78.13.81.27,1.62.44,2.42.03.16.06.32.09.47.19.91.4,1.81.63,2.71.07.28.14.55.22.83.19.71.39,1.41.6,2.11.07.23.13.46.21.69.27.84.55,1.68.85,2.51.11.31.23.61.34.91.23.6.46,1.2.71,1.79.12.29.24.59.36.88.33.77.68,1.53,1.04,2.28.16.34.33.68.5,1.02.24.49.49.97.75,1.45.19.35.37.71.56,1.06.38.69.77,1.36,1.17,2.03.23.38.47.76.71,1.14.23.37.47.74.72,1.11.26.4.53.8.8,1.19.28.4.56.8.85,1.19.45.63.91,1.24,1.39,1.85.2.26.41.52.62.78.35.43.7.86,1.05,1.29.11.13.22.25.33.38.74.86,1.49,1.7,2.27,2.52.16.17.31.33.47.5.43.45.87.89,1.31,1.32.03.03.06.06.09.09.93.91,1.89,1.78,2.88,2.63.1.08.19.17.29.25,1.56,1.34,3.19,2.6,4.88,3.79.04.03.08.06.12.08.57.4,1.15.79,1.73,1.18,0,0,0,0,.01,0,10.28,6.73,22.54,10.67,35.68,10.67h297.71c36.02,0,65.49-29.47,65.49-65.49v-82.47h0Z"/><g class="cls-12"><path class="cls-4" d="m491.01,203.68l143.81,181.5h-84.32l-130.5-164.7c23.68-5.35,47.3-11.42,71-16.8Z"/><path class="cls-4" d="m269.52,231.45c25.07,4.07,50.87,4.05,76.63,1.58l120.56,152.15h-80.45l-116.74-147.34v-6.4Z"/><path class="cls-2" d="m410.84,222.51c3.06-.66,6.11-1.34,9.16-2.03l130.5,164.7h-83.8l-120.56-152.15c21.76-2.08,43.48-5.91,64.69-10.51Z"/><path class="cls-2" d="m269.52,309.6v-71.76l116.74,147.34h-43.64c-40.21,0-73.11-34.01-73.11-75.58Z"/><polygon class="cls-5" points="269.52 237.84 386.26 385.18 385.7 385.18 362.53 385.18 269.52 267.8 269.52 237.84"/></g><path class="cls-11" d="m857.97,241.6c-15.49.68-30.82,2.61-45.49,7.49-11.88,3.95-23.08,9.77-35,13.58-29.53,9.43-61.59,5.98-91.99-.09-11.51-2.3-22.94-4.96-34.34-7.77h0c-17.72-4.37-35.35-9.1-53.07-13.42-.03,0-.07-.02-.1-.02-2.35-.57-8.07-1.93-8.57-2.05-2.22-.52-70.14-33.76-90.32-33.78-23.34-.03-47.8,24.26-69.79,31.96v86.59c0,1,.03,1.99.08,2.99.01.26.03.51.04.77.05.91.12,1.82.21,2.71,0,.08.01.17.02.25.1.96.23,1.92.37,2.87.04.26.08.52.12.78.13.81.27,1.62.44,2.42.03.16.06.32.09.47.19.91.4,1.81.63,2.71.07.28.14.55.22.83.19.71.39,1.41.6,2.11.07.23.13.46.21.69.27.84.55,1.68.85,2.51.11.31.23.61.34.91.23.6.46,1.2.71,1.79.12.29.24.59.36.88.33.77.68,1.53,1.04,2.28.16.34.33.68.5,1.02.24.49.49.97.75,1.45.19.35.37.71.56,1.06.38.69.77,1.36,1.17,2.03.23.38.47.76.71,1.14.23.37.47.74.72,1.11.26.4.53.8.8,1.19.28.4.56.8.85,1.19.45.63.91,1.24,1.39,1.85.2.26.41.52.62.78.35.43.7.86,1.05,1.29.11.13.22.25.33.38.74.86,1.49,1.7,2.27,2.52.16.17.31.33.47.5.43.45.87.89,1.31,1.32.03.03.06.06.09.09.93.91,1.89,1.78,2.88,2.63.1.08.19.17.29.25,1.56,1.34,3.19,2.6,4.88,3.79.04.03.08.06.12.08.57.4,1.15.79,1.73,1.18,0,0,0,0,.01,0,10.28,6.73,22.54,10.67,35.68,10.67h297.71c36.02,0,65.49-29.47,65.49-65.49v-82.47h0Z"/></g></svg>