<?xml version="1.0" encoding="UTF-8"?><svg id="Layer_1" xmlns="http://www.w3.org/2000/svg" xmlns:xlink="http://www.w3.org/1999/xlink" viewBox="0 0 428.53 395.57"><defs><style>.cls-1{fill:#3b8da5;}.cls-1,.cls-2,.cls-3,.cls-4,.cls-5,.cls-6{stroke-width:0px;}.cls-7{fill:#a5d6b1;}.cls-7,.cls-8,.cls-9,.cls-10{stroke:#edf7f8;stroke-miterlimit:10;stroke-width:3.04px;}.cls-2,.cls-10{fill:none;}.cls-3{fill:#9bd9eb;}.cls-11{clip-path:url(#clippath);}.cls-8{fill:#b09779;}.cls-9{fill:#5ab87c;}.cls-4{fill:#4e3f2c;}.cls-4,.cls-5{opacity:.2;}.cls-5{fill:#23566b;}.cls-6{fill:#4e3f36;opacity:.08;}</style><clipPath id="clippath"><circle class="cls-2" cx="200.89" cy="199.17" r="175"/></clipPath></defs><g class="cls-11"><rect class="cls-1" x="22.09" y="18.2" width="357.61" height="357.61" rx="81.37" ry="81.37"/><path class="cls-7" d="m309.25,144.51c-26.68-3.2-52.76-10.13-79.32-14.24-55.98-8.66-113.9-4.55-168.09,11.93-13.18,4.01-26.25,8.75-39.75,11.23v167.75c0,30.05,24.58,54.63,54.63,54.63h248.35c30.05,0,54.63-24.58,54.63-54.63v-181.52c-22.39,7.44-46.9,7.68-70.45,4.85Z"/><path class="cls-3" d="m302.86,143.66c-6.67-.94-13.31-2.08-19.94-3.33-9.06,10.09-17,21.03-22.91,33.24-8.71,17.98-12.77,38.23-23.76,54.92-16.56,25.15-46.37,38.37-75.74,45.04-29.37,6.67-59.84,8.15-88.76,16.56-17.55,5.1-34.29,12.84-49.66,22.73v8.36c0,30.05,24.58,54.63,54.63,54.63h147.98c2.85-20.32,4.73-41.04,16-57.85,10.11-15.09,26.34-24.69,40.8-35.68,14.47-10.99,28.4-25.42,30.13-43.5,1.79-18.72-9.88-35.89-13.65-54.31-2.79-13.66-.93-28.15,4.88-40.81Z"/><path class="cls-5" d="m46.77,366.79c42.22-28.16,87.65-51.5,135.14-69.38,30.5-11.48,63.92-22.2,83.11-48.54,13.52-18.56,17.73-42.09,21.58-64.72,2.38-13.97,4.75-27.94,7.13-41.91-3.61-.6-7.21-1.24-10.8-1.91-9.06,10.09-17,21.03-22.91,33.24-8.71,17.98-12.77,38.23-23.76,54.92-16.56,25.15-46.37,38.37-75.74,45.04-29.37,6.67-59.84,8.15-88.76,16.56-17.55,5.1-34.29,12.84-49.66,22.73v8.36c0,19.01,9.84,35.82,24.68,45.61Z"/><path class="cls-10" d="m302.86,143.66c-6.67-.94-13.31-2.08-19.94-3.33-9.06,10.09-17,21.03-22.91,33.24-8.71,17.98-12.77,38.23-23.76,54.92-16.56,25.15-46.37,38.37-75.74,45.04-29.37,6.67-59.84,8.15-88.76,16.56-17.55,5.1-34.29,12.84-49.66,22.73v8.36c0,30.05,24.58,54.63,54.63,54.63h147.98c2.85-20.32,4.73-41.04,16-57.85,10.11-15.09,26.34-24.69,40.8-35.68,14.47-10.99,28.4-25.42,30.13-43.5,1.79-18.72-9.88-35.89-13.65-54.31-2.79-13.66-.93-28.15,4.88-40.81Z"/><path class="cls-9" d="m204.55,322.37c-2.04,0-4.04.32-6.02.71-1.82.36-3.64.79-5.47,1.09-1.36.23-2.71.52-4.04.85-5.1,1.28-9.99,3.24-14.82,5.28-5.45,2.3-10.72,5.06-15.66,8.36-6.75,4.52-21.46,16.94-23.93,19.57-.18.19-.83.9-1.15.74-.31-.16-.17-1.08,0-1.82,3.15-8.16,5.5-14.13,7.17-18.35.07-.17.13-.34.2-.51,1.95-4.79,3.77-9.64,5.82-14.39.1-.24.21-.48.32-.71.19-.44.38-.88.58-1.32,2.86-6.33,5.85-12.59,9.04-18.75,1.73-3.35,3.53-6.66,5.4-9.94,3.65-6.4,7.33-12.79,11.16-19.08.79-1.3,1.59-2.59,2.39-3.88,1.41-2.26,2.82-4.52,4.25-6.77,1.89-2.96,3.82-5.88,5.89-8.73,2.47-3.39,4.83-6.88,6.48-10.8.21-.5.41-1,.38-1.45-.02-.24-.1-.45-.28-.65-.51-.55-1.28-.07-1.87.25-2.32,1.27-4.66,2.51-6.91,3.89-1.78,1.09-3.51,2.28-5.12,3.64-.07.06-.15.11-.22.17l-.23.17s0,0,0,0c0,0,0,0,0,0h0c-1.78,1.05-3.49,2.23-5.13,3.47-1.76,1.33-3.44,2.75-5.08,4.21-2.88,2.57-5.87,5.04-8.67,7.72-.28.27-.56.54-.83.81-1.37,1.36-2.69,2.78-3.92,4.31-.18.22-.36.44-.53.65-2.18,2.64-4.53,5.15-6.67,7.82-.88,1.1-1.75,2.22-2.6,3.35-2.68,3.58-5.21,7.27-7.67,11.02-.36.55-.72,1.11-1.08,1.66-4.85,7.59-9.03,15.55-12.47,23.84-2.16,5.19-4.18,10.44-5.9,15.81-.68,2.12-1.31,4.26-1.88,6.41-.03.13-.07.25-.1.38-.74,2.91-1.18,5.91-2.14,8.77-.97-2.88-1.41-5.92-2.16-8.85-.03-.1-.05-.2-.08-.3-.48-1.83-1.01-3.65-1.57-5.45-1.78-5.7-3.92-11.28-6.2-16.78-3.44-8.27-7.6-16.21-12.44-23.78-.37-.57-.74-1.15-1.11-1.72-2.47-3.76-4.99-7.46-7.68-11.04-.84-1.12-1.7-2.23-2.58-3.33-2.14-2.67-4.49-5.17-6.67-7.82-.18-.22-.36-.43-.53-.65-1.22-1.52-2.54-2.94-3.92-4.31-3.03-3-6.33-5.7-9.5-8.53-1.6-1.42-3.24-2.81-4.95-4.11-1.68-1.28-3.43-2.49-5.26-3.57h0s0,0,0,0c0,0,0,0,0,0l-.23-.17c-.07-.06-.15-.11-.22-.17-1.61-1.36-3.34-2.55-5.12-3.64-2.25-1.38-4.59-2.62-6.91-3.89-.59-.33-1.36-.8-1.87-.25-.19.21-.27.45-.28.71-.01.43.18.91.38,1.39,1.64,3.92,4.01,7.41,6.48,10.8,1.98,2.71,3.83,5.5,5.64,8.32,1.52,2.38,3.01,4.78,4.51,7.17,1.05,1.68,2.08,3.36,3.1,5.06,3.57,5.91,7.02,11.91,10.44,17.9,1.96,3.43,3.83,6.89,5.64,10.39,3.1,6.01,6.01,12.12,8.8,18.29.86,1.91,1.68,3.84,2.47,5.78.15.36.3.73.44,1.09.6,1.48,1.19,2.97,1.78,4.46.25.64.51,1.29.76,1.93.42,1.05.84,2.11,1.27,3.16.07.17.13.34.2.51,2.33,5.79,6.33,19.7,6.32,19.69-.95.13-16.11-14.41-24.23-19.84-4.94-3.3-10.21-6.06-15.66-8.36-4.81-2.03-9.69-3.99-14.77-5.27-1.35-.34-2.71-.63-4.09-.86-1.85-.31-3.68-.74-5.52-1.1-1.97-.39-3.95-.7-5.97-.7h0s0,0,0,0v1.66h0c1.12.41,2.06,1.08,2.96,1.8.9.72,1.77,1.5,2.74,2.13,6.07,3.92,12.02,8.02,17.82,12.31,4.44,3.29,8.79,6.69,13.04,10.22,5.46,4.54,10.73,9.29,15.76,14.27,0,0,0,0,.01.01,0,0,0,0,0,0,4.85,4.8,9.49,9.83,13.89,15.09,14.12.09,29.13-.24,45.85-.24,1.54,0,3.07-.03,4.6-.09,4.44-5.28,9.11-10.32,14-15.13,4.92-4.85,10.06-9.49,15.39-13.91,4.24-3.52,8.58-6.92,13.01-10.2,5.81-4.3,11.77-8.41,17.85-12.33.97-.63,1.84-1.41,2.74-2.13.9-.72,1.84-1.39,2.96-1.8v-1.66Z"/><path class="cls-4" d="m168.22,258.84c-.97.79-1.92,1.61-2.85,2.43-2.78,2.47-5.67,4.85-8.36,7.42-.27.26-.54.52-.8.78-1.33,1.31-2.6,2.68-3.78,4.14-.17.21-.34.42-.52.63-2.1,2.54-4.37,4.95-6.43,7.52-.85,1.06-1.69,2.14-2.5,3.22-2.59,3.44-5.02,6.99-7.39,10.59-.35.53-.7,1.06-1.04,1.6-4.68,7.3-8.71,14.96-12.03,22.93-2.08,4.99-4.04,10.04-5.69,15.21-.65,2.04-1.26,4.09-1.81,6.17-.03.12-.06.24-.09.37-.71,2.8-1.14,5.69-2.06,8.43-.93-2.77-1.36-5.69-2.09-8.52-.02-.09-.05-.19-.07-.28-.47-1.76-.98-3.51-1.52-5.24-1.72-5.49-3.78-10.85-5.98-16.13-3.32-7.95-7.33-15.59-12-22.87-.35-.55-.71-1.1-1.07-1.65-2.38-3.61-4.82-7.17-7.41-10.62-.81-1.08-1.64-2.15-2.48-3.2-2.06-2.57-4.33-4.98-6.43-7.52-.17-.21-.35-.42-.52-.63-1.18-1.46-2.45-2.83-3.78-4.14-2.92-2.88-5.92-5.57-8.98-8.29-1.26-1.12-2.5-2.29-3.83-3.34,10.27,16.95,19.68,34.44,27.88,52.6,5.02,11.12,9.46,22.46,13.36,34.03,3.67,10.88,6.73,21.94,9.38,33.12.01,0,.03,0,.04,0v1.16c3.45-.03,6.97-.07,10.57-.1v-1.49c2.61-10.98,5.63-21.85,9.24-32.54,3.9-11.57,8.35-22.92,13.36-34.03,8.09-17.93,17.59-35.02,27.71-51.76Z"/><path class="cls-8" d="m114.87,338.98v-60.41c4.77-1.04,8.37-5.3,8.37-10.37v-52.78c0-5.59-4.37-10.2-9.86-10.59v-.17c-5.8.05-10.53,4.8-10.53,10.62v52.78c0,5.07,3.6,9.33,8.37,10.37v60.55"/><path class="cls-10" d="m204.55,322.37c-2.04,0-4.04.32-6.02.71-1.82.36-3.64.79-5.47,1.09-1.36.23-2.71.52-4.04.85-5.1,1.28-9.99,3.24-14.82,5.28-5.45,2.3-10.72,5.06-15.66,8.36-6.75,4.52-21.46,16.94-23.93,19.57-.18.19-.83.9-1.15.74-.31-.16-.17-1.08,0-1.82,3.15-8.16,5.5-14.13,7.17-18.35.07-.17.13-.34.2-.51,1.95-4.79,3.77-9.64,5.82-14.39.1-.24.21-.48.32-.71.19-.44.38-.88.58-1.32,2.86-6.33,5.85-12.59,9.04-18.75,1.73-3.35,3.53-6.66,5.4-9.94,3.65-6.4,7.33-12.79,11.16-19.08.79-1.3,1.59-2.59,2.39-3.88,1.41-2.26,2.82-4.52,4.25-6.77,1.89-2.96,3.82-5.88,5.89-8.73,2.47-3.39,4.83-6.88,6.48-10.8.21-.5.41-1,.38-1.45-.02-.24-.1-.45-.28-.65-.51-.55-1.28-.07-1.87.25-2.32,1.27-4.66,2.51-6.91,3.89-1.78,1.09-3.51,2.28-5.12,3.64-.07.06-.15.11-.22.17l-.23.17s0,0,0,0c0,0,0,0,0,0h0c-1.78,1.05-3.49,2.23-5.13,3.47-1.76,1.33-3.44,2.75-5.08,4.21-2.88,2.57-5.87,5.04-8.67,7.72-.28.27-.56.54-.83.81-1.37,1.36-2.69,2.78-3.92,4.31-.18.22-.36.44-.53.65-2.18,2.64-4.53,5.15-6.67,7.82-.88,1.1-1.75,2.22-2.6,3.35-2.68,3.58-5.21,7.27-7.67,11.02-.36.55-.72,1.11-1.08,1.66-4.85,7.59-9.03,15.55-12.47,23.84-2.16,5.19-4.18,10.44-5.9,15.81-.68,2.12-1.31,4.26-1.88,6.41-.03.13-.07.25-.1.38-.74,2.91-1.18,5.91-2.14,8.77-.97-2.88-1.41-5.92-2.16-8.85-.03-.1-.05-.2-.08-.3-.48-1.83-1.01-3.65-1.57-5.45-1.78-5.7-3.92-11.28-6.2-16.78-3.44-8.27-7.6-16.21-12.44-23.78-.37-.57-.74-1.15-1.11-1.72-2.47-3.76-4.99-7.46-7.68-11.04-.84-1.12-1.7-2.23-2.58-3.33-2.14-2.67-4.49-5.17-6.67-7.82-.18-.22-.36-.43-.53-.65-1.22-1.52-2.54-2.94-3.92-4.31-3.03-3-6.33-5.7-9.5-8.53-1.6-1.42-3.24-2.81-4.95-4.11-1.68-1.28-3.43-2.49-5.26-3.57h0s0,0,0,0c0,0,0,0,0,0l-.23-.17c-.07-.06-.15-.11-.22-.17-1.61-1.36-3.34-2.55-5.12-3.64-2.25-1.38-4.59-2.62-6.91-3.89-.59-.33-1.36-.8-1.87-.25-.19.21-.27.45-.28.71-.01.43.18.91.38,1.39,1.64,3.92,4.01,7.41,6.48,10.8,1.98,2.71,3.83,5.5,5.64,8.32,1.52,2.38,3.01,4.78,4.51,7.17,1.05,1.68,2.08,3.36,3.1,5.06,3.57,5.91,7.02,11.91,10.44,17.9,1.96,3.43,3.83,6.89,5.64,10.39,3.1,6.01,6.01,12.12,8.8,18.29.86,1.91,1.68,3.84,2.47,5.78.15.36.3.73.44,1.09.6,1.48,1.19,2.97,1.78,4.46.25.64.51,1.29.76,1.93.42,1.05.84,2.11,1.27,3.16.07.17.13.34.2.51,2.33,5.79,6.33,19.7,6.32,19.69-.95.13-16.11-14.41-24.23-19.84-4.94-3.3-10.21-6.06-15.66-8.36-4.81-2.03-9.69-3.99-14.77-5.27-1.35-.34-2.71-.63-4.09-.86-1.85-.31-3.68-.74-5.52-1.1-1.97-.39-3.95-.7-5.97-.7h0s0,0,0,0v1.66h0c1.12.41,2.06,1.08,2.96,1.8.9.72,1.77,1.5,2.74,2.13,6.07,3.92,12.02,8.02,17.82,12.31,4.44,3.29,8.79,6.69,13.04,10.22,5.46,4.54,10.73,9.29,15.76,14.27,0,0,0,0,.01.01,0,0,0,0,0,0,4.85,4.8,9.49,9.83,13.89,15.09,14.12.09,29.13-.24,45.85-.24,1.54,0,3.07-.03,4.6-.09,4.44-5.28,9.11-10.32,14-15.13,4.92-4.85,10.06-9.49,15.39-13.91,4.24-3.52,8.58-6.92,13.01-10.2,5.81-4.3,11.77-8.41,17.85-12.33.97-.63,1.84-1.41,2.74-2.13.9-.72,1.84-1.39,2.96-1.8v-1.66Z"/><path class="cls-9" d="m159.1,159.82c0-6.78-9.68-12.28-21.62-12.28,0,0-.01,0-.02,0-.35-6.61-9.88-11.91-21.61-11.91s-21.62,5.5-21.62,12.28c0,.38.03.75.09,1.11-6.73,2.08-11.31,6.14-11.31,10.8,0,6.78,9.68,12.28,21.62,12.28,0,0,.01,0,.02,0,0,.12-.02.25-.02.37,0,6.78,9.68,12.28,21.62,12.28s21.62-5.5,21.62-12.28c0-.62-.08-1.22-.24-1.82,6.81-2.07,11.45-6.14,11.45-10.84Z"/><path class="cls-6" d="m115.2,167.43c1.58-4.59,4.76-8.63,5.57-13.42,1.13-6.64-2.46-12.95-6.68-18.38-11.12.51-19.86,5.79-19.86,12.23,0,.38.03.75.09,1.11-6.73,2.08-11.31,6.13-11.31,10.8,0,6.78,9.68,12.28,21.62,12.28h.02c0,.12-.02.25-.02.37,0,4.25,3.8,7.99,9.57,10.2-.51-5.11-.67-10.35,1-15.19Z"/><path class="cls-10" d="m159,159.82c0-6.78-9.68-12.28-21.62-12.28,0,0-.01,0-.02,0-.35-6.61-9.88-11.91-21.61-11.91s-21.62,5.5-21.62,12.28c0,.38.03.75.09,1.11-6.73,2.08-11.31,6.14-11.31,10.8,0,6.78,9.68,12.28,21.62,12.28,0,0,.01,0,.02,0,0,.12-.02.25-.02.37,0,6.78,9.68,12.28,21.62,12.28s21.62-5.5,21.62-12.28c0-.62-.08-1.22-.24-1.82,6.81-2.07,11.45-6.14,11.45-10.84Z"/><path class="cls-9" d="m231.94,191.27c0-5.42-7.74-9.82-17.28-9.82,0,0,0,0-.01,0-.28-5.28-7.9-9.52-17.27-9.52s-17.28,4.39-17.28,9.82c0,.3.03.6.07.89-5.38,1.66-9.04,4.9-9.04,8.63,0,5.42,7.74,9.82,17.28,9.82,0,0,0,0,.01,0,0,.1-.01.2-.01.3,0,5.42,7.74,9.82,17.28,9.82s17.28-4.39,17.28-9.82c0-.49-.07-.98-.19-1.45,5.45-1.65,9.15-4.91,9.15-8.66Z"/><path class="cls-6" d="m196.86,197.35c1.27-3.67,3.8-6.9,4.45-10.73.9-5.31-1.97-10.35-5.34-14.69-8.88.41-15.88,4.62-15.88,9.78,0,.3.03.6.07.89-5.38,1.66-9.04,4.9-9.04,8.63,0,5.42,7.74,9.82,17.28,9.82h.01c0,.1-.01.2-.01.3,0,3.39,3.04,6.39,7.65,8.15-.4-4.09-.54-8.27.8-12.14Z"/><path class="cls-10" d="m231.88,191.27c0-5.42-7.74-9.82-17.28-9.82,0,0,0,0-.01,0-.28-5.28-7.9-9.52-17.27-9.52s-17.28,4.39-17.28,9.82c0,.3.03.6.07.89-5.38,1.66-9.04,4.9-9.04,8.63,0,5.42,7.74,9.82,17.28,9.82,0,0,0,0,.01,0,0,.1-.01.2-.01.3,0,5.42,7.74,9.82,17.28,9.82s17.28-4.39,17.28-9.82c0-.49-.07-.98-.19-1.45,5.45-1.65,9.15-4.91,9.15-8.66Z"/></g></svg>