<?xml version="1.0" encoding="UTF-8"?><svg id="Layer_1" xmlns="http://www.w3.org/2000/svg" xmlns:xlink="http://www.w3.org/1999/xlink" viewBox="0 0 428.53 395.57"><defs><style>.cls-1{fill:#3b8da5;}.cls-1,.cls-2,.cls-3,.cls-4,.cls-5,.cls-6,.cls-7{stroke-width:0px;}.cls-8{fill:#a5d6b1;}.cls-8,.cls-9,.cls-10,.cls-11{stroke:#edf7f8;stroke-miterlimit:10;stroke-width:3.04px;}.cls-2,.cls-9{fill:#5ab87c;}.cls-3{fill:#171210;}.cls-3,.cls-7{opacity:.08;}.cls-4,.cls-10{fill:none;}.cls-5{fill:#b09779;}.cls-6{fill:#edf7f8;}.cls-12{clip-path:url(#clippath);}.cls-11,.cls-7{fill:#4e3f36;}</style><clipPath id="clippath"><circle class="cls-4" cx="209.71" cy="199.17" r="175"/></clipPath></defs><g class="cls-12"><path class="cls-1" d="m329.15,16.98c30.67,0,55.76,25.09,55.76,55.76v253.59c0,30.67-25.09,55.76-55.76,55.76H75.76c-30.67,0-55.76-25.09-55.76-55.76V72.74c0-30.67,25.09-55.76,55.76-55.76"/><rect class="cls-6" x="133.12" y="150.97" width="59.85" height="144.59" rx="10.54" ry="10.54"/><path class="cls-9" d="m284.63,193.13c0-4.87-6.95-8.82-15.53-8.82,0,0,0,0-.01,0-.25-4.75-7.1-8.56-15.52-8.56s-15.53,3.95-15.53,8.82c0,.27.03.54.07.8-4.84,1.49-8.12,4.41-8.12,7.75,0,4.87,6.95,8.82,15.53,8.82,0,0,0,0,.01,0,0,.09-.01.18-.01.27,0,4.87,6.95,8.82,15.53,8.82s15.53-3.95,15.53-8.82c0-.44-.06-.88-.17-1.3,4.89-1.49,8.22-4.41,8.22-7.79Z"/><path class="cls-7" d="m253.1,198.59c1.14-3.3,3.42-6.2,4-9.64.81-4.77-1.77-9.31-4.8-13.2-7.99.37-14.27,4.16-14.27,8.79,0,.27.02.54.07.8-4.84,1.49-8.12,4.41-8.12,7.75,0,4.87,6.95,8.82,15.53,8.82h.01c0,.09-.01.18-.01.27,0,3.05,2.73,5.74,6.87,7.32-.36-3.67-.48-7.44.72-10.91Z"/><path class="cls-10" d="m284.5,193.13c0-4.87-6.95-8.82-15.53-8.82,0,0,0,0-.01,0-.25-4.75-7.1-8.56-15.52-8.56s-15.53,3.95-15.53,8.82c0,.27.03.54.07.8-4.84,1.49-8.12,4.41-8.12,7.75,0,4.87,6.95,8.82,15.53,8.82,0,0,0,0,.01,0,0,.09-.01.18-.01.27,0,4.87,6.95,8.82,15.53,8.82s15.53-3.95,15.53-8.82c0-.44-.06-.88-.17-1.3,4.89-1.49,8.22-4.41,8.22-7.79Z"/><rect class="cls-6" x="230.19" y="199.17" width="59.85" height="144.59" rx="10.54" ry="10.54"/><path class="cls-3" d="m155.14,304.96v-141.96c0-4.94,4.04-8.98,8.97-8.98h-18.98c-4.94,0-8.97,4.04-8.97,8.98v141.96c0,4.94,4.04,8.98,8.97,8.98h18.98c-4.94,0-8.97-4.04-8.97-8.98Z"/><rect class="cls-6" x="298.07" y="150.97" width="59.85" height="144.59" rx="10.54" ry="10.54"/><path class="cls-3" d="m252.21,353.16v-141.96c0-4.94,4.04-8.98,8.97-8.98h-18.98c-4.94,0-8.97,4.04-8.97,8.98v141.96c0,4.94,4.04,8.98,8.97,8.98h18.98c-4.94,0-8.97-4.04-8.97-8.98Z"/><path class="cls-3" d="m320.09,304.96v-141.96c0-4.94,4.04-8.98,8.97-8.98h-18.98c-4.94,0-8.97,4.04-8.97,8.98v141.96c0,4.94,4.04,8.98,8.97,8.98h18.98c-4.94,0-8.97-4.04-8.97-8.98Z"/><path class="cls-5" d="m384.92,256.08c-13.19.58-26.04,2.21-38.53,6.37-10.11,3.36-19.64,8.32-29.8,11.56-25.14,8.03-52.43,5.09-78.3-.08-2.39-.48-4.77-.97-7.16-1.49-.54-.12-1.08-.24-1.63-.36-1.88-.41-3.75-.82-5.63-1.25-.45-.1-.89-.21-1.34-.31-2.01-.46-4.02-.93-6.03-1.41-.23-.06-.47-.11-.7-.17-2.25-.54-4.5-1.08-6.75-1.64-15.08-3.72-30.09-7.75-45.18-11.43-.03,0-.06-.01-.08-.02-2-.49-4-.97-6-1.44-.43-.1-.86-.2-1.29-.3-1.89-.44-3.78-.88-5.67-1.31-.22-.05-.44-.1-.65-.15-.32-.07-.65-.14-.97-.21h0c-6.59-1.47-12.91-3.16-19.55-4.36-36.4-6.61-74.75-8.17-109.65,4.06v73.75c0,8.64,1.8,16.86,5.34,24.18.01.03.1.21.12.24.14.29.25.51.39.8.21.41.44.86.66,1.27.16.3.35.64.51.93.32.58.64,1.12.98,1.69.2.33.5.8.7,1.13.2.32.59.91.8,1.22.22.34.52.75.75,1.08.24.34.55.76.8,1.1.38.53.43.57.83,1.08.17.22.41.51.58.73.3.37.61.74.91,1.1.09.11.54.62.63.73.63.73.78.87,1.44,1.57.13.14.38.39.51.53.37.38.71.71,1.08,1.08.03.02.43.41.46.44.79.77,1.18,1.1,2.02,1.82.08.07.45.38.53.45,1.33,1.14,2.42,1.94,3.85,2.95.03.02.17.12.2.14.49.34.82.56,1.32.89,0,0,.12.08.12.08,1.49.98,3.01,1.85,4.6,2.68.02,0,.12.06.13.07.94.49,1.85.92,2.82,1.36.12.06.27.12.39.17.48.21.93.4,1.42.6.1.04.33.13.43.17.84.34,1.57.58,2.42.88.29.1.58.21.87.31.4.13.83.25,1.24.38.61.19,1.22.3,1.84.47.33.09.64.21.98.29.48.12.99.23,1.47.34.29.06.56.12.85.18.72.15,1.44.26,2.17.38.25.04.51.08.76.11.67.1,1.33.15,2,.23.14.02.29.04.43.05.81.08,1.62.14,2.43.19.2.01.41.02.61.03.84.04,1.68.06,2.53.06h253.42c30.66,0,55.75-25.1,55.75-55.78l-.2-70.24h0Z"/><path class="cls-2" d="m366.74,343.49c0-4.91-7-8.89-15.64-8.89,0,0,0,0-.01,0-.25-4.78-7.15-8.62-15.63-8.62s-15.64,3.98-15.64,8.89c0,.27.03.54.07.81-4.87,1.51-8.18,4.44-8.18,7.81,0,4.91,7,8.89,15.64,8.89,0,0,0,0,.01,0,0,.09-.01.18-.01.27,0,4.91,7,8.89,15.64,8.89s15.64-3.98,15.64-8.89c0-.45-.06-.89-.17-1.31,4.93-1.5,8.28-4.45,8.28-7.84Z"/><path class="cls-7" d="m334.98,348.99c1.15-3.32,3.44-6.25,4.03-9.71.82-4.8-1.78-9.37-4.84-13.3-8.04.37-14.37,4.19-14.37,8.85,0,.27.02.54.07.81-4.87,1.51-8.18,4.44-8.18,7.81,0,4.91,7,8.89,15.64,8.89h.01c0,.09-.01.18-.01.27,0,3.07,2.75,5.78,6.92,7.38-.37-3.7-.49-7.49.72-10.99Z"/><path class="cls-8" d="m385.12,326.32l-.2-70.24c-13.19.58-26.04,2.21-38.53,6.37-10.11,3.36-19.64,8.32-29.8,11.56-2.16.69-4.33,1.28-6.52,1.81-.27-.01-.53-.05-.8-.05-2.66,0-5.2.63-7.57,1.73-.28.04-.56.1-.84.14-.02.1-.04.2-.06.3-8.45,4.46-14.43,15.37-14.43,28.14,0,7.18,1.9,13.77,5.05,18.97-.69.36-1.36.75-2.01,1.16-25.04,3.69-43.75,18.33-43.75,35.84,0,20.3,25.13,36.75,56.12,36.75,23.07,0,42.87-9.11,51.5-22.14,18.78-9,31.82-28.22,31.82-50.34Z"/><path class="cls-11" d="m238.09,273.93c-2.39-.48-4.77-.97-7.16-1.49-.54-.12-1.08-.24-1.63-.36-1.88-.41-3.76-.82-5.63-1.25-.45-.1-.89-.21-1.34-.31-2.01-.46-4.02-.93-6.03-1.41-.23-.06-.47-.11-.7-.17-2.25-.54-4.5-1.08-6.75-1.64-15.08-3.72-30.09-7.75-45.18-11.43-.03,0-.06-.01-.08-.02-.95-.23-1.91-.46-2.86-.69l-104.6,123.3c.48.18.95.37,1.43.54.29.1.58.2.87.3.4.13.81.27,1.21.39.61.19,1.23.36,1.85.53.33.09.67.17,1,.25.48.12.96.23,1.44.33.29.06.57.13.86.19.72.15,1.45.27,2.17.39.25.04.5.08.75.11.67.1,1.33.18,2.01.26.14.02.29.04.43.05.81.08,1.62.14,2.43.19.2.01.41.02.61.03.84.04,1.68.06,2.53.06h129.12l87.84-103.54c-18.09,1.46-36.69-1.04-54.61-4.62Z"/><path class="cls-6" d="m135.41,382.09l85.37-111.93c-1.49-.35-2.99-.69-4.48-1.05-.23-.06-.47-.11-.7-.17-.61-.15-1.22-.3-1.83-.44l-86.64,113.59h8.27Z"/><path class="cls-10" d="m384.87,255.94c-13.19.58-26.04,2.21-38.53,6.37-10.11,3.36-19.64,8.32-29.8,11.56-25.14,8.03-52.43,5.09-78.3-.08-2.39-.48-4.77-.97-7.16-1.49-.54-.12-1.08-.24-1.63-.36-1.88-.41-3.75-.82-5.63-1.25-.45-.1-.89-.21-1.34-.31-2.01-.46-4.02-.93-6.03-1.41-.23-.06-.47-.11-.7-.17-2.25-.54-4.5-1.08-6.75-1.64-15.08-3.72-30.09-7.75-45.18-11.43-.03,0-.06-.01-.08-.02-2-.49-4-.97-6-1.44-.43-.1-.86-.2-1.29-.3-1.89-.44-3.78-.88-5.67-1.31-.22-.05-.44-.1-.65-.15-.32-.07-.65-.14-.97-.21h0c-6.59-1.47-12.91-3.16-19.55-4.36-36.4-6.61-74.75-8.17-109.65,4.06v73.75c0,8.64,1.8,16.86,5.34,24.18.01.03.1.21.12.24.14.29.25.51.39.8.21.41.44.86.66,1.27.16.3.35.64.51.93.32.58.64,1.12.98,1.69.2.33.5.8.7,1.13.2.32.59.91.8,1.22.22.34.52.75.75,1.08.24.34.55.76.8,1.1.38.53.43.57.83,1.08.17.22.41.51.58.73.3.37.61.74.91,1.1.09.11.54.62.63.73.63.73.78.87,1.44,1.57.13.14.38.39.51.53.37.38.71.71,1.08,1.08.03.02.43.41.46.44.79.77,1.18,1.1,2.02,1.82.08.07.45.38.53.45,1.33,1.14,2.42,1.94,3.85,2.95.03.02.17.12.2.14.49.34.82.56,1.32.89,0,0,.12.08.12.08,1.49.98,3.01,1.85,4.6,2.68.02,0,.12.06.13.07.94.49,1.85.92,2.82,1.36.12.06.27.12.39.17.48.21.93.4,1.42.6.1.04.33.13.43.17.84.34,1.57.58,2.42.88.29.1.58.21.87.31.4.13.83.25,1.24.38.61.19,1.22.3,1.84.47.33.09.64.21.98.29.48.12.99.23,1.47.34.29.06.56.12.85.18.72.15,1.44.26,2.17.38.25.04.51.08.76.11.67.1,1.33.15,2,.23.14.02.29.04.43.05.81.08,1.62.14,2.43.19.2.01.41.02.61.03.84.04,1.68.06,2.53.06h253.42c30.66,0,55.75-25.1,55.75-55.78l-.2-70.24h0Z"/><path class="cls-9" d="m195.23,148.95c0-5.76-8.22-10.43-18.36-10.43,0,0,0,0-.01,0-.29-5.61-8.39-10.11-18.35-10.11s-18.36,4.67-18.36,10.43c0,.32.03.63.08.95-5.72,1.77-9.6,5.21-9.6,9.17,0,5.76,8.22,10.43,18.36,10.43,0,0,0,0,.01,0,0,.11-.01.21-.01.32,0,5.76,8.22,10.43,18.36,10.43s18.36-4.67,18.36-10.43c0-.52-.07-1.04-.2-1.54,5.79-1.76,9.72-5.22,9.72-9.2Z"/><path class="cls-7" d="m157.95,155.41c1.35-3.9,4.04-7.33,4.73-11.4.96-5.64-2.09-11-5.68-15.61-9.44.43-16.87,4.91-16.87,10.39,0,.32.03.63.08.95-5.72,1.77-9.6,5.21-9.6,9.17,0,5.76,8.22,10.43,18.36,10.43h.01c0,.11-.01.21-.01.32,0,3.61,3.23,6.79,8.13,8.66-.43-4.34-.57-8.79.85-12.9Z"/><path class="cls-10" d="m195.17,148.95c0-5.76-8.22-10.43-18.36-10.43,0,0,0,0-.01,0-.29-5.61-8.39-10.11-18.35-10.11s-18.36,4.67-18.36,10.43c0,.32.03.63.08.95-5.72,1.77-9.6,5.21-9.6,9.17,0,5.76,8.22,10.43,18.36,10.43,0,0,0,0,.01,0,0,.11-.01.21-.01.32,0,5.76,8.22,10.43,18.36,10.43s18.36-4.67,18.36-10.43c0-.52-.07-1.04-.2-1.54,5.79-1.76,9.72-5.22,9.72-9.2Z"/><path class="cls-9" d="m213.17,220.53c0-4.61-6.58-8.35-14.7-8.35,0,0,0,0-.01,0-.24-4.5-6.72-8.1-14.69-8.1s-14.7,3.74-14.7,8.35c0,.26.02.51.06.76-4.58,1.41-7.69,4.17-7.69,7.34,0,4.61,6.58,8.35,14.7,8.35,0,0,0,0,.01,0,0,.08-.01.17-.01.25,0,4.61,6.58,8.35,14.7,8.35s14.7-3.74,14.7-8.35c0-.42-.06-.83-.16-1.23,4.63-1.41,7.79-4.18,7.79-7.37Z"/><path class="cls-7" d="m183.32,225.71c1.08-3.12,3.23-5.87,3.79-9.13.77-4.51-1.67-8.81-4.55-12.5-7.56.35-13.51,3.93-13.51,8.32,0,.26.02.51.06.76-4.58,1.41-7.69,4.17-7.69,7.34,0,4.61,6.58,8.35,14.7,8.35h.01c0,.08-.01.17-.01.25,0,2.89,2.58,5.43,6.51,6.93-.34-3.48-.46-7.04.68-10.33Z"/><path class="cls-10" d="m213.05,220.53c0-4.61-6.58-8.35-14.7-8.35,0,0,0,0-.01,0-.24-4.5-6.72-8.1-14.69-8.1s-14.7,3.74-14.7,8.35c0,.26.02.51.06.76-4.58,1.41-7.69,4.17-7.69,7.34,0,4.61,6.58,8.35,14.7,8.35,0,0,0,0,.01,0,0,.08-.01.17-.01.25,0,4.61,6.58,8.35,14.7,8.35s14.7-3.74,14.7-8.35c0-.42-.06-.83-.16-1.23,4.63-1.41,7.79-4.18,7.79-7.37Z"/><path class="cls-9" d="m363.76,226.59c0-5.14-7.34-9.31-16.4-9.31,0,0,0,0-.01,0-.26-5.01-7.5-9.03-16.38-9.03s-16.4,4.17-16.4,9.31c0,.28.03.57.07.84-5.11,1.58-8.57,4.65-8.57,8.19,0,5.14,7.34,9.31,16.4,9.31,0,0,0,0,.01,0,0,.09-.01.19-.01.28,0,5.14,7.34,9.31,16.4,9.31s16.4-4.17,16.4-9.31c0-.47-.06-.93-.18-1.38,5.17-1.57,8.68-4.66,8.68-8.22Z"/><path class="cls-7" d="m330.47,232.36c1.2-3.48,3.61-6.54,4.22-10.18.86-5.03-1.86-9.82-5.07-13.94-8.43.39-15.06,4.39-15.06,9.27,0,.28.03.57.07.84-5.11,1.58-8.57,4.65-8.57,8.19,0,5.14,7.34,9.31,16.4,9.31h.01c0,.09-.01.19-.01.28,0,3.22,2.88,6.06,7.26,7.73-.38-3.88-.51-7.85.75-11.52Z"/><path class="cls-10" d="m363.63,226.59c0-5.14-7.34-9.31-16.4-9.31,0,0,0,0-.01,0-.26-5.01-7.5-9.03-16.38-9.03s-16.4,4.17-16.4,9.31c0,.28.03.57.07.84-5.11,1.58-8.57,4.65-8.57,8.19,0,5.14,7.34,9.31,16.4,9.31,0,0,0,0,.01,0,0,.09-.01.19-.01.28,0,5.14,7.34,9.31,16.4,9.31s16.4-4.17,16.4-9.31c0-.47-.06-.93-.18-1.38,5.17-1.57,8.68-4.66,8.68-8.22Z"/></g></svg>