<?xml version="1.0" encoding="UTF-8"?><svg id="Layer_1" xmlns="http://www.w3.org/2000/svg" xmlns:xlink="http://www.w3.org/1999/xlink" viewBox="0 0 428.53 395.57"><defs><style>.cls-1{fill:#3b8da5;}.cls-1,.cls-2,.cls-3,.cls-4,.cls-5,.cls-6,.cls-7{stroke-width:0px;}.cls-8,.cls-9{fill:#a5d6b1;}.cls-8,.cls-9,.cls-10,.cls-11,.cls-12,.cls-13,.cls-14,.cls-15,.cls-16{stroke-miterlimit:10;}.cls-8,.cls-9,.cls-11,.cls-12,.cls-13,.cls-14,.cls-15,.cls-16{stroke:#edf7f8;}.cls-8,.cls-15,.cls-16{stroke-width:3.04px;}.cls-9,.cls-11,.cls-12,.cls-13,.cls-14{stroke-width:3.04px;}.cls-2,.cls-13{fill:#5ab87c;}.cls-3,.cls-6{opacity:.2;}.cls-3,.cls-7{fill:#4e3f36;}.cls-4,.cls-14{fill:none;}.cls-17{clip-path:url(#clippath-1);}.cls-10{stroke:#b09779;stroke-linecap:round;stroke-width:.61px;}.cls-10,.cls-5{fill:#edf7f8;}.cls-11,.cls-15{fill:#9bd9eb;}.cls-18{clip-path:url(#clippath);}.cls-12,.cls-16{fill:#b09779;}.cls-6{fill:#4e3f2c;}.cls-7{opacity:.08;}</style><clipPath id="clippath"><circle class="cls-4" cx="235.66" cy="199.17" r="175"/></clipPath><clipPath id="clippath-1"><ellipse class="cls-4" cx="-243.43" cy="199.24" rx="175" ry="175.07"/></clipPath></defs><g class="cls-18"><ellipse class="cls-1" cx="234.82" cy="199.17" rx="174.16" ry="175"/><path class="cls-11" d="m25.13,191.42c38.92-16.09,79.44-32.47,121.5-30.37,33.25,1.66,64.73,14.79,97.35,21.47,64.5,13.2,131.41.85,197.06,5.78,2.89.22,5.97.54,8.24,2.35,3.55,2.83,3.78,8.04,3.7,12.58-1.43,86.19-2.86,172.38-4.29,258.57-.09,5.54-.41,11.64-4.24,15.64-3.68,3.85-9.49,4.55-14.8,4.92-58.22,4.09-116.56-3.67-174.41-11.41-55.96-7.49-111.92-14.98-167.88-22.46-4.79-.64-9.8-1.37-13.7-4.22-5.84-4.26-7.65-12.03-9.05-19.12-15.43-78.13-30.87-156.26-46.3-234.4"/><path class="cls-13" d="m148.03,227.15c0-10.92-15.59-19.78-34.83-19.78,0,0-.02,0-.03,0-.56-10.65-15.92-19.18-34.81-19.18s-34.83,8.85-34.83,19.78c0,.61.06,1.2.15,1.79-10.85,3.35-18.21,9.88-18.21,17.38,0,10.92,15.59,19.78,34.83,19.78,0,0,.02,0,.03,0-.01.2-.03.4-.03.6,0,10.92,15.59,19.78,34.83,19.78s34.83-8.85,34.83-19.78c0-.99-.13-1.97-.38-2.92,10.97-3.33,18.44-9.89,18.44-17.45Z"/><path class="cls-9" d="m452.99,271.87c0-31.82-52-57.62-116.15-57.62s-116.15,25.8-116.15,57.62c0,6.82,2.41,13.37,6.8,19.44-36.15,9.46-60.27,26.46-60.27,45.87,0,29.71,56.48,53.79,126.16,53.79s126.16-24.08,126.16-53.79c0-7.28-3.41-14.22-9.56-20.56,26.24-10.56,43.02-26.68,43.02-44.75Z"/><path class="cls-13" d="m386.55,255.52c-2.04,0-4.04.32-6.02.71-1.82.36-3.64.79-5.47,1.09-1.36.23-2.71.52-4.04.85-5.1,1.28-9.99,3.24-14.82,5.28-5.45,2.3-10.72,5.06-15.66,8.36-6.75,4.52-21.46,16.94-23.93,19.57-.18.19-.83.9-1.15.74-.31-.16-.17-1.08,0-1.82,3.15-8.16,5.5-14.13,7.17-18.35.07-.17.13-.34.2-.51,1.95-4.79,3.77-9.64,5.82-14.39.1-.24.21-.48.32-.71.19-.44.38-.88.58-1.32,2.86-6.33,5.85-12.59,9.04-18.75,1.73-3.35,3.53-6.66,5.4-9.94,3.65-6.4,7.33-12.79,11.16-19.08.79-1.3,1.59-2.59,2.39-3.88,1.41-2.26,2.82-4.52,4.25-6.77,1.89-2.96,3.82-5.88,5.89-8.73,2.47-3.39,4.83-6.88,6.48-10.8.21-.5.41-1,.38-1.45-.02-.24-.1-.45-.28-.65-.51-.55-1.28-.07-1.87.25-2.32,1.27-4.66,2.51-6.91,3.89-1.78,1.09-3.51,2.28-5.12,3.64-.07.06-.15.11-.22.17l-.23.17s0,0,0,0c0,0,0,0,0,0h0c-1.78,1.05-3.49,2.23-5.13,3.47-1.76,1.33-3.44,2.75-5.08,4.21-2.88,2.57-5.87,5.04-8.67,7.72-.28.27-.56.54-.83.81-1.37,1.36-2.69,2.78-3.92,4.31-.18.22-.36.44-.53.65-2.18,2.64-4.53,5.15-6.67,7.82-.88,1.1-1.75,2.22-2.6,3.35-2.68,3.58-5.21,7.27-7.67,11.02-.36.55-.72,1.11-1.08,1.66-4.85,7.59-9.03,15.55-12.47,23.84-2.16,5.19-4.18,10.44-5.9,15.81-.68,2.12-1.31,4.26-1.88,6.41-.03.13-.07.25-.1.38-.74,2.91-1.18,5.91-2.14,8.77-.97-2.88-1.41-5.92-2.16-8.85-.03-.1-.05-.2-.08-.3-.48-1.83-1.01-3.65-1.57-5.45-1.78-5.7-3.92-11.28-6.2-16.78-3.44-8.27-7.6-16.21-12.44-23.78-.37-.57-.74-1.15-1.11-1.72-2.47-3.76-4.99-7.46-7.68-11.04-.84-1.12-1.7-2.23-2.58-3.33-2.14-2.67-4.49-5.17-6.67-7.82-.18-.22-.36-.43-.53-.65-1.22-1.52-2.54-2.94-3.92-4.31-3.03-3-6.33-5.7-9.5-8.53-1.6-1.42-3.24-2.81-4.95-4.11-1.68-1.28-3.43-2.49-5.26-3.57h0s0,0,0,0c0,0,0,0,0,0l-.23-.17c-.07-.06-.15-.11-.22-.17-1.61-1.36-3.34-2.55-5.12-3.64-2.25-1.38-4.59-2.62-6.91-3.89-.59-.33-1.36-.8-1.87-.25-.19.21-.27.45-.28.71-.01.43.18.91.38,1.39,1.64,3.92,4.01,7.41,6.48,10.8,1.98,2.71,3.83,5.5,5.64,8.32,1.52,2.38,3.01,4.78,4.51,7.17,1.05,1.68,2.08,3.36,3.1,5.06,3.57,5.91,7.02,11.91,10.44,17.9,1.96,3.43,3.83,6.89,5.64,10.39,3.1,6.01,6.01,12.12,8.8,18.29.86,1.91,1.68,3.84,2.47,5.78.15.36.3.73.44,1.09.6,1.48,1.19,2.97,1.78,4.46.25.64.51,1.29.76,1.93.42,1.05.84,2.11,1.27,3.16.07.17.13.34.2.51,2.33,5.79,6.33,19.7,6.32,19.69-.95.13-16.11-14.41-24.23-19.84-4.94-3.3-10.21-6.06-15.66-8.36-4.81-2.03-9.69-3.99-14.77-5.27-1.35-.34-2.71-.63-4.09-.86-1.85-.31-3.68-.74-5.52-1.1-1.97-.39-3.95-.7-5.97-.7h0s0,0,0,0v1.66h0c1.12.41,2.06,1.08,2.96,1.8.9.72,1.77,1.5,2.74,2.13,6.07,3.92,12.02,8.02,17.82,12.31,4.44,3.29,8.79,6.69,13.04,10.22,5.46,4.54,10.73,9.29,15.76,14.27,0,0,0,0,.01.01,0,0,0,0,0,0,4.85,4.8,9.49,9.83,13.89,15.09,14.12.09,29.13-.24,45.85-.24,1.54,0,3.07-.03,4.6-.09,4.44-5.28,9.11-10.32,14-15.13,4.92-4.85,10.06-9.49,15.39-13.91,4.24-3.52,8.58-6.92,13.01-10.2,5.81-4.3,11.77-8.41,17.85-12.33.97-.63,1.84-1.41,2.74-2.13.9-.72,1.84-1.39,2.96-1.8v-1.66Z"/><path class="cls-6" d="m350.22,191.99c-.97.79-1.92,1.61-2.85,2.43-2.78,2.47-5.67,4.85-8.36,7.42-.27.26-.54.52-.8.78-1.33,1.31-2.6,2.68-3.78,4.14-.17.21-.34.42-.52.63-2.1,2.54-4.37,4.95-6.43,7.52-.85,1.06-1.69,2.14-2.5,3.22-2.59,3.44-5.02,6.99-7.39,10.59-.35.53-.7,1.06-1.04,1.6-4.68,7.3-8.71,14.96-12.03,22.93-2.08,4.99-4.04,10.04-5.69,15.21-.65,2.04-1.26,4.09-1.81,6.17-.03.12-.06.24-.09.37-.71,2.8-1.14,5.69-2.06,8.43-.93-2.77-1.36-5.69-2.09-8.52-.02-.09-.05-.19-.07-.28-.47-1.76-.98-3.51-1.52-5.24-1.72-5.49-3.78-10.85-5.98-16.13-3.32-7.95-7.33-15.59-12-22.87-.35-.55-.71-1.1-1.07-1.65-2.38-3.61-4.82-7.17-7.41-10.62-.81-1.08-1.64-2.15-2.48-3.2-2.06-2.57-4.33-4.98-6.43-7.52-.17-.21-.35-.42-.52-.63-1.18-1.46-2.45-2.83-3.78-4.14-2.92-2.88-5.92-5.57-8.98-8.29-1.26-1.12-2.5-2.29-3.83-3.34,10.27,16.95,19.68,34.44,27.88,52.6,5.02,11.12,9.46,22.46,13.36,34.03,3.67,10.88,6.73,21.94,9.38,33.12.01,0,.03,0,.04,0v1.16c3.45-.03,6.97-.07,10.57-.1v-1.49c2.61-10.98,5.63-21.85,9.24-32.54,3.9-11.57,8.35-22.92,13.36-34.03,8.09-17.93,17.59-35.02,27.71-51.76Z"/><path class="cls-12" d="m296.87,272.13v-60.41c4.77-1.04,8.37-5.3,8.37-10.37v-52.78c0-5.59-4.37-10.2-9.86-10.59v-.17c-5.8.05-10.53,4.8-10.53,10.62v52.78c0,5.07,3.6,9.33,8.37,10.37v60.55"/><path class="cls-14" d="m386.55,255.52c-2.04,0-4.04.32-6.02.71-1.82.36-3.64.79-5.47,1.09-1.36.23-2.71.52-4.04.85-5.1,1.28-9.99,3.24-14.82,5.28-5.45,2.3-10.72,5.06-15.66,8.36-6.75,4.52-21.46,16.94-23.93,19.57-.18.19-.83.9-1.15.74-.31-.16-.17-1.08,0-1.82,3.15-8.16,5.5-14.13,7.17-18.35.07-.17.13-.34.2-.51,1.95-4.79,3.77-9.64,5.82-14.39.1-.24.21-.48.32-.71.19-.44.38-.88.58-1.32,2.86-6.33,5.85-12.59,9.04-18.75,1.73-3.35,3.53-6.66,5.4-9.94,3.65-6.4,7.33-12.79,11.16-19.08.79-1.3,1.59-2.59,2.39-3.88,1.41-2.26,2.82-4.52,4.25-6.77,1.89-2.96,3.82-5.88,5.89-8.73,2.47-3.39,4.83-6.88,6.48-10.8.21-.5.41-1,.38-1.45-.02-.24-.1-.45-.28-.65-.51-.55-1.28-.07-1.87.25-2.32,1.27-4.66,2.51-6.91,3.89-1.78,1.09-3.51,2.28-5.12,3.64-.07.06-.15.11-.22.17l-.23.17s0,0,0,0c0,0,0,0,0,0h0c-1.78,1.05-3.49,2.23-5.13,3.47-1.76,1.33-3.44,2.75-5.08,4.21-2.88,2.57-5.87,5.04-8.67,7.72-.28.27-.56.54-.83.81-1.37,1.36-2.69,2.78-3.92,4.31-.18.22-.36.44-.53.65-2.18,2.64-4.53,5.15-6.67,7.82-.88,1.1-1.75,2.22-2.6,3.35-2.68,3.58-5.21,7.27-7.67,11.02-.36.55-.72,1.11-1.08,1.66-4.85,7.59-9.03,15.55-12.47,23.84-2.16,5.19-4.18,10.44-5.9,15.81-.68,2.12-1.31,4.26-1.88,6.41-.03.13-.07.25-.1.38-.74,2.91-1.18,5.91-2.14,8.77-.97-2.88-1.41-5.92-2.16-8.85-.03-.1-.05-.2-.08-.3-.48-1.83-1.01-3.65-1.57-5.45-1.78-5.7-3.92-11.28-6.2-16.78-3.44-8.27-7.6-16.21-12.44-23.78-.37-.57-.74-1.15-1.11-1.72-2.47-3.76-4.99-7.46-7.68-11.04-.84-1.12-1.7-2.23-2.58-3.33-2.14-2.67-4.49-5.17-6.67-7.82-.18-.22-.36-.43-.53-.65-1.22-1.52-2.54-2.94-3.92-4.31-3.03-3-6.33-5.7-9.5-8.53-1.6-1.42-3.24-2.81-4.95-4.11-1.68-1.28-3.43-2.49-5.26-3.57h0s0,0,0,0c0,0,0,0,0,0l-.23-.17c-.07-.06-.15-.11-.22-.17-1.61-1.36-3.34-2.55-5.12-3.64-2.25-1.38-4.59-2.62-6.91-3.89-.59-.33-1.36-.8-1.87-.25-.19.21-.27.45-.28.71-.01.43.18.91.38,1.39,1.64,3.92,4.01,7.41,6.48,10.8,1.98,2.71,3.83,5.5,5.64,8.32,1.52,2.38,3.01,4.78,4.51,7.17,1.05,1.68,2.08,3.36,3.1,5.06,3.57,5.91,7.02,11.91,10.44,17.9,1.96,3.43,3.83,6.89,5.64,10.39,3.1,6.01,6.01,12.12,8.8,18.29.86,1.91,1.68,3.84,2.47,5.78.15.36.3.73.44,1.09.6,1.48,1.19,2.97,1.78,4.46.25.64.51,1.29.76,1.93.42,1.05.84,2.11,1.27,3.16.07.17.13.34.2.51,2.33,5.79,6.33,19.7,6.32,19.69-.95.13-16.11-14.41-24.23-19.84-4.94-3.3-10.21-6.06-15.66-8.36-4.81-2.03-9.69-3.99-14.77-5.27-1.35-.34-2.71-.63-4.09-.86-1.85-.31-3.68-.74-5.52-1.1-1.97-.39-3.95-.7-5.97-.7h0s0,0,0,0v1.66h0c1.12.41,2.06,1.08,2.96,1.8.9.72,1.77,1.5,2.74,2.13,6.07,3.92,12.02,8.02,17.82,12.31,4.44,3.29,8.79,6.69,13.04,10.22,5.46,4.54,10.73,9.29,15.76,14.27,0,0,0,0,.01.01,0,0,0,0,0,0,4.85,4.8,9.49,9.83,13.89,15.09,14.12.09,29.13-.24,45.85-.24,1.54,0,3.07-.03,4.6-.09,4.44-5.28,9.11-10.32,14-15.13,4.92-4.85,10.06-9.49,15.39-13.91,4.24-3.52,8.58-6.92,13.01-10.2,5.81-4.3,11.77-8.41,17.85-12.33.97-.63,1.84-1.41,2.74-2.13.9-.72,1.84-1.39,2.96-1.8v-1.66Z"/></g><polygon class="cls-5" points="295.44 284.78 302.01 264.22 288.87 264.22 295.44 284.78"/><line class="cls-10" x1="295.05" y1="262.97" x2="295.05" y2="286.51"/><g class="cls-17"><rect class="cls-1" x="-420.41" y="-11.6" width="456.6" height="456.72" rx="69.76" ry="69.76"/><path class="cls-16" d="m36.19,117.8c-6.25,1.22-12.29,4.22-17.32,8.18-8.65,6.81-14.92,16.13-21.03,25.28-15.06,22.56-30.13,45.11-45.19,67.67-2.9-2.3-5.75-4.66-8.53-7.12-36.51-32.32-58.98-78.51-96.85-109.21-5.43-4.4-11.29-8.53-17.99-10.53-17.51-5.24-35.62,4.93-50.63,15.37-36.86,25.64-69.33,55.91-100.95,88.76-2.03,2.1-3.91,4.35-5.85,6.53-5.52-6.11-11.3-11.98-17.34-17.58-4.34-4.02-8.99-8-14.65-9.73-12.18-3.73-24.67,3.85-35.16,11.08-8.37,5.76-16.74,11.53-25.1,17.29v90.18l456.6-14.16V117.8Z"/><path class="cls-3" d="m-21.47,243.8l57.66-98.35v-25.98c-6.25,1.22-12.29,4.22-17.32,8.18-8.65,6.81-14.92,16.13-21.03,25.28-15.06,22.56-30.13,45.11-45.19,67.67"/><path class="cls-8" d="m36.07,343.38v-105.18c-10.87-3.82-23.23-2.92-34.91-1.86-35.06,3.17-70.12,6.34-105.18,9.5-17.09,1.54-34.2,3.09-51.36,3.42-50.84.98-101.19-8.69-151.77-13.96-37.67-3.92-76.43-5.26-113.38,1.85v106.22c0,38.37,31.39,69.77,69.75,69.77H-33.68c38.36,0,69.75-31.4,69.75-69.77Z"/><path class="cls-15" d="m36.07,375.35v-105.18c-10.87-3.82-23.23-2.92-34.91-1.86-35.06,3.17-46.12,22.93-81.18,26.09-17.09,1.54-70.51-13.12-87.67-12.79-50.84.98-88.89-9.08-139.46-14.34-37.67-3.92-76.43-5.26-113.38,1.85v106.22c0,38.37,31.39,69.77,69.75,69.77H-33.68c38.36,0,69.75-31.4,69.75-69.77Z"/><path class="cls-2" d="m31.59,236.2c0-3.28-4.68-5.94-10.45-5.94,0,0,0,0,0,0-.17-3.2-4.78-5.76-10.45-5.76S.23,227.16.23,230.44c0,.18.02.36.04.54-3.26,1.01-5.47,2.97-5.47,5.22,0,3.28,4.68,5.94,10.45,5.94,0,0,0,0,0,0,0,.06,0,.12,0,.18,0,3.28,4.68,5.94,10.45,5.94s10.45-2.66,10.45-5.94c0-.3-.04-.59-.11-.88,3.29-1,5.54-2.97,5.54-5.24Z"/><path class="cls-7" d="m10.37,239.88c.77-2.22,2.3-4.17,2.69-6.49.55-3.21-1.19-6.26-3.23-8.89-5.37.25-9.6,2.8-9.6,5.91,0,.18.02.36.04.54-3.26,1.01-5.47,2.97-5.47,5.22,0,3.28,4.68,5.94,10.45,5.94h0c0,.06,0,.12,0,.18,0,2.05,1.84,3.86,4.63,4.93-.24-2.47-.32-5.01.48-7.34Z"/></g></svg>